<?xml version="1.0" encoding="utf-8"?>
<!-- Generator: Adobe Illustrator 24.3.0, SVG Export Plug-In . SVG Version: 6.00 Build 0)  -->
<svg version="1.1" xmlns="http://www.w3.org/2000/svg" xmlns:xlink="http://www.w3.org/1999/xlink" x="0px" y="0px"
	 viewBox="0 0 483.3 406.7" style="enable-background:new 0 0 483.3 406.7;" xml:space="preserve">
<style type="text/css">
	.st0{fill:#2D545E;}
	.st1{fill:#C89666;}
	.st2{display:none;}
	.st3{display:inline;}
	.st4{fill:#12343B;}
</style>
<g id="Livello_1">
	<g>
		<g>
			<path class="st0" d="M177.2,64.3V50.9l-30.5-10.6l-16.2,27.4l11.8,5.2v56.5l-12.7,13.2l12.7,10.4v85.5l34.3-21.6l0.2-35.8
				l19.4,15.8l39.7-24.3V55.8L201,39.9L177.2,64.3z M199.3,163l-22.5-17.6l0.2-64.8l7.5-9.6l14.9,6V163z"/>
			<path class="st0" d="M311.9,115.5l26.3-18.8L316,40.3c-9,3.3-17.9,6.5-26.9,9.6l-28.7-10l-16.2,27.4l11.7,5.2l-0.6,104.6
				l60.9,31.7l20.2-27.6l-44.1-26.5l0.8-88.6L311.9,115.5z"/>
		</g>
		<path class="st0" d="M112.2,297.3l30.5-15.7l-42.9-78l-40.1,21.4L21,203.2L1.5,233.7l16.6,9.1v150.3l35.1,13.4L68,376.8l-11.7-4.9
			v-49.1l23.7-10.4l17.5,80.9l30.8,13.4l15.3-30l-14.9-7.2L112.2,297.3z M56.2,307.3v-65.1l17.5-8.6l28.6,51.9L56.2,307.3z"/>
		<polygon class="st0" points="384.4,204.8 347.9,208.6 348.6,393.1 379.6,406.7 394.6,377.6 383.5,373.2 		"/>
		<polygon class="st0" points="441.2,204.8 404.7,208.6 405.3,393.1 436.3,406.7 451.3,377.6 440.2,373.2 		"/>
		<g>
			<path class="st1" d="M193.2,337.7c16.4,0,32.7,0,49.1,0c0,0,0,0,0,0c16.5,0,33,0,49.5,0c3.9,0,4-0.1,2-3.5
				c-16.5-28.6-33-57.2-49.5-85.7c-0.3-0.6-0.7-1.2-1.1-1.8c-0.5-0.6-1-1-1.6,0c-0.2,0.4-0.4,0.7-0.6,1.1
				c-16.6,28.8-33.3,57.6-49.9,86.5C189.2,337.6,189.2,337.7,193.2,337.7z M245.1,298.3c1.8-4.8,5.6-7.2,10.7-7.3
				c5-0.2,9.2,2.7,11.1,7.5c2.1,5.4,2.2,10.9,0.2,16.4c-1.9,5-6,7.9-11.2,7.9c-5.1,0-9.4-2.9-11.1-8c-0.8-2.5-1.1-5.1-1.7-8
				C243.7,304,244.1,301,245.1,298.3z M228.7,297.9c-1.6-0.2-3.3,0.5-4.8,0.9c-2.1,0.6-2.8,0.3-3.3-1.7c-0.5-2.1,0.3-3.7,2.3-4.9
				c4.1-2.3,11.2-1.4,14.5,1.9c2.2,2.2,3,4.9,2.3,8.1c-0.8,3.5-3,5.9-5.5,8.2c-1.6,1.4-3,3-4.5,4.6c2.1,0.1,4.2,0.2,6.3,0.2
				c0.4,0,0.8,0,1.3,0c2.4,0.1,2.9,0.7,3,3c0.1,2.5-0.7,3.4-3,3.6c-2.5,0.1-5,0-7.6,0c0,0,0,0,0,0c-2.1,0-4.2,0-6.3,0
				c-2.4-0.1-3.3-0.8-3.9-3c-0.7-2.5,0.1-4.7,2-6.5c2.2-2,4.4-3.9,6.5-6c1.1-1.1,2.2-2.2,3.1-3.4
				C232.6,300.6,231.7,298.2,228.7,297.9z"/>
			<path class="st1" d="M280.1,248.3c-10.5-1.4-21.1-2.8-31.6-4.2c-1.4-0.2-1.8,0.3-1.1,1.5c1.1,2.1,2.4,4.1,3.6,6.2
				c15.2,26.4,30.5,52.8,45.7,79.2c0.5,0.9,1.3,1.7,2,2.6c0.5-1,1.1-1.9,1.4-2.9c6.3-18.7,12.6-37.3,18.9-56
				c1.9-5.7,3.9-11.4,5.7-17.1c0.9-2.7,0.4-3.3-2.2-3.7c-2.4-0.3-4.7-0.6-7.1-0.9C303.6,251.5,291.9,249.9,280.1,248.3z
				 M297.3,282.2c-2.2-0.4-4.2-1.4-6.4-2c-0.5-0.1-1,0-1.5,0c0.2,0.5,0.3,1,0.6,1.4c0.7,1.2,1.5,2.4,2.3,3.5c1,1.3,0.7,2.3-0.4,3.3
				c-1.2,1.1-2.5,1.2-3.8,0.1c-0.5-0.4-0.9-1-1.3-1.6c-2.3-3.3-4.6-6.7-6.9-10c-1.1-1.6-1.7-3.2-0.4-5c1.3-1.7,3.1-1.7,4.9-1.2
				c2,0.6,3.9,1.5,5.9,2.2c1.6,0.6,3.2,1.1,4.8,1.5c1.3,0.3,2.3-0.8,1.7-1.9c-0.9-1.5-2-3.1-3.3-4.2c-1.3-1.1-2.3-2-1.2-3.8
				c0.9-1.6,2.6-2,4.3-0.8c4.3,3,7,7.2,7.5,11.7C304.1,280.2,301.2,282.9,297.3,282.2z"/>
			<path class="st1" d="M160.6,258.5c8,23.7,16,47.4,24,71.1c0.5,1.4,1.3,2.6,1.9,3.9c0.9-1.2,1.9-2.4,2.6-3.7
				c15.5-26.9,31-53.8,46.5-80.7c0.8-1.3,1.6-2.6,2.3-4c0.1-0.3-0.3-0.9-0.4-1.1c-4.7,0.6-9,1.1-13.3,1.7
				c-14.4,1.9-28.8,3.8-43.2,5.8c-6.2,0.8-12.5,1.6-18.7,2.5c-2.6,0.4-2.7,0.7-2,3.3C160.3,257.7,160.4,258.1,160.6,258.5z
				 M185.5,261.2c4.4-3.4,8.8-1.9,10.2,3.4c0.3,1.3,0.7,1.6,2,1.2c1.3-0.4,2.8-0.8,4.1-0.6c3.2,0.5,5,3.1,5,7.7
				c-0.5,4.9-3.3,9.5-8.1,12.6c-4.4,2.9-8.6,1-9.9-4.1c-0.4-1.5-0.7-1.9-2.4-1.8c-5.1,0.6-8.4-3-7.4-8
				C179.8,267.4,182,263.9,185.5,261.2z"/>
			<path class="st1" d="M293.7,342.1c-1-0.2-2.1-0.5-3.1-0.5c-16,0-31.9,0-47.9,0c0,0,0,0,0,0c-16.1,0-32.2,0-48.3,0
				c-1.1,0-2.1,0.3-3.2,0.5c0.6,0.9,1,1.9,1.7,2.6c15.3,16.7,30.7,33.4,46,50.1c3.5,3.8,3.5,3.8,7,0.1c15.3-16.7,30.7-33.4,46-50.2
				C292.6,344,293.1,343,293.7,342.1z M243.8,361.5c-2.3,2.4-4.6,4.8-6.9,7.2c-2,2-2.4,2.2-5.1,2.2c-3.9,0-4.8-0.9-4.9-5
				c0-1.1,0-2.2,0-3.3c0.1-1.9,0.1-3.7-2.7-3.6c-0.5,0-1.4-1.1-1.4-1.7c0.1-0.8,0.7-2.2,1.3-2.3c1.9-0.3,2.9-1,2.9-3.1
				c0-1.4,1.6-1.3,2.7-1.3c1.5,0,3.5-0.2,3.7,1.8c0.2,2.2,1.3,2.4,3,2.3c1.5-0.1,3.1,0,4.6,0c1.7,0,3.5-0.1,4.2,1.9
				C245.9,358.5,245.1,360.1,243.8,361.5z M259.4,369.6c-2,0.6-4,1.1-5.3,1.4c-3.9-0.1-4.8-0.9-4.8-4c-0.1-4.5,0-9,0-13.4
				c0-1.5,0-2.8,2.1-2.9c2.8-0.1,4.3,0.5,4.5,2.5c0.2,1.9,0.1,3.9,0.1,5.9c0,1.1,0,2.2,0,3.4c0.1,2.4,0.1,2.4,2.5,2.4
				c1.4,0,2.6,0,2.9,1.6C261.8,368.1,260.9,369.1,259.4,369.6z"/>
			<path class="st1" d="M249.3,240.2c21,3,42,5.7,63.1,8.5c1,0.1,1.9,0.2,2.9,0.2c0.3,0,0.6-0.3,0.9-0.5c-0.2-0.2-0.3-0.5-0.5-0.6
				c-0.8-0.5-1.7-1-2.5-1.5c-14.3-8.3-28.5-16.5-42.8-24.8c-7.5-4.3-15-8.7-22.5-12.9c-3.4-2-3.5-1.9-3.5,1.8c0,4.2,0,8.4,0,12.6
				c0,0,0,0,0,0c0,3.9,0,7.8,0,11.7C244.5,240.4,243.7,239.4,249.3,240.2z M264.9,222.7c3.8-0.7,10.1,2.4,11.8,5.9
				c1,2,0.7,2.8-1.5,5c-0.4,0.4-0.7,1-1.1,1.5c0.5,0.2,1,0.5,1.5,0.6c1.5,0.4,3,0.6,4.4,1.3c0.6,0.3,0.7,1.4,1.1,2.1
				c-0.6,0.2-1.3,0.4-1.7,0.5c-2.9-0.6-5.7-1.1-8.4-1.8c-1-0.3-2-0.9-2.8-1.7c-1.4-1.5-1.2-2.4,0.3-3.8c0.6-0.6,1.3-1,1.9-1.6
				c2-1.8,1.7-3.4-0.9-4.2c-1-0.3-2.2-0.1-3.3-0.4c-0.9-0.2-1.8-0.7-2.4-1.3C263.2,224,263.7,222.9,264.9,222.7z M253.8,221.2
				c0.4-0.2,0.8-0.1,1.6-0.1c2.1,0,4,1,5.1,3.2c1.7,3.7,3.3,7.4,4.9,11.1c0.5,1.3,0,1.8-1.3,1.7c-1.9-0.2-3-1.2-3.8-2.9
				c-1-2.3-2-4.6-3-6.9c-0.5-1.2-1.1-2.2-2.7-2.1c-0.5,0-1.2-0.1-1.5-0.5c-0.6-0.7-1.1-1.5-1.6-2.3C252.2,222,253,221.6,253.8,221.2
				z"/>
			<path class="st1" d="M179.4,247.7c14.1-1.9,28.3-3.8,42.4-5.7c5.1-0.7,10.3-1.3,15.4-2.1c3.2-0.5,3.2-0.6,3.2-3.6
				c0-4.3,0-8.7,0-13c0,0,0,0,0,0c0-4.6,0-9.2,0-13.9c0-2.6-0.2-2.6-2.6-1.4c-0.5,0.3-1,0.6-1.4,0.9c-17.7,10.2-35.4,20.4-53.1,30.6
				c-4.6,2.7-9.2,5.3-13.8,8c-0.4,0.2-0.6,0.7-0.8,1.1c0.4,0.1,0.8,0.2,1.2,0.2C173,248.5,176.2,248.2,179.4,247.7z M227,222
				c3.1-0.5,4.4,0.8,4.1,4c-0.6,5.2-6.1,11.2-11.2,12.3c-2.8,0.6-4.2-0.4-4.3-2.9C215.5,230.2,221.8,222.8,227,222z M207.2,237.7
				c1-2.2,2-4.3,3.1-6.4c0.2-0.5,0.5-1,0.9-1.9c-0.5-0.1-0.8-0.1-1.2-0.2c-0.5-0.1-1-0.2-1.4-0.3c0.2-0.5,0.2-1.3,0.5-1.5
				c1.3-1,2.7-2,4.2-2.7c1-0.5,2.3-0.3,3.5-0.4c-0.2,1.1-0.3,2.4-0.8,3.4c-1.5,3.3-3,6.6-4.7,9.8c-0.5,0.9-1.4,1.6-2.3,2.1
				c-0.4,0.2-1.3-0.1-1.9-0.4C206.9,239.1,207,238.1,207.2,237.7z"/>
			<path class="st1" d="M180.3,339.7c2.8-1.2,2.8-1.2,1.8-4.2c-4.2-12.7-8.5-25.5-12.8-38.2c-3-8.9-6-17.8-9-26.6
				c-0.4-1.2-0.9-2.3-1.4-3.4c-0.1,1.3-0.4,2.6-0.4,4c0,5.7,0,11.5,0,17.2c0,0,0,0,0,0c0,6.3,0,12.6,0,18.9c0,2,0.2,3.9,1.8,5.4
				c0.3,0.2,0.7,0.3,1.1,0.4c0-0.4,0.2-0.8,0-1.1c-1.4-2.4-1.8-5-1.2-7.7c0.4-1.6,1.3-2.9,3-3.2c1.6-0.3,2.7,0.7,3.5,1.9
				c2,3.1,2.6,6.5,1.7,10c-0.5,2.1-2.1,3.6-3.9,4.7c-1.6,1-3.1,0.7-4.8-0.1c-1.4-0.7-1.2,0.7-1.2,1.4c0,8.8,0,17.6,0,26.5
				c0,0.4-0.1,1,0.1,1.2c0.5,0.5,1.2,1.2,1.8,1.3c0.8,0.1,1.6-0.4,2.4-0.8C168.7,344.6,174.5,342.2,180.3,339.7z M163,322.8
				c2.3-1.9,4.6-3.6,7-5.3c1-0.8,1.7-0.6,2.2,0.6c1,2.4,0.9,3.3-1.3,5c-1,0.8-2,1.5-3,2.2c-1.4,1-2.4,2-1.2,3.7
				c0.3,0.4,0.2,1.1,0.2,1.6c-0.1,1.1-1.5,1.7-2.2,0.9c-1.5-1.8-3-3.7-2.9-6.9C162,324.3,162.3,323.3,163,322.8z"/>
			<path class="st1" d="M321.9,312.3c-1.8-1.3-3.4-3-4.9-4.6c-1-1-0.8-3,0.3-4.2c1.2-1.3,1.9,0.2,2.7,0.8c0.9,0.7,1.7,1.5,2.5,2.2
				c1,0.8,2,1.5,2.9,2.2c0.4-1.2,0.8-2.3,1-3.5c0.2-0.9,0.1-1.9,0.1-2.9c0-5.3,0-10.6,0-16c0-6,0-12,0-18.1c0-0.4-0.1-0.8-0.1-1.2
				c-0.3,0.4-0.8,0.7-1,1.2c-0.3,0.6-0.4,1.3-0.7,2c-3.6,10.6-7.1,21.2-10.7,31.8c-3.8,11.3-7.5,22.5-11.3,33.8
				c-0.9,2.6-0.8,2.7,1.6,3.8c4.2,1.9,8.5,3.6,12.7,5.4c1.9,0.8,3.8,1.7,5.8,2.4c1.8,0.7,3.1,0,3.4-1.8c0.2-1.1,0.1-2.2,0.1-3.3
				c0-6.4-0.3-12.9,0.1-19.3C327,318.3,325.8,314.9,321.9,312.3z M322.7,329.4c-1.4,2.2-3.3,2.2-4.6,0c-0.9-1.5-1.7-2.4-3.5-2.9
				c-2.6-0.7-2.8-3.5-3-7c0.6-1.6,1.4-4.1,2.7-6.4c1.1-2,3.1-1.8,4.4,0.1c1.1,1.6,1.3,4.1,4.1,4.2c0.5,0,1.1,1.2,1.4,2
				C325.3,323,324.7,326.3,322.7,329.4z"/>
			<path class="st1" d="M303.6,343.7c-4.1-1.7-3.1-2.2-6.3,1.2c-11.4,12.3-22.7,24.7-34.1,37.1c-2.7,3-5.5,6-8.2,9
				c-0.2,0.2-0.2,0.5-0.3,0.7c0.2,0.1,0.4,0.1,0.7,0.2c0.6-0.3,1.2-0.6,1.8-1c4.2-2.5,8.4-4.9,12.7-7.4
				c17.2-9.9,34.4-19.9,51.6-29.8c0.6-0.3,1-0.8,1.5-1.3c-0.5-0.4-1-0.9-1.6-1.2C315.5,348.7,309.6,346.1,303.6,343.7z M297.6,366.1
				c-1.3,0.9-2.6,1.4-4.2,0.6c-2.3-1.1-4.6-2.1-6.8,0.4c-0.2,0.2-1.2,0.2-1.5-0.1c-0.3-0.2-0.4-1-0.3-1.4c0.4-0.9,1.1-1.7-0.1-2.5
				c-0.2-0.1-0.3-0.8-0.1-1c1.2-1.1,2.5-3,3.7-3c2.4,0,3.5-1.3,4.8-2.7c1-1.1,2-2.4,3.2-3.3c0.9-0.6,2.4-1,3.4-0.8
				c0.6,0.1,0.9,1.7,1.1,2.7c0.2,0.8,0,1.7,0,2.7C301.5,361.2,300.5,364,297.6,366.1z"/>
			<path class="st1" d="M206.9,365.8c-6.7-7.3-13.5-14.6-20.1-22c-1.2-1.4-2.3-1.7-4-0.9c-6.4,2.8-12.8,5.5-19.3,8.3
				c-0.6,0.2-1,0.8-1.5,1.3c0.4,0.4,0.8,0.8,1.2,1.1c5.7,3.3,11.4,6.6,17.1,9.8c1.2,0.7,2.4,1.1,3.6,1.7c-0.7-1-1.5-1.9-2.1-3
				c-0.2-0.3,0-0.9,0-1.4c0.5,0.1,1.1,0,1.5,0.3c0.6,0.4,0.9,1.1,1.4,1.5c1.1,1.1,2.2,2.1,3.4,3.1c0.5,0.4,1.2,0.3,1.9,0.4
				c-0.4-0.4-0.7-0.7-1.1-1.1c-1.3-1.6-2.8-3.1-3.9-4.9c-0.9-1.5,0-2.8,1.8-2.7c0.9,0.1,1.9,0.4,2.8,0.8c3.1,1.5,5.6,3.8,7.5,6.6
				c2.3,3.3,1.8,4.6-2,6c-0.3,0.1-0.5,0.2-0.8,0.2c0.2,0.3,0.4,0.7,0.6,0.9c0.4,0.3,1,0.6,1.4,0.9c9.1,5.2,18.2,10.5,27.3,15.7
				c1.9,1.1,4,2,6,3c-0.5-0.8-1-1.7-1.7-2.5C221.1,381.3,214,373.6,206.9,365.8z M203.7,367.4c-0.9-0.3-2-0.5-2.6-1.1
				c-2.5-2.6-4.9-5.4-7.2-8.1c-0.3-0.3-0.4-1.2-0.1-1.4c0.3-0.3,1-0.4,1.5-0.3c0.5,0.1,1,0.4,1.4,0.8c2.5,2.8,5,5.6,7.5,8.4
				c0.3,0.3,0.4,0.7,0.6,1.2C204.3,367.2,203.9,367.5,203.7,367.4z"/>
			<path class="st1" d="M229.9,391.5c0.1,0.1,0.1,0.2,0.2,0.2c0.1,0,0.1,0.1,0.2,0.1c0-0.1,0-0.1-0.1-0.2
				C230,391.6,230,391.5,229.9,391.5z"/>
			<path class="st1" d="M166.6,308.8c-0.8-0.9-1.5-1.6-2.1-2.3c-0.5,0.6-1.4,1.4-1.3,1.9c0.2,0.9,1,1.7,1.5,2.5
				C165.2,310.2,165.7,309.7,166.6,308.8z"/>
			<path class="st1" d="M190.7,361.8c-0.3,0.1-0.6,0.4-1.1,0.9c1.2,1,2.3,1.8,3.4,2.6c0.1,0.1,0.5-0.4,0.8-0.6
				c-0.8-0.9-1.5-1.8-2.3-2.7C191.4,361.8,191,361.7,190.7,361.8z"/>
			<path class="st1" d="M230.2,392c0,0.1,0.2,0.1,0.3,0.1c-0.1-0.1-0.2-0.2-0.3-0.2C230.2,391.9,230.2,392,230.2,392z"/>
			<path class="st1" d="M258.9,313.8c1-2.1,1.2-4.5,1.9-7c-0.6-2.4-0.9-4.9-2-7.1c-1.3-2.7-4.6-2.7-5.9,0c-2.3,4.6-2.3,9.5-0.1,14.1
				C254.2,316.8,257.5,316.8,258.9,313.8z"/>
			<path class="st1" d="M196.9,279.8c1.9,0,4-2.4,4-4.6c0-1.9-1.6-3.5-3.5-3.4c-2.1,0.1-3.7,1.9-3.7,4.3
				C193.7,278.1,195.1,279.8,196.9,279.8z"/>
			<path class="st1" d="M187.6,273.2c2-0.1,3.3-1.5,3.2-3.6c0-1.9-1.1-3.1-2.7-3.1c-1.8-0.1-3.6,1.9-3.5,3.9
				C184.7,271.9,186,273.2,187.6,273.2z"/>
			<path class="st1" d="M234.2,359.4c-0.6,0.2-0.9,1.5-1,1.7c0,1.1,0,1.6,0,2c0.1,0.4,0.2,0.8,0.3,1.1c0.4-0.2,0.9-0.4,1.2-0.7
				c0.5-0.5,0.9-1,1.3-1.6c0.5-0.7,0.8-1.6,1.2-2.4C236.2,359.5,235.1,359.1,234.2,359.4z"/>
			<path class="st1" d="M222,234.4c2.7-1.8,3.8-4.6,4.8-7.6c-0.2-0.4-0.3-0.9-0.6-1c-0.4-0.2-1.1-0.2-1.5,0c-2.7,1.8-4,4.5-4.7,7.5
				C219.8,234.4,221,235.1,222,234.4z"/>
			<path class="st1" d="M314.8,319.3c-0.1,1,0.1,2.2,1.3,2.2c0.4,0,1.2-1.2,1.2-1.8c0-0.8-0.6-1.6-1.3-3.2
				C315.4,318,314.9,318.6,314.8,319.3z"/>
			<path class="st1" d="M319.6,324.1c0.1,0.4,0.9,0.8,1.4,1.1c0.2-0.6,0.7-1.2,0.6-1.8c0-0.5-0.6-1-1.3-2.1
				C320,322.7,319.5,323.4,319.6,324.1z"/>
			<path class="st1" d="M293.5,360.5c0.7,0.4,1.5,0.9,2.3,1.3c0.1,0,0.6-0.9,1-1.5c-0.4-0.8-0.7-1.4-1-2
				C295,359,294.2,359.7,293.5,360.5z"/>
		</g>
		<path class="st0" d="M468.2,204.8c-8.3,0-15.1,6.6-15.1,14.8c0,8.2,6.8,14.8,15.1,14.8c8.3,0,15.1-6.6,15.1-14.8
			C483.3,211.5,476.5,204.8,468.2,204.8z M468.2,231.2c-6.4,0-11.6-5.2-11.6-11.6c0-6.4,5.2-11.5,11.6-11.5
			c6.4,0,11.5,5.2,11.5,11.5C479.8,226,474.6,231.2,468.2,231.2z"/>
		<path class="st0" d="M470.4,217.1l3.3-2.4l-3.5-5.2c-2.5,0.9-5,1.8-7.5,2.6l-0.1,14.5l8.5,2.8l2.5-3.4l-6.4-2.2l0.1-11.1
			L470.4,217.1z"/>
		<polygon class="st0" points="116,162.3 116,22.7 84.6,5.2 58.3,21.2 20.1,0 0,31.3 17.3,41.3 17.3,166.8 17.3,166.9 17.3,184.6 
			52.1,197.2 66.4,167.3 54.5,162.3 54.5,43.2 66.6,34.8 79,41.9 79,184.7 113.8,197.2 128.1,167.4 		"/>
	</g>
</g>
<g id="Livello_2" class="st2">
	<g class="st3">
		<g>
			<path class="st4" d="M177.2,64.3V50.9l-30.5-10.6l-16.2,27.4l11.8,5.2v56.5l-12.7,13.2l12.7,10.4v85.5l34.3-21.6l0.2-35.8
				l19.4,15.8l39.7-24.3V55.8L201,39.9L177.2,64.3z M199.3,163l-22.5-17.6l0.2-64.8l7.5-9.6l14.9,6V163z"/>
			<path class="st4" d="M311.9,115.5l26.3-18.8L316,40.3c-9,3.3-17.9,6.5-26.9,9.6l-28.7-10l-16.2,27.4l11.7,5.2l-0.6,104.6
				l60.9,31.7l20.2-27.6l-44.1-26.5l0.8-88.6L311.9,115.5z"/>
		</g>
		<path class="st4" d="M112.2,297.3l30.5-15.7l-42.9-78l-40.1,21.4L21,203.2L1.5,233.7l16.6,9.1v150.3l35.1,13.4L68,376.8l-11.7-4.9
			v-49.1l23.7-10.4l17.5,80.9l30.8,13.4l15.3-30l-14.9-7.2L112.2,297.3z M56.2,307.3v-65.1l17.5-8.6l28.6,51.9L56.2,307.3z"/>
		<polygon class="st4" points="384.4,204.8 347.9,208.6 348.6,393.1 379.6,406.7 394.6,377.6 383.5,373.2 		"/>
		<polygon class="st4" points="441.2,204.8 404.7,208.6 405.3,393.1 436.3,406.7 451.3,377.6 440.2,373.2 		"/>
		<g>
			<path class="st1" d="M193.2,337.7c16.4,0,32.7,0,49.1,0c0,0,0,0,0,0c16.5,0,33,0,49.5,0c3.9,0,4-0.1,2-3.5
				c-16.5-28.6-33-57.2-49.5-85.7c-0.3-0.6-0.7-1.2-1.1-1.8c-0.5-0.6-1-1-1.6,0c-0.2,0.4-0.4,0.7-0.6,1.1
				c-16.6,28.8-33.3,57.6-49.9,86.5C189.2,337.6,189.2,337.7,193.2,337.7z M245.1,298.3c1.8-4.8,5.6-7.2,10.7-7.3
				c5-0.2,9.2,2.7,11.1,7.5c2.1,5.4,2.2,10.9,0.2,16.4c-1.9,5-6,7.9-11.2,7.9c-5.1,0-9.4-2.9-11.1-8c-0.8-2.5-1.1-5.1-1.7-8
				C243.7,304,244.1,301,245.1,298.3z M228.7,297.9c-1.6-0.2-3.3,0.5-4.8,0.9c-2.1,0.6-2.8,0.3-3.3-1.7c-0.5-2.1,0.3-3.7,2.3-4.9
				c4.1-2.3,11.2-1.4,14.5,1.9c2.2,2.2,3,4.9,2.3,8.1c-0.8,3.5-3,5.9-5.5,8.2c-1.6,1.4-3,3-4.5,4.6c2.1,0.1,4.2,0.2,6.3,0.2
				c0.4,0,0.8,0,1.3,0c2.4,0.1,2.9,0.7,3,3c0.1,2.5-0.7,3.4-3,3.6c-2.5,0.1-5,0-7.6,0c0,0,0,0,0,0c-2.1,0-4.2,0-6.3,0
				c-2.4-0.1-3.3-0.8-3.9-3c-0.7-2.5,0.1-4.7,2-6.5c2.2-2,4.4-3.9,6.5-6c1.1-1.1,2.2-2.2,3.1-3.4
				C232.6,300.6,231.7,298.2,228.7,297.9z"/>
			<path class="st1" d="M280.1,248.3c-10.5-1.4-21.1-2.8-31.6-4.2c-1.4-0.2-1.8,0.3-1.1,1.5c1.1,2.1,2.4,4.1,3.6,6.2
				c15.2,26.4,30.5,52.8,45.7,79.2c0.5,0.9,1.3,1.7,2,2.6c0.5-1,1.1-1.9,1.4-2.9c6.3-18.7,12.6-37.3,18.9-56
				c1.9-5.7,3.9-11.4,5.7-17.1c0.9-2.7,0.4-3.3-2.2-3.7c-2.4-0.3-4.7-0.6-7.1-0.9C303.6,251.5,291.9,249.9,280.1,248.3z
				 M297.3,282.2c-2.2-0.4-4.2-1.4-6.4-2c-0.5-0.1-1,0-1.5,0c0.2,0.5,0.3,1,0.6,1.4c0.7,1.2,1.5,2.4,2.3,3.5c1,1.3,0.7,2.3-0.4,3.3
				c-1.2,1.1-2.5,1.2-3.8,0.1c-0.5-0.4-0.9-1-1.3-1.6c-2.3-3.3-4.6-6.7-6.9-10c-1.1-1.6-1.7-3.2-0.4-5c1.3-1.7,3.1-1.7,4.9-1.2
				c2,0.6,3.9,1.5,5.9,2.2c1.6,0.6,3.2,1.1,4.8,1.5c1.3,0.3,2.3-0.8,1.7-1.9c-0.9-1.5-2-3.1-3.3-4.2c-1.3-1.1-2.3-2-1.2-3.8
				c0.9-1.6,2.6-2,4.3-0.8c4.3,3,7,7.2,7.5,11.7C304.1,280.2,301.2,282.9,297.3,282.2z"/>
			<path class="st1" d="M160.6,258.5c8,23.7,16,47.4,24,71.1c0.5,1.4,1.3,2.6,1.9,3.9c0.9-1.2,1.9-2.4,2.6-3.7
				c15.5-26.9,31-53.8,46.5-80.7c0.8-1.3,1.6-2.6,2.3-4c0.1-0.3-0.3-0.9-0.4-1.1c-4.7,0.6-9,1.1-13.3,1.7
				c-14.4,1.9-28.8,3.8-43.2,5.8c-6.2,0.8-12.5,1.6-18.7,2.5c-2.6,0.4-2.7,0.7-2,3.3C160.3,257.7,160.4,258.1,160.6,258.5z
				 M185.5,261.2c4.4-3.4,8.8-1.9,10.2,3.4c0.3,1.3,0.7,1.6,2,1.2c1.3-0.4,2.8-0.8,4.1-0.6c3.2,0.5,5,3.1,5,7.7
				c-0.5,4.9-3.3,9.5-8.1,12.6c-4.4,2.9-8.6,1-9.9-4.1c-0.4-1.5-0.7-1.9-2.4-1.8c-5.1,0.6-8.4-3-7.4-8
				C179.8,267.4,182,263.9,185.5,261.2z"/>
			<path class="st1" d="M293.7,342.1c-1-0.2-2.1-0.5-3.1-0.5c-16,0-31.9,0-47.9,0c0,0,0,0,0,0c-16.1,0-32.2,0-48.3,0
				c-1.1,0-2.1,0.3-3.2,0.5c0.6,0.9,1,1.9,1.7,2.6c15.3,16.7,30.7,33.4,46,50.1c3.5,3.8,3.5,3.8,7,0.1c15.3-16.7,30.7-33.4,46-50.2
				C292.6,344,293.1,343,293.7,342.1z M243.8,361.5c-2.3,2.4-4.6,4.8-6.9,7.2c-2,2-2.4,2.2-5.1,2.2c-3.9,0-4.8-0.9-4.9-5
				c0-1.1,0-2.2,0-3.3c0.1-1.9,0.1-3.7-2.7-3.6c-0.5,0-1.4-1.1-1.4-1.7c0.1-0.8,0.7-2.2,1.3-2.3c1.9-0.3,2.9-1,2.9-3.1
				c0-1.4,1.6-1.3,2.7-1.3c1.5,0,3.5-0.2,3.7,1.8c0.2,2.2,1.3,2.4,3,2.3c1.5-0.1,3.1,0,4.6,0c1.7,0,3.5-0.1,4.2,1.9
				C245.9,358.5,245.1,360.1,243.8,361.5z M259.4,369.6c-2,0.6-4,1.1-5.3,1.4c-3.9-0.1-4.8-0.9-4.8-4c-0.1-4.5,0-9,0-13.4
				c0-1.5,0-2.8,2.1-2.9c2.8-0.1,4.3,0.5,4.5,2.5c0.2,1.9,0.1,3.9,0.1,5.9c0,1.1,0,2.2,0,3.4c0.1,2.4,0.1,2.4,2.5,2.4
				c1.4,0,2.6,0,2.9,1.6C261.8,368.1,260.9,369.1,259.4,369.6z"/>
			<path class="st1" d="M249.3,240.2c21,3,42,5.7,63.1,8.5c1,0.1,1.9,0.2,2.9,0.2c0.3,0,0.6-0.3,0.9-0.5c-0.2-0.2-0.3-0.5-0.5-0.6
				c-0.8-0.5-1.7-1-2.5-1.5c-14.3-8.3-28.5-16.5-42.8-24.8c-7.5-4.3-15-8.7-22.5-12.9c-3.4-2-3.5-1.9-3.5,1.8c0,4.2,0,8.4,0,12.6
				c0,0,0,0,0,0c0,3.9,0,7.8,0,11.7C244.5,240.4,243.7,239.4,249.3,240.2z M264.9,222.7c3.8-0.7,10.1,2.4,11.8,5.9
				c1,2,0.7,2.8-1.5,5c-0.4,0.4-0.7,1-1.1,1.5c0.5,0.2,1,0.5,1.5,0.6c1.5,0.4,3,0.6,4.4,1.3c0.6,0.3,0.7,1.4,1.1,2.1
				c-0.6,0.2-1.3,0.4-1.7,0.5c-2.9-0.6-5.7-1.1-8.4-1.8c-1-0.3-2-0.9-2.8-1.7c-1.4-1.5-1.2-2.4,0.3-3.8c0.6-0.6,1.3-1,1.9-1.6
				c2-1.8,1.7-3.4-0.9-4.2c-1-0.3-2.2-0.1-3.3-0.4c-0.9-0.2-1.8-0.7-2.4-1.3C263.2,224,263.7,222.9,264.9,222.7z M253.8,221.2
				c0.4-0.2,0.8-0.1,1.6-0.1c2.1,0,4,1,5.1,3.2c1.7,3.7,3.3,7.4,4.9,11.1c0.5,1.3,0,1.8-1.3,1.7c-1.9-0.2-3-1.2-3.8-2.9
				c-1-2.3-2-4.6-3-6.9c-0.5-1.2-1.1-2.2-2.7-2.1c-0.5,0-1.2-0.1-1.5-0.5c-0.6-0.7-1.1-1.5-1.6-2.3C252.2,222,253,221.6,253.8,221.2
				z"/>
			<path class="st1" d="M179.4,247.7c14.1-1.9,28.3-3.8,42.4-5.7c5.1-0.7,10.3-1.3,15.4-2.1c3.2-0.5,3.2-0.6,3.2-3.6
				c0-4.3,0-8.7,0-13c0,0,0,0,0,0c0-4.6,0-9.2,0-13.9c0-2.6-0.2-2.6-2.6-1.4c-0.5,0.3-1,0.6-1.4,0.9c-17.7,10.2-35.4,20.4-53.1,30.6
				c-4.6,2.7-9.2,5.3-13.8,8c-0.4,0.2-0.6,0.7-0.8,1.1c0.4,0.1,0.8,0.2,1.2,0.2C173,248.5,176.2,248.2,179.4,247.7z M227,222
				c3.1-0.5,4.4,0.8,4.1,4c-0.6,5.2-6.1,11.2-11.2,12.3c-2.8,0.6-4.2-0.4-4.3-2.9C215.5,230.2,221.8,222.8,227,222z M207.2,237.7
				c1-2.2,2-4.3,3.1-6.4c0.2-0.5,0.5-1,0.9-1.9c-0.5-0.1-0.8-0.1-1.2-0.2c-0.5-0.1-1-0.2-1.4-0.3c0.2-0.5,0.2-1.3,0.5-1.5
				c1.3-1,2.7-2,4.2-2.7c1-0.5,2.3-0.3,3.5-0.4c-0.2,1.1-0.3,2.4-0.8,3.4c-1.5,3.3-3,6.6-4.7,9.8c-0.5,0.9-1.4,1.6-2.3,2.1
				c-0.4,0.2-1.3-0.1-1.9-0.4C206.9,239.1,207,238.1,207.2,237.7z"/>
			<path class="st1" d="M180.3,339.7c2.8-1.2,2.8-1.2,1.8-4.2c-4.2-12.7-8.5-25.5-12.8-38.2c-3-8.9-6-17.8-9-26.6
				c-0.4-1.2-0.9-2.3-1.4-3.4c-0.1,1.3-0.4,2.6-0.4,4c0,5.7,0,11.5,0,17.2c0,0,0,0,0,0c0,6.3,0,12.6,0,18.9c0,2,0.2,3.9,1.8,5.4
				c0.3,0.2,0.7,0.3,1.1,0.4c0-0.4,0.2-0.8,0-1.1c-1.4-2.4-1.8-5-1.2-7.7c0.4-1.6,1.3-2.9,3-3.2c1.6-0.3,2.7,0.7,3.5,1.9
				c2,3.1,2.6,6.5,1.7,10c-0.5,2.1-2.1,3.6-3.9,4.7c-1.6,1-3.1,0.7-4.8-0.1c-1.4-0.7-1.2,0.7-1.2,1.4c0,8.8,0,17.6,0,26.5
				c0,0.4-0.1,1,0.1,1.2c0.5,0.5,1.2,1.2,1.8,1.3c0.8,0.1,1.6-0.4,2.4-0.8C168.7,344.6,174.5,342.2,180.3,339.7z M163,322.8
				c2.3-1.9,4.6-3.6,7-5.3c1-0.8,1.7-0.6,2.2,0.6c1,2.4,0.9,3.3-1.3,5c-1,0.8-2,1.5-3,2.2c-1.4,1-2.4,2-1.2,3.7
				c0.3,0.4,0.2,1.1,0.2,1.6c-0.1,1.1-1.5,1.7-2.2,0.9c-1.5-1.8-3-3.7-2.9-6.9C162,324.3,162.3,323.3,163,322.8z"/>
			<path class="st1" d="M321.9,312.3c-1.8-1.3-3.4-3-4.9-4.6c-1-1-0.8-3,0.3-4.2c1.2-1.3,1.9,0.2,2.7,0.8c0.9,0.7,1.7,1.5,2.5,2.2
				c1,0.8,2,1.5,2.9,2.2c0.4-1.2,0.8-2.3,1-3.5c0.2-0.9,0.1-1.9,0.1-2.9c0-5.3,0-10.6,0-16c0-6,0-12,0-18.1c0-0.4-0.1-0.8-0.1-1.2
				c-0.3,0.4-0.8,0.7-1,1.2c-0.3,0.6-0.4,1.3-0.7,2c-3.6,10.6-7.1,21.2-10.7,31.8c-3.8,11.3-7.5,22.5-11.3,33.8
				c-0.9,2.6-0.8,2.7,1.6,3.8c4.2,1.9,8.5,3.6,12.7,5.4c1.9,0.8,3.8,1.7,5.8,2.4c1.8,0.7,3.1,0,3.4-1.8c0.2-1.1,0.1-2.2,0.1-3.3
				c0-6.4-0.3-12.9,0.1-19.3C327,318.3,325.8,314.9,321.9,312.3z M322.7,329.4c-1.4,2.2-3.3,2.2-4.6,0c-0.9-1.5-1.7-2.4-3.5-2.9
				c-2.6-0.7-2.8-3.5-3-7c0.6-1.6,1.4-4.1,2.7-6.4c1.1-2,3.1-1.8,4.4,0.1c1.1,1.6,1.3,4.1,4.1,4.2c0.5,0,1.1,1.2,1.4,2
				C325.3,323,324.7,326.3,322.7,329.4z"/>
			<path class="st1" d="M303.6,343.7c-4.1-1.7-3.1-2.2-6.3,1.2c-11.4,12.3-22.7,24.7-34.1,37.1c-2.7,3-5.5,6-8.2,9
				c-0.2,0.2-0.2,0.5-0.3,0.7c0.2,0.1,0.4,0.1,0.7,0.2c0.6-0.3,1.2-0.6,1.8-1c4.2-2.5,8.4-4.9,12.7-7.4
				c17.2-9.9,34.4-19.9,51.6-29.8c0.6-0.3,1-0.8,1.5-1.3c-0.5-0.4-1-0.9-1.6-1.2C315.5,348.7,309.6,346.1,303.6,343.7z M297.6,366.1
				c-1.3,0.9-2.6,1.4-4.2,0.6c-2.3-1.1-4.6-2.1-6.8,0.4c-0.2,0.2-1.2,0.2-1.5-0.1c-0.3-0.2-0.4-1-0.3-1.4c0.4-0.9,1.1-1.7-0.1-2.5
				c-0.2-0.1-0.3-0.8-0.1-1c1.2-1.1,2.5-3,3.7-3c2.4,0,3.5-1.3,4.8-2.7c1-1.1,2-2.4,3.2-3.3c0.9-0.6,2.4-1,3.4-0.8
				c0.6,0.1,0.9,1.7,1.1,2.7c0.2,0.8,0,1.7,0,2.7C301.5,361.2,300.5,364,297.6,366.1z"/>
			<path class="st1" d="M206.9,365.8c-6.7-7.3-13.5-14.6-20.1-22c-1.2-1.4-2.3-1.7-4-0.9c-6.4,2.8-12.8,5.5-19.3,8.3
				c-0.6,0.2-1,0.8-1.5,1.3c0.4,0.4,0.8,0.8,1.2,1.1c5.7,3.3,11.4,6.6,17.1,9.8c1.2,0.7,2.4,1.1,3.6,1.7c-0.7-1-1.5-1.9-2.1-3
				c-0.2-0.3,0-0.9,0-1.4c0.5,0.1,1.1,0,1.5,0.3c0.6,0.4,0.9,1.1,1.4,1.5c1.1,1.1,2.2,2.1,3.4,3.1c0.5,0.4,1.2,0.3,1.9,0.4
				c-0.4-0.4-0.7-0.7-1.1-1.1c-1.3-1.6-2.8-3.1-3.9-4.9c-0.9-1.5,0-2.8,1.8-2.7c0.9,0.1,1.9,0.4,2.8,0.8c3.1,1.5,5.6,3.8,7.5,6.6
				c2.3,3.3,1.8,4.6-2,6c-0.3,0.1-0.5,0.2-0.8,0.2c0.2,0.3,0.4,0.7,0.6,0.9c0.4,0.3,1,0.6,1.4,0.9c9.1,5.2,18.2,10.5,27.3,15.7
				c1.9,1.1,4,2,6,3c-0.5-0.8-1-1.7-1.7-2.5C221.1,381.3,214,373.6,206.9,365.8z M203.7,367.4c-0.9-0.3-2-0.5-2.6-1.1
				c-2.5-2.6-4.9-5.4-7.2-8.1c-0.3-0.3-0.4-1.2-0.1-1.4c0.3-0.3,1-0.4,1.5-0.3c0.5,0.1,1,0.4,1.4,0.8c2.5,2.8,5,5.6,7.5,8.4
				c0.3,0.3,0.4,0.7,0.6,1.2C204.3,367.2,203.9,367.5,203.7,367.4z"/>
			<path class="st1" d="M229.9,391.5c0.1,0.1,0.1,0.2,0.2,0.2c0.1,0,0.1,0.1,0.2,0.1c0-0.1,0-0.1-0.1-0.2
				C230,391.6,230,391.5,229.9,391.5z"/>
			<path class="st1" d="M166.6,308.8c-0.8-0.9-1.5-1.6-2.1-2.3c-0.5,0.6-1.4,1.4-1.3,1.9c0.2,0.9,1,1.7,1.5,2.5
				C165.2,310.2,165.7,309.7,166.6,308.8z"/>
			<path class="st1" d="M190.7,361.8c-0.3,0.1-0.6,0.4-1.1,0.9c1.2,1,2.3,1.8,3.4,2.6c0.1,0.1,0.5-0.4,0.8-0.6
				c-0.8-0.9-1.5-1.8-2.3-2.7C191.4,361.8,191,361.7,190.7,361.8z"/>
			<path class="st1" d="M230.2,392c0,0.1,0.2,0.1,0.3,0.1c-0.1-0.1-0.2-0.2-0.3-0.2C230.2,391.9,230.2,392,230.2,392z"/>
			<path class="st1" d="M258.9,313.8c1-2.1,1.2-4.5,1.9-7c-0.6-2.4-0.9-4.9-2-7.1c-1.3-2.7-4.6-2.7-5.9,0c-2.3,4.6-2.3,9.5-0.1,14.1
				C254.2,316.8,257.5,316.8,258.9,313.8z"/>
			<path class="st1" d="M196.9,279.8c1.9,0,4-2.4,4-4.6c0-1.9-1.6-3.5-3.5-3.4c-2.1,0.1-3.7,1.9-3.7,4.3
				C193.7,278.1,195.1,279.8,196.9,279.8z"/>
			<path class="st1" d="M187.6,273.2c2-0.1,3.3-1.5,3.2-3.6c0-1.9-1.1-3.1-2.7-3.1c-1.8-0.1-3.6,1.9-3.5,3.9
				C184.7,271.9,186,273.2,187.6,273.2z"/>
			<path class="st1" d="M234.2,359.4c-0.6,0.2-0.9,1.5-1,1.7c0,1.1,0,1.6,0,2c0.1,0.4,0.2,0.8,0.3,1.1c0.4-0.2,0.9-0.4,1.2-0.7
				c0.5-0.5,0.9-1,1.3-1.6c0.5-0.7,0.8-1.6,1.2-2.4C236.2,359.5,235.1,359.1,234.2,359.4z"/>
			<path class="st1" d="M222,234.4c2.7-1.8,3.8-4.6,4.8-7.6c-0.2-0.4-0.3-0.9-0.6-1c-0.4-0.2-1.1-0.2-1.5,0c-2.7,1.8-4,4.5-4.7,7.5
				C219.8,234.4,221,235.1,222,234.4z"/>
			<path class="st1" d="M314.8,319.3c-0.1,1,0.1,2.2,1.3,2.2c0.4,0,1.2-1.2,1.2-1.8c0-0.8-0.6-1.6-1.3-3.2
				C315.4,318,314.9,318.6,314.8,319.3z"/>
			<path class="st1" d="M319.6,324.1c0.1,0.4,0.9,0.8,1.4,1.1c0.2-0.6,0.7-1.2,0.6-1.8c0-0.5-0.6-1-1.3-2.1
				C320,322.7,319.5,323.4,319.6,324.1z"/>
			<path class="st1" d="M293.5,360.5c0.7,0.4,1.5,0.9,2.3,1.3c0.1,0,0.6-0.9,1-1.5c-0.4-0.8-0.7-1.4-1-2
				C295,359,294.2,359.7,293.5,360.5z"/>
		</g>
		<path class="st4" d="M468.2,204.8c-8.3,0-15.1,6.6-15.1,14.8c0,8.2,6.8,14.8,15.1,14.8c8.3,0,15.1-6.6,15.1-14.8
			C483.3,211.5,476.5,204.8,468.2,204.8z M468.2,231.2c-6.4,0-11.6-5.2-11.6-11.6c0-6.4,5.2-11.5,11.6-11.5
			c6.4,0,11.5,5.2,11.5,11.5C479.8,226,474.6,231.2,468.2,231.2z"/>
		<path class="st4" d="M470.4,217.1l3.3-2.4l-3.5-5.2c-2.5,0.9-5,1.8-7.5,2.6l-0.1,14.5l8.5,2.8l2.5-3.4l-6.4-2.2l0.1-11.1
			L470.4,217.1z"/>
		<polygon class="st4" points="116,162.3 116,22.7 84.6,5.2 58.3,21.2 20.1,0 0,31.3 17.3,41.3 17.3,166.8 17.3,166.9 17.3,184.6 
			52.1,197.2 66.4,167.3 54.5,162.3 54.5,43.2 66.6,34.8 79,41.9 79,184.7 113.8,197.2 128.1,167.4 		"/>
	</g>
</g>
<g id="Livello_3" class="st2">
	<g class="st3">
		<g>
			<path class="st4" d="M177.2,64.3V50.9l-30.5-10.6l-16.2,27.4l11.8,5.2v56.5l-12.7,13.2l12.7,10.4v85.5l34.3-21.6l0.2-35.8
				l19.4,15.8l39.7-24.3V55.8L201,39.9L177.2,64.3z M199.3,163l-22.5-17.6l0.2-64.8l7.5-9.6l14.9,6V163z"/>
			<path class="st4" d="M311.9,115.5l26.3-18.8L316,40.3c-9,3.3-17.9,6.5-26.9,9.6l-28.7-10l-16.2,27.4l11.7,5.2l-0.6,104.6
				l60.9,31.7l20.2-27.6l-44.1-26.5l0.8-88.6L311.9,115.5z"/>
		</g>
		<path class="st4" d="M112.2,297.3l30.5-15.7l-42.9-78l-40.1,21.4L21,203.2L1.5,233.7l16.6,9.1v150.3l35.1,13.4L68,376.8l-11.7-4.9
			v-49.1l23.7-10.4l17.5,80.9l30.8,13.4l15.3-30l-14.9-7.2L112.2,297.3z M56.2,307.3v-65.1l17.5-8.6l28.6,51.9L56.2,307.3z"/>
		<polygon class="st4" points="384.4,204.8 347.9,208.6 348.6,393.1 379.6,406.7 394.6,377.6 383.5,373.2 		"/>
		<polygon class="st4" points="441.2,204.8 404.7,208.6 405.3,393.1 436.3,406.7 451.3,377.6 440.2,373.2 		"/>
		<g>
			<path class="st0" d="M193.2,337.7c16.4,0,32.7,0,49.1,0c0,0,0,0,0,0c16.5,0,33,0,49.5,0c3.9,0,4-0.1,2-3.5
				c-16.5-28.6-33-57.2-49.5-85.7c-0.3-0.6-0.7-1.2-1.1-1.8c-0.5-0.6-1-1-1.6,0c-0.2,0.4-0.4,0.7-0.6,1.1
				c-16.6,28.8-33.3,57.6-49.9,86.5C189.2,337.6,189.2,337.7,193.2,337.7z M245.1,298.3c1.8-4.8,5.6-7.2,10.7-7.3
				c5-0.2,9.2,2.7,11.1,7.5c2.1,5.4,2.2,10.9,0.2,16.4c-1.9,5-6,7.9-11.2,7.9c-5.1,0-9.4-2.9-11.1-8c-0.8-2.5-1.1-5.1-1.7-8
				C243.7,304,244.1,301,245.1,298.3z M228.7,297.9c-1.6-0.2-3.3,0.5-4.8,0.9c-2.1,0.6-2.8,0.3-3.3-1.7c-0.5-2.1,0.3-3.7,2.3-4.9
				c4.1-2.3,11.2-1.4,14.5,1.9c2.2,2.2,3,4.9,2.3,8.1c-0.8,3.5-3,5.9-5.5,8.2c-1.6,1.4-3,3-4.5,4.6c2.1,0.1,4.2,0.2,6.3,0.2
				c0.4,0,0.8,0,1.3,0c2.4,0.1,2.9,0.7,3,3c0.1,2.5-0.7,3.4-3,3.6c-2.5,0.1-5,0-7.6,0c0,0,0,0,0,0c-2.1,0-4.2,0-6.3,0
				c-2.4-0.1-3.3-0.8-3.9-3c-0.7-2.5,0.1-4.7,2-6.5c2.2-2,4.4-3.9,6.5-6c1.1-1.1,2.2-2.2,3.1-3.4
				C232.6,300.6,231.7,298.2,228.7,297.9z"/>
			<path class="st0" d="M280.1,248.3c-10.5-1.4-21.1-2.8-31.6-4.2c-1.4-0.2-1.8,0.3-1.1,1.5c1.1,2.1,2.4,4.1,3.6,6.2
				c15.2,26.4,30.5,52.8,45.7,79.2c0.5,0.9,1.3,1.7,2,2.6c0.5-1,1.1-1.9,1.4-2.9c6.3-18.7,12.6-37.3,18.9-56
				c1.9-5.7,3.9-11.4,5.7-17.1c0.9-2.7,0.4-3.3-2.2-3.7c-2.4-0.3-4.7-0.6-7.1-0.9C303.6,251.5,291.9,249.9,280.1,248.3z
				 M297.3,282.2c-2.2-0.4-4.2-1.4-6.4-2c-0.5-0.1-1,0-1.5,0c0.2,0.5,0.3,1,0.6,1.4c0.7,1.2,1.5,2.4,2.3,3.5c1,1.3,0.7,2.3-0.4,3.3
				c-1.2,1.1-2.5,1.2-3.8,0.1c-0.5-0.4-0.9-1-1.3-1.6c-2.3-3.3-4.6-6.7-6.9-10c-1.1-1.6-1.7-3.2-0.4-5c1.3-1.7,3.1-1.7,4.9-1.2
				c2,0.6,3.9,1.5,5.9,2.2c1.6,0.6,3.2,1.1,4.8,1.5c1.3,0.3,2.3-0.8,1.7-1.9c-0.9-1.5-2-3.1-3.3-4.2c-1.3-1.1-2.3-2-1.2-3.8
				c0.9-1.6,2.6-2,4.3-0.8c4.3,3,7,7.2,7.5,11.7C304.1,280.2,301.2,282.9,297.3,282.2z"/>
			<path class="st0" d="M160.6,258.5c8,23.7,16,47.4,24,71.1c0.5,1.4,1.3,2.6,1.9,3.9c0.9-1.2,1.9-2.4,2.6-3.7
				c15.5-26.9,31-53.8,46.5-80.7c0.8-1.3,1.6-2.6,2.3-4c0.1-0.3-0.3-0.9-0.4-1.1c-4.7,0.6-9,1.1-13.3,1.7
				c-14.4,1.9-28.8,3.8-43.2,5.8c-6.2,0.8-12.5,1.6-18.7,2.5c-2.6,0.4-2.7,0.7-2,3.3C160.3,257.7,160.4,258.1,160.6,258.5z
				 M185.5,261.2c4.4-3.4,8.8-1.9,10.2,3.4c0.3,1.3,0.7,1.6,2,1.2c1.3-0.4,2.8-0.8,4.1-0.6c3.2,0.5,5,3.1,5,7.7
				c-0.5,4.9-3.3,9.5-8.1,12.6c-4.4,2.9-8.6,1-9.9-4.1c-0.4-1.5-0.7-1.9-2.4-1.8c-5.1,0.6-8.4-3-7.4-8
				C179.8,267.4,182,263.9,185.5,261.2z"/>
			<path class="st0" d="M293.7,342.1c-1-0.2-2.1-0.5-3.1-0.5c-16,0-31.9,0-47.9,0c0,0,0,0,0,0c-16.1,0-32.2,0-48.3,0
				c-1.1,0-2.1,0.3-3.2,0.5c0.6,0.9,1,1.9,1.7,2.6c15.3,16.7,30.7,33.4,46,50.1c3.5,3.8,3.5,3.8,7,0.1c15.3-16.7,30.7-33.4,46-50.2
				C292.6,344,293.1,343,293.7,342.1z M243.8,361.5c-2.3,2.4-4.6,4.8-6.9,7.2c-2,2-2.4,2.2-5.1,2.2c-3.9,0-4.8-0.9-4.9-5
				c0-1.1,0-2.2,0-3.3c0.1-1.9,0.1-3.7-2.7-3.6c-0.5,0-1.4-1.1-1.4-1.7c0.1-0.8,0.7-2.2,1.3-2.3c1.9-0.3,2.9-1,2.9-3.1
				c0-1.4,1.6-1.3,2.7-1.3c1.5,0,3.5-0.2,3.7,1.8c0.2,2.2,1.3,2.4,3,2.3c1.5-0.1,3.1,0,4.6,0c1.7,0,3.5-0.1,4.2,1.9
				C245.9,358.5,245.1,360.1,243.8,361.5z M259.4,369.6c-2,0.6-4,1.1-5.3,1.4c-3.9-0.1-4.8-0.9-4.8-4c-0.1-4.5,0-9,0-13.4
				c0-1.5,0-2.8,2.1-2.9c2.8-0.1,4.3,0.5,4.5,2.5c0.2,1.9,0.1,3.9,0.1,5.9c0,1.1,0,2.2,0,3.4c0.1,2.4,0.1,2.4,2.5,2.4
				c1.4,0,2.6,0,2.9,1.6C261.8,368.1,260.9,369.1,259.4,369.6z"/>
			<path class="st0" d="M249.3,240.2c21,3,42,5.7,63.1,8.5c1,0.1,1.9,0.2,2.9,0.2c0.3,0,0.6-0.3,0.9-0.5c-0.2-0.2-0.3-0.5-0.5-0.6
				c-0.8-0.5-1.7-1-2.5-1.5c-14.3-8.3-28.5-16.5-42.8-24.8c-7.5-4.3-15-8.7-22.5-12.9c-3.4-2-3.5-1.9-3.5,1.8c0,4.2,0,8.4,0,12.6
				c0,0,0,0,0,0c0,3.9,0,7.8,0,11.7C244.5,240.4,243.7,239.4,249.3,240.2z M264.9,222.7c3.8-0.7,10.1,2.4,11.8,5.9
				c1,2,0.7,2.8-1.5,5c-0.4,0.4-0.7,1-1.1,1.5c0.5,0.2,1,0.5,1.5,0.6c1.5,0.4,3,0.6,4.4,1.3c0.6,0.3,0.7,1.4,1.1,2.1
				c-0.6,0.2-1.3,0.4-1.7,0.5c-2.9-0.6-5.7-1.1-8.4-1.8c-1-0.3-2-0.9-2.8-1.7c-1.4-1.5-1.2-2.4,0.3-3.8c0.6-0.6,1.3-1,1.9-1.6
				c2-1.8,1.7-3.4-0.9-4.2c-1-0.3-2.2-0.1-3.3-0.4c-0.9-0.2-1.8-0.7-2.4-1.3C263.2,224,263.7,222.9,264.9,222.7z M253.8,221.2
				c0.4-0.2,0.8-0.1,1.6-0.1c2.1,0,4,1,5.1,3.2c1.7,3.7,3.3,7.4,4.9,11.1c0.5,1.3,0,1.8-1.3,1.7c-1.9-0.2-3-1.2-3.8-2.9
				c-1-2.3-2-4.6-3-6.9c-0.5-1.2-1.1-2.2-2.7-2.1c-0.5,0-1.2-0.1-1.5-0.5c-0.6-0.7-1.1-1.5-1.6-2.3C252.2,222,253,221.6,253.8,221.2
				z"/>
			<path class="st0" d="M179.4,247.7c14.1-1.9,28.3-3.8,42.4-5.7c5.1-0.7,10.3-1.3,15.4-2.1c3.2-0.5,3.2-0.6,3.2-3.6
				c0-4.3,0-8.7,0-13c0,0,0,0,0,0c0-4.6,0-9.2,0-13.9c0-2.6-0.2-2.6-2.6-1.4c-0.5,0.3-1,0.6-1.4,0.9c-17.7,10.2-35.4,20.4-53.1,30.6
				c-4.6,2.7-9.2,5.3-13.8,8c-0.4,0.2-0.6,0.7-0.8,1.1c0.4,0.1,0.8,0.2,1.2,0.2C173,248.5,176.2,248.2,179.4,247.7z M227,222
				c3.1-0.5,4.4,0.8,4.1,4c-0.6,5.2-6.1,11.2-11.2,12.3c-2.8,0.6-4.2-0.4-4.3-2.9C215.5,230.2,221.8,222.8,227,222z M207.2,237.7
				c1-2.2,2-4.3,3.1-6.4c0.2-0.5,0.5-1,0.9-1.9c-0.5-0.1-0.8-0.1-1.2-0.2c-0.5-0.1-1-0.2-1.4-0.3c0.2-0.5,0.2-1.3,0.5-1.5
				c1.3-1,2.7-2,4.2-2.7c1-0.5,2.3-0.3,3.5-0.4c-0.2,1.1-0.3,2.4-0.8,3.4c-1.5,3.3-3,6.6-4.7,9.8c-0.5,0.9-1.4,1.6-2.3,2.1
				c-0.4,0.2-1.3-0.1-1.9-0.4C206.9,239.1,207,238.1,207.2,237.7z"/>
			<path class="st0" d="M180.3,339.7c2.8-1.2,2.8-1.2,1.8-4.2c-4.2-12.7-8.5-25.5-12.8-38.2c-3-8.9-6-17.8-9-26.6
				c-0.4-1.2-0.9-2.3-1.4-3.4c-0.1,1.3-0.4,2.6-0.4,4c0,5.7,0,11.5,0,17.2c0,0,0,0,0,0c0,6.3,0,12.6,0,18.9c0,2,0.2,3.9,1.8,5.4
				c0.3,0.2,0.7,0.3,1.1,0.4c0-0.4,0.2-0.8,0-1.1c-1.4-2.4-1.8-5-1.2-7.7c0.4-1.6,1.3-2.9,3-3.2c1.6-0.3,2.7,0.7,3.5,1.9
				c2,3.1,2.6,6.5,1.7,10c-0.5,2.1-2.1,3.6-3.9,4.7c-1.6,1-3.1,0.7-4.8-0.1c-1.4-0.7-1.2,0.7-1.2,1.4c0,8.8,0,17.6,0,26.5
				c0,0.4-0.1,1,0.1,1.2c0.5,0.5,1.2,1.2,1.8,1.3c0.8,0.1,1.6-0.4,2.4-0.8C168.7,344.6,174.5,342.2,180.3,339.7z M163,322.8
				c2.3-1.9,4.6-3.6,7-5.3c1-0.8,1.7-0.6,2.2,0.6c1,2.4,0.9,3.3-1.3,5c-1,0.8-2,1.5-3,2.2c-1.4,1-2.4,2-1.2,3.7
				c0.3,0.4,0.2,1.1,0.2,1.6c-0.1,1.1-1.5,1.7-2.2,0.9c-1.5-1.8-3-3.7-2.9-6.9C162,324.3,162.3,323.3,163,322.8z"/>
			<path class="st0" d="M321.9,312.3c-1.8-1.3-3.4-3-4.9-4.6c-1-1-0.8-3,0.3-4.2c1.2-1.3,1.9,0.2,2.7,0.8c0.9,0.7,1.7,1.5,2.5,2.2
				c1,0.8,2,1.5,2.9,2.2c0.4-1.2,0.8-2.3,1-3.5c0.2-0.9,0.1-1.9,0.1-2.9c0-5.3,0-10.6,0-16c0-6,0-12,0-18.1c0-0.4-0.1-0.8-0.1-1.2
				c-0.3,0.4-0.8,0.7-1,1.2c-0.3,0.6-0.4,1.3-0.7,2c-3.6,10.6-7.1,21.2-10.7,31.8c-3.8,11.3-7.5,22.5-11.3,33.8
				c-0.9,2.6-0.8,2.7,1.6,3.8c4.2,1.9,8.5,3.6,12.7,5.4c1.9,0.8,3.8,1.7,5.8,2.4c1.8,0.7,3.1,0,3.4-1.8c0.2-1.1,0.1-2.2,0.1-3.3
				c0-6.4-0.3-12.9,0.1-19.3C327,318.3,325.8,314.9,321.9,312.3z M322.7,329.4c-1.4,2.2-3.3,2.2-4.6,0c-0.9-1.5-1.7-2.4-3.5-2.9
				c-2.6-0.7-2.8-3.5-3-7c0.6-1.6,1.4-4.1,2.7-6.4c1.1-2,3.1-1.8,4.4,0.1c1.1,1.6,1.3,4.1,4.1,4.2c0.5,0,1.1,1.2,1.4,2
				C325.3,323,324.7,326.3,322.7,329.4z"/>
			<path class="st0" d="M303.6,343.7c-4.1-1.7-3.1-2.2-6.3,1.2c-11.4,12.3-22.7,24.7-34.1,37.1c-2.7,3-5.5,6-8.2,9
				c-0.2,0.2-0.2,0.5-0.3,0.7c0.2,0.1,0.4,0.1,0.7,0.2c0.6-0.3,1.2-0.6,1.8-1c4.2-2.5,8.4-4.9,12.7-7.4
				c17.2-9.9,34.4-19.9,51.6-29.8c0.6-0.3,1-0.8,1.5-1.3c-0.5-0.4-1-0.9-1.6-1.2C315.5,348.7,309.6,346.1,303.6,343.7z M297.6,366.1
				c-1.3,0.9-2.6,1.4-4.2,0.6c-2.3-1.1-4.6-2.1-6.8,0.4c-0.2,0.2-1.2,0.2-1.5-0.1c-0.3-0.2-0.4-1-0.3-1.4c0.4-0.9,1.1-1.7-0.1-2.5
				c-0.2-0.1-0.3-0.8-0.1-1c1.2-1.1,2.5-3,3.7-3c2.4,0,3.5-1.3,4.8-2.7c1-1.1,2-2.4,3.2-3.3c0.9-0.6,2.4-1,3.4-0.8
				c0.6,0.1,0.9,1.7,1.1,2.7c0.2,0.8,0,1.7,0,2.7C301.5,361.2,300.5,364,297.6,366.1z"/>
			<path class="st0" d="M206.9,365.8c-6.7-7.3-13.5-14.6-20.1-22c-1.2-1.4-2.3-1.7-4-0.9c-6.4,2.8-12.8,5.5-19.3,8.3
				c-0.6,0.2-1,0.8-1.5,1.3c0.4,0.4,0.8,0.8,1.2,1.1c5.7,3.3,11.4,6.6,17.1,9.8c1.2,0.7,2.4,1.1,3.6,1.7c-0.7-1-1.5-1.9-2.1-3
				c-0.2-0.3,0-0.9,0-1.4c0.5,0.1,1.1,0,1.5,0.3c0.6,0.4,0.9,1.1,1.4,1.5c1.1,1.1,2.2,2.1,3.4,3.1c0.5,0.4,1.2,0.3,1.9,0.4
				c-0.4-0.4-0.7-0.7-1.1-1.1c-1.3-1.6-2.8-3.1-3.9-4.9c-0.9-1.5,0-2.8,1.8-2.7c0.9,0.1,1.9,0.4,2.8,0.8c3.1,1.5,5.6,3.8,7.5,6.6
				c2.3,3.3,1.8,4.6-2,6c-0.3,0.1-0.5,0.2-0.8,0.2c0.2,0.3,0.4,0.7,0.6,0.9c0.4,0.3,1,0.6,1.4,0.9c9.1,5.2,18.2,10.5,27.3,15.7
				c1.9,1.1,4,2,6,3c-0.5-0.8-1-1.7-1.7-2.5C221.1,381.3,214,373.6,206.9,365.8z M203.7,367.4c-0.9-0.3-2-0.5-2.6-1.1
				c-2.5-2.6-4.9-5.4-7.2-8.1c-0.3-0.3-0.4-1.2-0.1-1.4c0.3-0.3,1-0.4,1.5-0.3c0.5,0.1,1,0.4,1.4,0.8c2.5,2.8,5,5.6,7.5,8.4
				c0.3,0.3,0.4,0.7,0.6,1.2C204.3,367.2,203.9,367.5,203.7,367.4z"/>
			<path class="st0" d="M229.9,391.5c0.1,0.1,0.1,0.2,0.2,0.2c0.1,0,0.1,0.1,0.2,0.1c0-0.1,0-0.1-0.1-0.2
				C230,391.6,230,391.5,229.9,391.5z"/>
			<path class="st0" d="M166.6,308.8c-0.8-0.9-1.5-1.6-2.1-2.3c-0.5,0.6-1.4,1.4-1.3,1.9c0.2,0.9,1,1.7,1.5,2.5
				C165.2,310.2,165.7,309.7,166.6,308.8z"/>
			<path class="st0" d="M190.7,361.8c-0.3,0.1-0.6,0.4-1.1,0.9c1.2,1,2.3,1.8,3.4,2.6c0.1,0.1,0.5-0.4,0.8-0.6
				c-0.8-0.9-1.5-1.8-2.3-2.7C191.4,361.8,191,361.7,190.7,361.8z"/>
			<path class="st0" d="M230.2,392c0,0.1,0.2,0.1,0.3,0.1c-0.1-0.1-0.2-0.2-0.3-0.2C230.2,391.9,230.2,392,230.2,392z"/>
			<path class="st0" d="M258.9,313.8c1-2.1,1.2-4.5,1.9-7c-0.6-2.4-0.9-4.9-2-7.1c-1.3-2.7-4.6-2.7-5.9,0c-2.3,4.6-2.3,9.5-0.1,14.1
				C254.2,316.8,257.5,316.8,258.9,313.8z"/>
			<path class="st0" d="M196.9,279.8c1.9,0,4-2.4,4-4.6c0-1.9-1.6-3.5-3.5-3.4c-2.1,0.1-3.7,1.9-3.7,4.3
				C193.7,278.1,195.1,279.8,196.9,279.8z"/>
			<path class="st0" d="M187.6,273.2c2-0.1,3.3-1.5,3.2-3.6c0-1.9-1.1-3.1-2.7-3.1c-1.8-0.1-3.6,1.9-3.5,3.9
				C184.7,271.9,186,273.2,187.6,273.2z"/>
			<path class="st0" d="M234.2,359.4c-0.6,0.2-0.9,1.5-1,1.7c0,1.1,0,1.6,0,2c0.1,0.4,0.2,0.8,0.3,1.1c0.4-0.2,0.9-0.4,1.2-0.7
				c0.5-0.5,0.9-1,1.3-1.6c0.5-0.7,0.8-1.6,1.2-2.4C236.2,359.5,235.1,359.1,234.2,359.4z"/>
			<path class="st0" d="M222,234.4c2.7-1.8,3.8-4.6,4.8-7.6c-0.2-0.4-0.3-0.9-0.6-1c-0.4-0.2-1.1-0.2-1.5,0c-2.7,1.8-4,4.5-4.7,7.5
				C219.8,234.4,221,235.1,222,234.4z"/>
			<path class="st0" d="M314.8,319.3c-0.1,1,0.1,2.2,1.3,2.2c0.4,0,1.2-1.2,1.2-1.8c0-0.8-0.6-1.6-1.3-3.2
				C315.4,318,314.9,318.6,314.8,319.3z"/>
			<path class="st0" d="M319.6,324.1c0.1,0.4,0.9,0.8,1.4,1.1c0.2-0.6,0.7-1.2,0.6-1.8c0-0.5-0.6-1-1.3-2.1
				C320,322.7,319.5,323.4,319.6,324.1z"/>
			<path class="st0" d="M293.5,360.5c0.7,0.4,1.5,0.9,2.3,1.3c0.1,0,0.6-0.9,1-1.5c-0.4-0.8-0.7-1.4-1-2
				C295,359,294.2,359.7,293.5,360.5z"/>
		</g>
		<path class="st4" d="M468.2,204.8c-8.3,0-15.1,6.6-15.1,14.8c0,8.2,6.8,14.8,15.1,14.8c8.3,0,15.1-6.6,15.1-14.8
			C483.3,211.5,476.5,204.8,468.2,204.8z M468.2,231.2c-6.4,0-11.6-5.2-11.6-11.6c0-6.4,5.2-11.5,11.6-11.5
			c6.4,0,11.5,5.2,11.5,11.5C479.8,226,474.6,231.2,468.2,231.2z"/>
		<path class="st4" d="M470.4,217.1l3.3-2.4l-3.5-5.2c-2.5,0.9-5,1.8-7.5,2.6l-0.1,14.5l8.5,2.8l2.5-3.4l-6.4-2.2l0.1-11.1
			L470.4,217.1z"/>
		<polygon class="st4" points="116,162.3 116,22.7 84.6,5.2 58.3,21.2 20.1,0 0,31.3 17.3,41.3 17.3,166.8 17.3,166.9 17.3,184.6 
			52.1,197.2 66.4,167.3 54.5,162.3 54.5,43.2 66.6,34.8 79,41.9 79,184.7 113.8,197.2 128.1,167.4 		"/>
	</g>
</g>
<g id="Livello_4" class="st2">
	<g class="st3">
		<g>
			<path class="st1" d="M177.2,64.3V50.9l-30.5-10.6l-16.2,27.4l11.8,5.2v56.5l-12.7,13.2l12.7,10.4v85.5l34.3-21.6l0.2-35.8
				l19.4,15.8l39.7-24.3V55.8L201,39.9L177.2,64.3z M199.3,163l-22.5-17.6l0.2-64.8l7.5-9.6l14.9,6V163z"/>
			<path class="st1" d="M311.9,115.5l26.3-18.8L316,40.3c-9,3.3-17.9,6.5-26.9,9.6l-28.7-10l-16.2,27.4l11.7,5.2l-0.6,104.6
				l60.9,31.7l20.2-27.6l-44.1-24.1l0.8-90.9L311.9,115.5z"/>
		</g>
		<path class="st1" d="M112.2,297.3l30.5-15.7l-42.9-78l-40.1,21.4L21,203.2L1.5,233.7l16.6,9.1v150.3l35.1,13.4L68,376.8l-11.7-4.9
			v-49.1l23.7-10.4l17.5,80.9l30.8,13.4l15.3-30l-14.9-7.2L112.2,297.3z M56.2,307.3v-65.1l17.5-8.6l28.6,51.9L56.2,307.3z"/>
		<polygon class="st1" points="384.4,204.8 347.9,208.6 348.6,393.1 379.6,406.7 394.6,377.6 383.5,373.2 		"/>
		<polygon class="st1" points="441.2,204.8 404.7,208.6 405.3,393.1 436.3,406.7 451.3,377.6 440.2,373.2 		"/>
		<g>
			<path class="st0" d="M193.2,337.7c16.4,0,32.7,0,49.1,0c0,0,0,0,0,0c16.5,0,33,0,49.5,0c3.9,0,4-0.1,2-3.5
				c-16.5-28.6-33-57.2-49.5-85.7c-0.3-0.6-0.7-1.2-1.1-1.8c-0.5-0.6-1-1-1.6,0c-0.2,0.4-0.4,0.7-0.6,1.1
				c-16.6,28.8-33.3,57.6-49.9,86.5C189.2,337.6,189.2,337.7,193.2,337.7z M245.1,298.3c1.8-4.8,5.6-7.2,10.7-7.3
				c5-0.2,9.2,2.7,11.1,7.5c2.1,5.4,2.2,10.9,0.2,16.4c-1.9,5-6,7.9-11.2,7.9c-5.1,0-9.4-2.9-11.1-8c-0.8-2.5-1.1-5.1-1.7-8
				C243.7,304,244.1,301,245.1,298.3z M228.7,297.9c-1.6-0.2-3.3,0.5-4.8,0.9c-2.1,0.6-2.8,0.3-3.3-1.7c-0.5-2.1,0.3-3.7,2.3-4.9
				c4.1-2.3,11.2-1.4,14.5,1.9c2.2,2.2,3,4.9,2.3,8.1c-0.8,3.5-3,5.9-5.5,8.2c-1.6,1.4-3,3-4.5,4.6c2.1,0.1,4.2,0.2,6.3,0.2
				c0.4,0,0.8,0,1.3,0c2.4,0.1,2.9,0.7,3,3c0.1,2.5-0.7,3.4-3,3.6c-2.5,0.1-5,0-7.6,0c0,0,0,0,0,0c-2.1,0-4.2,0-6.3,0
				c-2.4-0.1-3.3-0.8-3.9-3c-0.7-2.5,0.1-4.7,2-6.5c2.2-2,4.4-3.9,6.5-6c1.1-1.1,2.2-2.2,3.1-3.4
				C232.6,300.6,231.7,298.2,228.7,297.9z"/>
			<path class="st0" d="M280.1,248.3c-10.5-1.4-21.1-2.8-31.6-4.2c-1.4-0.2-1.8,0.3-1.1,1.5c1.1,2.1,2.4,4.1,3.6,6.2
				c15.2,26.4,30.5,52.8,45.7,79.2c0.5,0.9,1.3,1.7,2,2.6c0.5-1,1.1-1.9,1.4-2.9c6.3-18.7,12.6-37.3,18.9-56
				c1.9-5.7,3.9-11.4,5.7-17.1c0.9-2.7,0.4-3.3-2.2-3.7c-2.4-0.3-4.7-0.6-7.1-0.9C303.6,251.5,291.9,249.9,280.1,248.3z
				 M297.3,282.2c-2.2-0.4-4.2-1.4-6.4-2c-0.5-0.1-1,0-1.5,0c0.2,0.5,0.3,1,0.6,1.4c0.7,1.2,1.5,2.4,2.3,3.5c1,1.3,0.7,2.3-0.4,3.3
				c-1.2,1.1-2.5,1.2-3.8,0.1c-0.5-0.4-0.9-1-1.3-1.6c-2.3-3.3-4.6-6.7-6.9-10c-1.1-1.6-1.7-3.2-0.4-5c1.3-1.7,3.1-1.7,4.9-1.2
				c2,0.6,3.9,1.5,5.9,2.2c1.6,0.6,3.2,1.1,4.8,1.5c1.3,0.3,2.3-0.8,1.7-1.9c-0.9-1.5-2-3.1-3.3-4.2c-1.3-1.1-2.3-2-1.2-3.8
				c0.9-1.6,2.6-2,4.3-0.8c4.3,3,7,7.2,7.5,11.7C304.1,280.2,301.2,282.9,297.3,282.2z"/>
			<path class="st0" d="M160.6,258.5c8,23.7,16,47.4,24,71.1c0.5,1.4,1.3,2.6,1.9,3.9c0.9-1.2,1.9-2.4,2.6-3.7
				c15.5-26.9,31-53.8,46.5-80.7c0.8-1.3,1.6-2.6,2.3-4c0.1-0.3-0.3-0.9-0.4-1.1c-4.7,0.6-9,1.1-13.3,1.7
				c-14.4,1.9-28.8,3.8-43.2,5.8c-6.2,0.8-12.5,1.6-18.7,2.5c-2.6,0.4-2.7,0.7-2,3.3C160.3,257.7,160.4,258.1,160.6,258.5z
				 M185.5,261.2c4.4-3.4,8.8-1.9,10.2,3.4c0.3,1.3,0.7,1.6,2,1.2c1.3-0.4,2.8-0.8,4.1-0.6c3.2,0.5,5,3.1,5,7.7
				c-0.5,4.9-3.3,9.5-8.1,12.6c-4.4,2.9-8.6,1-9.9-4.1c-0.4-1.5-0.7-1.9-2.4-1.8c-5.1,0.6-8.4-3-7.4-8
				C179.8,267.4,182,263.9,185.5,261.2z"/>
			<path class="st0" d="M293.7,342.1c-1-0.2-2.1-0.5-3.1-0.5c-16,0-31.9,0-47.9,0c0,0,0,0,0,0c-16.1,0-32.2,0-48.3,0
				c-1.1,0-2.1,0.3-3.2,0.5c0.6,0.9,1,1.9,1.7,2.6c15.3,16.7,30.7,33.4,46,50.1c3.5,3.8,3.5,3.8,7,0.1c15.3-16.7,30.7-33.4,46-50.2
				C292.6,344,293.1,343,293.7,342.1z M243.8,361.5c-2.3,2.4-4.6,4.8-6.9,7.2c-2,2-2.4,2.2-5.1,2.2c-3.9,0-4.8-0.9-4.9-5
				c0-1.1,0-2.2,0-3.3c0.1-1.9,0.1-3.7-2.7-3.6c-0.5,0-1.4-1.1-1.4-1.7c0.1-0.8,0.7-2.2,1.3-2.3c1.9-0.3,2.9-1,2.9-3.1
				c0-1.4,1.6-1.3,2.7-1.3c1.5,0,3.5-0.2,3.7,1.8c0.2,2.2,1.3,2.4,3,2.3c1.5-0.1,3.1,0,4.6,0c1.7,0,3.5-0.1,4.2,1.9
				C245.9,358.5,245.1,360.1,243.8,361.5z M259.4,369.6c-2,0.6-4,1.1-5.3,1.4c-3.9-0.1-4.8-0.9-4.8-4c-0.1-4.5,0-9,0-13.4
				c0-1.5,0-2.8,2.1-2.9c2.8-0.1,4.3,0.5,4.5,2.5c0.2,1.9,0.1,3.9,0.1,5.9c0,1.1,0,2.2,0,3.4c0.1,2.4,0.1,2.4,2.5,2.4
				c1.4,0,2.6,0,2.9,1.6C261.8,368.1,260.9,369.1,259.4,369.6z"/>
			<path class="st0" d="M249.3,240.2c21,3,42,5.7,63.1,8.5c1,0.1,1.9,0.2,2.9,0.2c0.3,0,0.6-0.3,0.9-0.5c-0.2-0.2-0.3-0.5-0.5-0.6
				c-0.8-0.5-1.7-1-2.5-1.5c-14.3-8.3-28.5-16.5-42.8-24.8c-7.5-4.3-15-8.7-22.5-12.9c-3.4-2-3.5-1.9-3.5,1.8c0,4.2,0,8.4,0,12.6
				c0,0,0,0,0,0c0,3.9,0,7.8,0,11.7C244.5,240.4,243.7,239.4,249.3,240.2z M264.9,222.7c3.8-0.7,10.1,2.4,11.8,5.9
				c1,2,0.7,2.8-1.5,5c-0.4,0.4-0.7,1-1.1,1.5c0.5,0.2,1,0.5,1.5,0.6c1.5,0.4,3,0.6,4.4,1.3c0.6,0.3,0.7,1.4,1.1,2.1
				c-0.6,0.2-1.3,0.4-1.7,0.5c-2.9-0.6-5.7-1.1-8.4-1.8c-1-0.3-2-0.9-2.8-1.7c-1.4-1.5-1.2-2.4,0.3-3.8c0.6-0.6,1.3-1,1.9-1.6
				c2-1.8,1.7-3.4-0.9-4.2c-1-0.3-2.2-0.1-3.3-0.4c-0.9-0.2-1.8-0.7-2.4-1.3C263.2,224,263.7,222.9,264.9,222.7z M253.8,221.2
				c0.4-0.2,0.8-0.1,1.6-0.1c2.1,0,4,1,5.1,3.2c1.7,3.7,3.3,7.4,4.9,11.1c0.5,1.3,0,1.8-1.3,1.7c-1.9-0.2-3-1.2-3.8-2.9
				c-1-2.3-2-4.6-3-6.9c-0.5-1.2-1.1-2.2-2.7-2.1c-0.5,0-1.2-0.1-1.5-0.5c-0.6-0.7-1.1-1.5-1.6-2.3C252.2,222,253,221.6,253.8,221.2
				z"/>
			<path class="st0" d="M179.4,247.7c14.1-1.9,28.3-3.8,42.4-5.7c5.1-0.7,10.3-1.3,15.4-2.1c3.2-0.5,3.2-0.6,3.2-3.6
				c0-4.3,0-8.7,0-13c0,0,0,0,0,0c0-4.6,0-9.2,0-13.9c0-2.6-0.2-2.6-2.6-1.4c-0.5,0.3-1,0.6-1.4,0.9c-17.7,10.2-35.4,20.4-53.1,30.6
				c-4.6,2.7-9.2,5.3-13.8,8c-0.4,0.2-0.6,0.7-0.8,1.1c0.4,0.1,0.8,0.2,1.2,0.2C173,248.5,176.2,248.2,179.4,247.7z M227,222
				c3.1-0.5,4.4,0.8,4.1,4c-0.6,5.2-6.1,11.2-11.2,12.3c-2.8,0.6-4.2-0.4-4.3-2.9C215.5,230.2,221.8,222.8,227,222z M207.2,237.7
				c1-2.2,2-4.3,3.1-6.4c0.2-0.5,0.5-1,0.9-1.9c-0.5-0.1-0.8-0.1-1.2-0.2c-0.5-0.1-1-0.2-1.4-0.3c0.2-0.5,0.2-1.3,0.5-1.5
				c1.3-1,2.7-2,4.2-2.7c1-0.5,2.3-0.3,3.5-0.4c-0.2,1.1-0.3,2.4-0.8,3.4c-1.5,3.3-3,6.6-4.7,9.8c-0.5,0.9-1.4,1.6-2.3,2.1
				c-0.4,0.2-1.3-0.1-1.9-0.4C206.9,239.1,207,238.1,207.2,237.7z"/>
			<path class="st0" d="M180.3,339.7c2.8-1.2,2.8-1.2,1.8-4.2c-4.2-12.7-8.5-25.5-12.8-38.2c-3-8.9-6-17.8-9-26.6
				c-0.4-1.2-0.9-2.3-1.4-3.4c-0.1,1.3-0.4,2.6-0.4,4c0,5.7,0,11.5,0,17.2c0,0,0,0,0,0c0,6.3,0,12.6,0,18.9c0,2,0.2,3.9,1.8,5.4
				c0.3,0.2,0.7,0.3,1.1,0.4c0-0.4,0.2-0.8,0-1.1c-1.4-2.4-1.8-5-1.2-7.7c0.4-1.6,1.3-2.9,3-3.2c1.6-0.3,2.7,0.7,3.5,1.9
				c2,3.1,2.6,6.5,1.7,10c-0.5,2.1-2.1,3.6-3.9,4.7c-1.6,1-3.1,0.7-4.8-0.1c-1.4-0.7-1.2,0.7-1.2,1.4c0,8.8,0,17.6,0,26.5
				c0,0.4-0.1,1,0.1,1.2c0.5,0.5,1.2,1.2,1.8,1.3c0.8,0.1,1.6-0.4,2.4-0.8C168.7,344.6,174.5,342.2,180.3,339.7z M163,322.8
				c2.3-1.9,4.6-3.6,7-5.3c1-0.8,1.7-0.6,2.2,0.6c1,2.4,0.9,3.3-1.3,5c-1,0.8-2,1.5-3,2.2c-1.4,1-2.4,2-1.2,3.7
				c0.3,0.4,0.2,1.1,0.2,1.6c-0.1,1.1-1.5,1.7-2.2,0.9c-1.5-1.8-3-3.7-2.9-6.9C162,324.3,162.3,323.3,163,322.8z"/>
			<path class="st0" d="M321.9,312.3c-1.8-1.3-3.4-3-4.9-4.6c-1-1-0.8-3,0.3-4.2c1.2-1.3,1.9,0.2,2.7,0.8c0.9,0.7,1.7,1.5,2.5,2.2
				c1,0.8,2,1.5,2.9,2.2c0.4-1.2,0.8-2.3,1-3.5c0.2-0.9,0.1-1.9,0.1-2.9c0-5.3,0-10.6,0-16c0-6,0-12,0-18.1c0-0.4-0.1-0.8-0.1-1.2
				c-0.3,0.4-0.8,0.7-1,1.2c-0.3,0.6-0.4,1.3-0.7,2c-3.6,10.6-7.1,21.2-10.7,31.8c-3.8,11.3-7.5,22.5-11.3,33.8
				c-0.9,2.6-0.8,2.7,1.6,3.8c4.2,1.9,8.5,3.6,12.7,5.4c1.9,0.8,3.8,1.7,5.8,2.4c1.8,0.7,3.1,0,3.4-1.8c0.2-1.1,0.1-2.2,0.1-3.3
				c0-6.4-0.3-12.9,0.1-19.3C327,318.3,325.8,314.9,321.9,312.3z M322.7,329.4c-1.4,2.2-3.3,2.2-4.6,0c-0.9-1.5-1.7-2.4-3.5-2.9
				c-2.6-0.7-2.8-3.5-3-7c0.6-1.6,1.4-4.1,2.7-6.4c1.1-2,3.1-1.8,4.4,0.1c1.1,1.6,1.3,4.1,4.1,4.2c0.5,0,1.1,1.2,1.4,2
				C325.3,323,324.7,326.3,322.7,329.4z"/>
			<path class="st0" d="M303.6,343.7c-4.1-1.7-3.1-2.2-6.3,1.2c-11.4,12.3-22.7,24.7-34.1,37.1c-2.7,3-5.5,6-8.2,9
				c-0.2,0.2-0.2,0.5-0.3,0.7c0.2,0.1,0.4,0.1,0.7,0.2c0.6-0.3,1.2-0.6,1.8-1c4.2-2.5,8.4-4.9,12.7-7.4
				c17.2-9.9,34.4-19.9,51.6-29.8c0.6-0.3,1-0.8,1.5-1.3c-0.5-0.4-1-0.9-1.6-1.2C315.5,348.7,309.6,346.1,303.6,343.7z M297.6,366.1
				c-1.3,0.9-2.6,1.4-4.2,0.6c-2.3-1.1-4.6-2.1-6.8,0.4c-0.2,0.2-1.2,0.2-1.5-0.1c-0.3-0.2-0.4-1-0.3-1.4c0.4-0.9,1.1-1.7-0.1-2.5
				c-0.2-0.1-0.3-0.8-0.1-1c1.2-1.1,2.5-3,3.7-3c2.4,0,3.5-1.3,4.8-2.7c1-1.1,2-2.4,3.2-3.3c0.9-0.6,2.4-1,3.4-0.8
				c0.6,0.1,0.9,1.7,1.1,2.7c0.2,0.8,0,1.7,0,2.7C301.5,361.2,300.5,364,297.6,366.1z"/>
			<path class="st0" d="M206.9,365.8c-6.7-7.3-13.5-14.6-20.1-22c-1.2-1.4-2.3-1.7-4-0.9c-6.4,2.8-12.8,5.5-19.3,8.3
				c-0.6,0.2-1,0.8-1.5,1.3c0.4,0.4,0.8,0.8,1.2,1.1c5.7,3.3,11.4,6.6,17.1,9.8c1.2,0.7,2.4,1.1,3.6,1.7c-0.7-1-1.5-1.9-2.1-3
				c-0.2-0.3,0-0.9,0-1.4c0.5,0.1,1.1,0,1.5,0.3c0.6,0.4,0.9,1.1,1.4,1.5c1.1,1.1,2.2,2.1,3.4,3.1c0.5,0.4,1.2,0.3,1.9,0.4
				c-0.4-0.4-0.7-0.7-1.1-1.1c-1.3-1.6-2.8-3.1-3.9-4.9c-0.9-1.5,0-2.8,1.8-2.7c0.9,0.1,1.9,0.4,2.8,0.8c3.1,1.5,5.6,3.8,7.5,6.6
				c2.3,3.3,1.8,4.6-2,6c-0.3,0.1-0.5,0.2-0.8,0.2c0.2,0.3,0.4,0.7,0.6,0.9c0.4,0.3,1,0.6,1.4,0.9c9.1,5.2,18.2,10.5,27.3,15.7
				c1.9,1.1,4,2,6,3c-0.5-0.8-1-1.7-1.7-2.5C221.1,381.3,214,373.6,206.9,365.8z M203.7,367.4c-0.9-0.3-2-0.5-2.6-1.1
				c-2.5-2.6-4.9-5.4-7.2-8.1c-0.3-0.3-0.4-1.2-0.1-1.4c0.3-0.3,1-0.4,1.5-0.3c0.5,0.1,1,0.4,1.4,0.8c2.5,2.8,5,5.6,7.5,8.4
				c0.3,0.3,0.4,0.7,0.6,1.2C204.3,367.2,203.9,367.5,203.7,367.4z"/>
			<path class="st0" d="M229.9,391.5c0.1,0.1,0.1,0.2,0.2,0.2c0.1,0,0.1,0.1,0.2,0.1c0-0.1,0-0.1-0.1-0.2
				C230,391.6,230,391.5,229.9,391.5z"/>
			<path class="st0" d="M166.6,308.8c-0.8-0.9-1.5-1.6-2.1-2.3c-0.5,0.6-1.4,1.4-1.3,1.9c0.2,0.9,1,1.7,1.5,2.5
				C165.2,310.2,165.7,309.7,166.6,308.8z"/>
			<path class="st0" d="M190.7,361.8c-0.3,0.1-0.6,0.4-1.1,0.9c1.2,1,2.3,1.8,3.4,2.6c0.1,0.1,0.5-0.4,0.8-0.6
				c-0.8-0.9-1.5-1.8-2.3-2.7C191.4,361.8,191,361.7,190.7,361.8z"/>
			<path class="st0" d="M230.2,392c0,0.1,0.2,0.1,0.3,0.1c-0.1-0.1-0.2-0.2-0.3-0.2C230.2,391.9,230.2,392,230.2,392z"/>
			<path class="st0" d="M258.9,313.8c1-2.1,1.2-4.5,1.9-7c-0.6-2.4-0.9-4.9-2-7.1c-1.3-2.7-4.6-2.7-5.9,0c-2.3,4.6-2.3,9.5-0.1,14.1
				C254.2,316.8,257.5,316.8,258.9,313.8z"/>
			<path class="st0" d="M196.9,279.8c1.9,0,4-2.4,4-4.6c0-1.9-1.6-3.5-3.5-3.4c-2.1,0.1-3.7,1.9-3.7,4.3
				C193.7,278.1,195.1,279.8,196.9,279.8z"/>
			<path class="st0" d="M187.6,273.2c2-0.1,3.3-1.5,3.2-3.6c0-1.9-1.1-3.1-2.7-3.1c-1.8-0.1-3.6,1.9-3.5,3.9
				C184.7,271.9,186,273.2,187.6,273.2z"/>
			<path class="st0" d="M234.2,359.4c-0.6,0.2-0.9,1.5-1,1.7c0,1.1,0,1.6,0,2c0.1,0.4,0.2,0.8,0.3,1.1c0.4-0.2,0.9-0.4,1.2-0.7
				c0.5-0.5,0.9-1,1.3-1.6c0.5-0.7,0.8-1.6,1.2-2.4C236.2,359.5,235.1,359.1,234.2,359.4z"/>
			<path class="st0" d="M222,234.4c2.7-1.8,3.8-4.6,4.8-7.6c-0.2-0.4-0.3-0.9-0.6-1c-0.4-0.2-1.1-0.2-1.5,0c-2.7,1.8-4,4.5-4.7,7.5
				C219.8,234.4,221,235.1,222,234.4z"/>
			<path class="st0" d="M314.8,319.3c-0.1,1,0.1,2.2,1.3,2.2c0.4,0,1.2-1.2,1.2-1.8c0-0.8-0.6-1.6-1.3-3.2
				C315.4,318,314.9,318.6,314.8,319.3z"/>
			<path class="st0" d="M319.6,324.1c0.1,0.4,0.9,0.8,1.4,1.1c0.2-0.6,0.7-1.2,0.6-1.8c0-0.5-0.6-1-1.3-2.1
				C320,322.7,319.5,323.4,319.6,324.1z"/>
			<path class="st0" d="M293.5,360.5c0.7,0.4,1.5,0.9,2.3,1.3c0.1,0,0.6-0.9,1-1.5c-0.4-0.8-0.7-1.4-1-2
				C295,359,294.2,359.7,293.5,360.5z"/>
		</g>
		<path class="st1" d="M468.2,204.8c-8.3,0-15.1,6.6-15.1,14.8c0,8.2,6.8,14.8,15.1,14.8c8.3,0,15.1-6.6,15.1-14.8
			C483.3,211.5,476.5,204.8,468.2,204.8z M468.2,231.2c-6.4,0-11.6-5.2-11.6-11.6c0-6.4,5.2-11.5,11.6-11.5
			c6.4,0,11.5,5.2,11.5,11.5C479.8,226,474.6,231.2,468.2,231.2z"/>
		<path class="st1" d="M470.4,217.1l3.3-2.4l-3.5-5.2c-2.5,0.9-5,1.8-7.5,2.6l-0.1,14.5l8.5,2.8l2.5-3.4l-6.4-2.2l0.1-11.1
			L470.4,217.1z"/>
		<polygon class="st1" points="116,162.3 116,22.7 84.6,5.2 58.3,21.2 20.1,0 0,31.3 17.3,41.3 17.3,166.8 17.3,166.9 17.3,184.6 
			52.1,197.2 66.4,167.3 54.5,162.3 54.5,43.2 66.6,34.8 79,41.9 79,184.7 113.8,197.2 128.1,167.4 		"/>
	</g>
</g>
</svg>
