<?xml version="1.0" encoding="utf-8"?>
<!-- Generator: Adobe Illustrator 24.3.0, SVG Export Plug-In . SVG Version: 6.00 Build 0)  -->
<svg version="1.1" id="Livello_1" xmlns="http://www.w3.org/2000/svg" xmlns:xlink="http://www.w3.org/1999/xlink" x="0px" y="0px"
	 viewBox="0 0 500 565.9" style="enable-background:new 0 0 500 565.9;" xml:space="preserve">
<style type="text/css">
	.st0{fill:none;}
	.st1{fill:#FFFFFF;}
	.st2{fill:#C89666;}
</style>
<g>
	<path class="st0" d="M173.8,69.8c-0.5,1.1-1,2.1-1.5,3.2C172.7,71.9,173.2,70.8,173.8,69.8z"/>
	<path class="st0" d="M189.2,51.1c-3.8,3-7.4,6.8-10.5,10.8C181.7,57.9,185.3,54.1,189.2,51.1z"/>
	<path class="st0" d="M154.8,70.5c0.4-0.8,0.8-1.6,1.3-2.7C155.6,68.8,155.2,69.7,154.8,70.5z"/>
	<path class="st0" d="M193.5,48c1-0.6,2-1.2,3-1.7C195.5,46.9,194.5,47.4,193.5,48z"/>
	<path class="st0" d="M174.6,68.2c0.6-1.1,1.2-2.1,1.9-3.2C175.9,66,175.2,67.1,174.6,68.2z"/>
	<path class="st0" d="M181.6,331.5c1.2,4.5,2.9,6.9,6.1,8C184.5,338.4,182.8,336,181.6,331.5c-0.5-1.9-0.8-3.7-0.8-5.4
		C180.8,327.9,181.1,329.7,181.6,331.5z"/>
	<path class="st0" d="M149.2,64.5c0.2-0.6,0.4-1.3,0.5-1.9C149.6,63.2,149.4,63.9,149.2,64.5z"/>
	<path class="st0" d="M155.2,56.7c1-0.7,2.1-1.4,3.1-2C157.2,55.3,156.2,56,155.2,56.7z"/>
	<path class="st0" d="M154.8,70.5c-0.2,0.4-0.4,0.8-0.5,1.1c-0.8,1.5-1.6,3.1-2.4,4.7c0.8-1.6,1.6-3.1,2.4-4.7
		C154.5,71.2,154.6,70.9,154.8,70.5z"/>
	<path class="st0" d="M173.6,50.8c-0.9,0.1-1.8,0.1-2.7,0.1C171.8,50.9,172.7,50.9,173.6,50.8L173.6,50.8z"/>
	<path class="st0" d="M150,61.3c0.2-0.6,0.4-1.1,0.7-1.3C150.4,60.2,150.2,60.7,150,61.3z"/>
	<path class="st0" d="M150.7,60c1-0.8,2-1.5,3-2.2C152.7,58.5,151.7,59.2,150.7,60z"/>
	<path class="st0" d="M190.7,340.2c-1.1-0.1-2.1-0.4-3-0.7C188.6,339.8,189.6,340,190.7,340.2z"/>
	<path class="st0" d="M242.5,336.2c-0.2,0.5-0.5,1-0.9,1.4C242,337.2,242.3,336.7,242.5,336.2z"/>
	<path class="st0" d="M237.9,339.8c-0.7,0.2-1.4,0.3-2.1,0.4C236.5,340.2,237.2,340,237.9,339.8z"/>
	<path class="st0" d="M239.6,339.1c-0.5,0.3-1.1,0.5-1.8,0.7C238.5,339.6,239.1,339.4,239.6,339.1z"/>
	<path class="st0" d="M189.3,272.9c0.5,0.1,0.9,0.1,1.5,0C190.2,272.9,189.7,272.9,189.3,272.9z"/>
	<path class="st0" d="M235.3,295.6c-0.6,0.9-1.3,1.8-2,2.6C234,297.4,234.7,296.5,235.3,295.6z"/>
	<path class="st0" d="M240,287.1c-0.2,0.4-0.3,0.8-0.5,1.2C239.7,288,239.9,287.6,240,287.1z"/>
	<path class="st0" d="M229.3,302.6c-0.9,0.9-1.8,1.8-2.7,2.6C227.6,304.3,228.5,303.5,229.3,302.6z"/>
	<path class="st0" d="M185.5,258.7c0.3-0.6,0.6-1.2,1-1.8C186.2,257.5,185.8,258.1,185.5,258.7z"/>
	<path class="st0" d="M186.6,271.2c0.3,0.4,0.6,0.7,0.9,0.9C187.2,271.9,186.9,271.6,186.6,271.2z"/>
	<path class="st0" d="M193.2,340.4c-0.9,0-1.7-0.1-2.5-0.2C191.5,340.3,192.3,340.4,193.2,340.4z"/>
	<path class="st0" d="M211.9,340.4c1.9,0,3.8,0,5.7,0C215.7,340.4,213.8,340.4,211.9,340.4L211.9,340.4z"/>
	<path class="st0" d="M63.1,184.5c1.2-3.7,2.9-7.1,4.9-10.3C65.9,177.4,64.3,180.8,63.1,184.5z"/>
	<path class="st0" d="M240.4,338.7c0.5-0.3,0.9-0.7,1.2-1.1C241.3,338,240.9,338.4,240.4,338.7z"/>
	<path class="st0" d="M207.2,426.1c0.4-0.1,0.9-0.1,1.3-0.2C208.1,426,207.6,426,207.2,426.1z"/>
	<path class="st0" d="M204.6,427.4c0.2-0.3,0.5-0.5,0.9-0.7C205.1,426.9,204.8,427.1,204.6,427.4z"/>
	<path class="st0" d="M218.8,426.3c0.5,0.1,1,0.3,1.5,0.6C219.8,426.7,219.3,426.5,218.8,426.3z"/>
	<path class="st0" d="M217.1,426c0.6,0.1,1.1,0.2,1.7,0.3C218.2,426.2,217.7,426.1,217.1,426z"/>
	<path class="st0" d="M68,174.2c2-3.2,4.4-6.2,7.2-9C72.4,167.9,70,170.9,68,174.2z"/>
	<path class="st0" d="M192.6,441.9c0.1-0.3,0.3-0.5,0.4-0.8C192.8,441.4,192.7,441.6,192.6,441.9z"/>
	<path class="st0" d="M257.9,443.6c-0.5-1.5-1.2-2.6-2.1-3.4C256.7,441,257.4,442.1,257.9,443.6c0.5,1.5,0.8,2.9,0.8,4.2
		C258.7,446.5,258.5,445.1,257.9,443.6z"/>
	<path class="st0" d="M222.8,465c-0.2-0.6-0.3-1.2-0.5-1.8C222.5,463.8,222.6,464.4,222.8,465z"/>
	<path class="st0" d="M191.3,445.8L191.3,445.8c0.1-0.5,0.2-1,0.4-1.6C191.5,444.8,191.4,445.3,191.3,445.8z"/>
	<path class="st0" d="M233.2,454.9c-0.5,1-0.9,2.1-1.5,3.1C232.3,456.9,232.7,455.9,233.2,454.9z"/>
	<path class="st0" d="M306.3,476.6c-0.1,0.5-0.2,0.9-0.4,1.4C306.1,477.5,306.2,477,306.3,476.6z"/>
	<path class="st0" d="M195.2,439c5.6-0.9,8.6-3,8.6-9.2c0-1,0.3-1.8,0.8-2.4c-0.5,0.6-0.8,1.3-0.8,2.4
		C203.8,436,200.8,438.1,195.2,439c-0.6,0.1-1.3,0.7-1.9,1.5C193.9,439.7,194.6,439.1,195.2,439z"/>
	<path class="st0" d="M254.4,439.2c0.5,0.3,1,0.6,1.4,1C255.3,439.8,254.9,439.5,254.4,439.2z"/>
	<path class="st0" d="M191.9,443.4c0.1-0.3,0.2-0.6,0.4-0.9C192.2,442.7,192,443.1,191.9,443.4z"/>
	<path class="st0" d="M114.9,174.5c-0.2,0-0.4,0-0.5,0C114.6,174.6,114.7,174.6,114.9,174.5z"/>
	<path class="st0" d="M65.5,209.5c0.5,0.5,1,1,1.6,1.5C66.5,210.5,66,210,65.5,209.5z"/>
	<path class="st0" d="M127.5,172.2c-3.5-0.2-7.4,0.9-10.7,1.9c-0.7,0.2-1.3,0.4-1.9,0.4c0.5-0.1,1.2-0.2,1.9-0.4
		C120.1,173.1,124,172,127.5,172.2z"/>
	<path class="st0" d="M65.5,209.5c-0.5-0.5-1-1.1-1.4-1.7C64.5,208.4,65,208.9,65.5,209.5z"/>
	<path class="st0" d="M81.8,159.5c2.9-2,5.7-3.3,8.4-4C87.5,156.2,84.7,157.5,81.8,159.5z"/>
	<path class="st0" d="M91.4,155.3c1.2-0.2,2.3-0.3,3.4-0.2C93.7,155,92.6,155.1,91.4,155.3z"/>
	<path class="st0" d="M63.1,184.5c-0.7,2.2-1.3,4.5-1.8,6.8c-0.3,1.4-0.5,2.8-0.5,4.1c0.1-1.3,0.2-2.7,0.5-4.1
		C61.8,189,62.3,186.7,63.1,184.5z"/>
	<path class="st0" d="M81.8,178.8c0.5-0.5,1.1-0.9,1.7-1.3C82.9,177.8,82.3,178.3,81.8,178.8z"/>
	<path class="st0" d="M79.1,182.3c0.5-1,1.1-1.9,1.9-2.8C80.3,180.4,79.6,181.3,79.1,182.3z"/>
	<path class="st0" d="M60.8,196.7c0,2.1,0.3,4.2,0.9,6C61.1,200.8,60.8,198.8,60.8,196.7z"/>
	<path class="st0" d="M77.9,187.7c0-0.8,0-1.5,0.1-2.2C77.9,186.2,77.9,187,77.9,187.7z"/>
	<path class="st0" d="M81.8,159.5c-0.4,0.3-0.8,0.6-1.2,0.9c-2,1.5-3.8,3.1-5.4,4.8c1.7-1.7,3.5-3.3,5.4-4.8
		C81,160.1,81.4,159.8,81.8,159.5z"/>
	<path class="st0" d="M252.8,438.6c0.6,0.2,1.1,0.4,1.6,0.6C253.9,439,253.3,438.8,252.8,438.6z"/>
	<path class="st0" d="M353.3,85.9c2.8,0.7,5.5,1.4,8.1,2.7C358.8,87.3,356.1,86.6,353.3,85.9z"/>
	<path class="st0" d="M333.8,68.8c-0.3,0.3-0.7,0.7-1,1c0,0-0.1,0.1-0.1,0.1c0,0,0.1,0,0.1-0.1C333.2,69.5,333.5,69.1,333.8,68.8z"
		/>
	<path class="st0" d="M327.2,74.6c0.7-0.7,1.4-1.3,2.2-1.9C328.6,73.3,327.9,73.9,327.2,74.6z"/>
	<path class="st0" d="M359.6,96.3c0.9-0.2,2.3-0.6,3.7-1.1C361.9,95.7,360.5,96.1,359.6,96.3L359.6,96.3z"/>
	<path class="st0" d="M352.6,71.5c-0.5,1.1-1.3,2.3-2.4,3.6C351.4,73.8,352.2,72.6,352.6,71.5z"/>
	<path class="st0" d="M348.3,58.8c0.6,0.6,1.1,1.2,1.5,1.9C349.4,60,348.8,59.4,348.3,58.8z"/>
	<path class="st0" d="M348.3,84.7c1.7,0.5,3.4,0.8,5,1.2C351.7,85.5,350,85.2,348.3,84.7c-1.5-0.3-3-1.2-4.5-1.8
		c0.3-0.4,0.6-0.8,0.9-1.2c-0.3,0.4-0.6,0.8-0.9,1.2C345.3,83.5,346.8,84.4,348.3,84.7z"/>
	<path class="st0" d="M286.7,41.2c0.5,0,1,0,1.6,0C287.7,41.2,287.2,41.2,286.7,41.2z"/>
	<path class="st0" d="M307.3,59c2.5,5.5,4.9,11,7.3,16.5C312.1,70,309.7,64.5,307.3,59z"/>
	<path class="st0" d="M344.5,55.2c1,0.8,2,1.7,2.9,2.6C346.5,56.9,345.6,56.1,344.5,55.2z"/>
	<path class="st0" d="M285.5,41.1c0.4,0,0.8,0,1.3,0C286.2,41.1,285.8,41.1,285.5,41.1z"/>
	<path class="st0" d="M353,70.7c0.7-2.2,0.2-4.2-1.3-7.2c-0.3-0.7-0.7-1.3-1.1-1.9c0.4,0.6,0.8,1.3,1.1,1.9
		C353.1,66.5,353.6,68.5,353,70.7z"/>
	<path class="st0" d="M346.2,79.4c0.3-0.4,0.6-0.7,0.9-1c0.8-0.8,1.6-1.6,2.2-2.3c-0.7,0.7-1.4,1.5-2.2,2.3
		C346.8,78.7,346.5,79,346.2,79.4z"/>
	<path class="st0" d="M368.4,187.7c-3.2,0.1-6.2,1.3-8.6,4.5c-0.5,0.7-0.9,1.3-1.2,2c0.3-0.7,0.7-1.3,1.2-2
		C362.2,189,365.2,187.8,368.4,187.7z"/>
	<path class="st0" d="M317.1,88.5c-0.4,0.2-1,0.3-1.6,0.3C316.2,88.8,316.7,88.7,317.1,88.5z"/>
	<path class="st0" d="M397.4,171.2c-0.8,1.6-1,2.9-0.8,4.1C396.4,174.1,396.6,172.8,397.4,171.2z"/>
	<path class="st0" d="M341.2,52.8c1.2,0.8,2.3,1.6,3.3,2.4C343.5,54.4,342.4,53.6,341.2,52.8z"/>
	<path class="st0" d="M405.1,165.8c-2.9-0.1-5.5,1.4-7.2,4.4c-0.2,0.3-0.4,0.7-0.5,1c0.2-0.3,0.3-0.6,0.5-1
		C399.6,167.2,402.2,165.6,405.1,165.8z"/>
	<path class="st0" d="M358.9,203.5c-0.6-1.2-1-2.4-1.2-3.6C357.9,201.1,358.3,202.3,358.9,203.5z"/>
	<path class="st0" d="M357.6,198c0.1-1.2,0.4-2.5,1-3.8C358,195.5,357.6,196.8,357.6,198z"/>
	<path class="st0" d="M411.3,194c-2.7-4.5-5.9-9.2-9.8-12.5c-2.4-2.1-4.5-3.9-4.9-6.2c0.4,2.4,2.5,4.2,4.9,6.2
		C405.4,184.8,408.6,189.5,411.3,194c1.5,2.8-0.5,5.7-3.7,5.7C410.8,199.7,412.8,196.8,411.3,194z"/>
	<path class="st0" d="M312.5,49.8c0-0.3,0.1-0.6,0.2-0.9C312.6,49.2,312.5,49.5,312.5,49.8z"/>
	<path class="st0" d="M312.7,48.9c0.1-0.3,0.3-0.6,0.4-0.9C313,48.3,312.8,48.6,312.7,48.9z"/>
	<path class="st0" d="M312.5,50.3c0-0.2,0-0.3,0-0.5C312.5,50,312.5,50.1,312.5,50.3z"/>
	<path class="st0" d="M381.5,236.8c-6.8-9.8-13.7-19.9-20.5-29.7c-0.6-0.9-1.2-1.8-1.7-2.7c0.5,0.9,1.1,1.8,1.7,2.7
		C367.8,216.9,374.7,227,381.5,236.8c1.2,1.8,2.4,3.6,3.9,4.8c2,1.7,3.9,2.4,5.8,2.3c-1.9,0.1-3.8-0.7-5.8-2.3
		C383.9,240.4,382.7,238.6,381.5,236.8z"/>
	<path class="st0" d="M393.8,216.9c-0.4-0.1-0.8-0.1-1.1-0.1C393,216.8,393.4,216.8,393.8,216.9c6.5,1.7,12.5,4.7,19,5.9
		c1.1,0.2,2.1,0.3,3.2,0.3c-1,0-2.1-0.1-3.2-0.3C406.3,221.6,400.3,218.6,393.8,216.9z"/>
	<path class="st0" d="M315.5,88.8c-0.2,0-0.4,0-0.6,0C315.1,88.8,315.3,88.8,315.5,88.8z"/>
	<path class="st0" d="M252.9,302.1c-0.4-2.1-0.8-4.2-1.2-6.3l0,0C252.2,298,252.5,300,252.9,302.1z"/>
	<path class="st0" d="M295.7,271.1c-4.6-4.1-11.7-2.8-14.8,3.7c-3.4,6.9-5.1,13.9-5.1,21c0-7,1.7-14.1,5.1-21
		C284,268.3,291,267.1,295.7,271.1z"/>
	<path class="st0" d="M180.9,326c0-0.7,0.1-1.5,0.2-2.2C180.9,324.6,180.9,325.3,180.9,326z"/>
	<path class="st0" d="M184.9,260.4c0.2-0.6,0.4-1.1,0.6-1.7C185.3,259.3,185.1,259.8,184.9,260.4z"/>
	<path class="st0" d="M277.8,309.6c0.7,2.4,1.6,4.8,2.8,7.1c0.3,0.6,0.5,1.1,0.8,1.6c-0.3-0.5-0.6-1-0.8-1.6
		C279.5,314.3,278.6,312,277.8,309.6z"/>
	<path class="st0" d="M282.9,320.2c0.3,0.4,0.7,0.7,1.1,1C283.6,320.9,283.2,320.5,282.9,320.2z"/>
	<path class="st0" d="M301.4,283.1c-0.8-2.9-1.7-5.7-3-8.3c-0.7-1.5-1.7-2.7-2.7-3.6c1.1,0.9,2,2.2,2.7,3.6
		C299.7,277.4,300.6,280.3,301.4,283.1z"/>
	<path class="st0" d="M188.6,272.7c-0.4-0.1-0.8-0.3-1.1-0.6C187.8,272.4,188.2,272.6,188.6,272.7z"/>
	<path class="st0" d="M214.5,271.2c-0.7-0.5-1.5-0.8-2.4-1.1C213,270.3,213.8,270.7,214.5,271.2z"/>
	<path class="st0" d="M182.5,318.9c0-0.1,0.1-0.2,0.1-0.2C182.6,318.8,182.6,318.8,182.5,318.9z"/>
	<path class="st0" d="M216.3,272.7c-0.5-0.6-1.1-1.1-1.8-1.6C215.2,271.6,215.8,272.1,216.3,272.7z"/>
	<path class="st0" d="M218.2,278c0-0.8-0.1-1.6-0.3-2.3C218.1,276.4,218.2,277.2,218.2,278z"/>
	<path class="st0" d="M181.2,323c0.2-0.8,0.4-1.7,0.7-2.5C181.6,321.4,181.3,322.2,181.2,323z"/>
	<path class="st0" d="M327.1,301.5c-0.2,2-0.4,4.1-0.8,6.1C326.7,305.6,327,303.6,327.1,301.5z"/>
	<path class="st0" d="M326.6,286.3c0.3,2,0.5,4.1,0.6,6.1C327.1,290.4,326.9,288.3,326.6,286.3z"/>
	<path class="st0" d="M326.4,307.7c-0.4,2-0.8,4.1-1.3,6.1C325.6,311.7,326,309.7,326.4,307.7z"/>
	<path class="st0" d="M289.8,343.4c3.9,0,7.5-0.5,11-1.6C297.3,342.9,293.7,343.4,289.8,343.4L289.8,343.4z"/>
	<path class="st0" d="M317.1,88.5c1.6-0.6,2-2.1,1-4.8c-1.2-2.8-2.4-5.5-3.6-8.2c1.2,2.8,2.4,5.5,3.6,8.2
		C319.1,86.4,318.7,87.9,317.1,88.5z"/>
	<path class="st0" d="M286,53.5L286,53.5c0.3,0,0.6,0,0.8,0C286.6,53.5,286.3,53.5,286,53.5z"/>
	<path class="st0" d="M276,300.8c-0.2-1.7-0.3-3.3-0.3-5C275.8,297.5,275.8,299.1,276,300.8z"/>
	<path class="st0" d="M287,323c-0.6-0.2-1.2-0.5-1.7-0.8C285.9,322.5,286.4,322.8,287,323z"/>
	<path class="st0" d="M277.5,308.2c-0.4-1.3-0.7-2.7-0.9-4C276.8,305.5,277.1,306.9,277.5,308.2z"/>
	<path class="st0" d="M302.3,287.2c0.1,0.4,0.2,0.8,0.3,1.2C302.5,288,302.4,287.6,302.3,287.2z"/>
	<path class="st0" d="M269.5,337.2c-1.1-0.8-2.1-1.6-3.1-2.5C267.4,335.6,268.4,336.4,269.5,337.2z"/>
	<path class="st0" d="M300.8,341.8c10.2-3.1,18.1-10.7,22.3-21.9c0.4-1,0.7-2,1-3.1c-0.3,1-0.7,2-1,3.1
		C318.9,331.1,311,338.7,300.8,341.8z"/>
	<path class="st0" d="M194.7,272.1c-1.5,0.5-2.8,0.7-3.9,0.8C191.9,272.8,193.2,272.6,194.7,272.1c4.5-1.2,9.5-3.3,14.3-2.7
		c0.6,0.1,1.1,0.1,1.6,0.2c-0.5-0.1-1-0.2-1.6-0.2C204.2,268.8,199.2,270.9,194.7,272.1z"/>
	<path class="st0" d="M271.7,482.5c-0.5-0.9-0.9-2-1.1-3.2C270.8,480.6,271.1,481.6,271.7,482.5z"/>
	<path class="st0" d="M270.5,479.3c-0.2-0.9-0.2-1.8-0.3-2.8C270.3,477.5,270.4,478.4,270.5,479.3z"/>
	<path class="st0" d="M305.9,477.9c-0.1,0.3-0.3,0.6-0.4,0.9C305.6,478.5,305.8,478.2,305.9,477.9z"/>
	<path class="st0" d="M290.1,451.3c0-0.7,0-1.5,0-2.2C290.1,449.8,290.1,450.6,290.1,451.3L290.1,451.3z"/>
	<path class="st0" d="M270.1,464.8c0,3.3,0.1,6.7,0.1,10c0,0.6,0,1.1,0,1.6c0-0.5,0-1.1,0-1.6C270.1,471.5,270.1,468.1,270.1,464.8z
		"/>
	<path class="st0" d="M290.2,442.4c0,1.5,0,2.9,0,4.4C290.2,445.4,290.2,443.9,290.2,442.4z"/>
	<path class="st0" d="M298,483.2c-2.9,0.9-5.8,1.6-8.4,2.3C292.1,484.8,295,484,298,483.2z"/>
	<path class="st1" d="M469.8,357.2c-0.4-0.3-0.9-0.6-1.3-0.9C468.9,356.5,469.3,356.8,469.8,357.2z"/>
	<path class="st1" d="M474.6,363.1c-0.3-0.6-0.7-1.1-1-1.6C473.9,362,474.3,362.5,474.6,363.1z"/>
	<path class="st1" d="M480.5,341.8c-0.8,2.4-1.6,4-1.4,5.5c0.1,0.3,0.3,0.6,0.6,0.9c-0.3-0.3-0.5-0.6-0.6-0.9
		C478.9,345.7,479.7,344.2,480.5,341.8z"/>
	<path class="st1" d="M483.3,350.6L483.3,350.6c-0.1-0.1-0.2-0.1-0.4-0.2C483.1,350.5,483.2,350.5,483.3,350.6z"/>
	<path class="st1" d="M492,331.5c0.2,0.3,0.3,0.7,0.4,1C492.3,332.2,492.1,331.8,492,331.5z"/>
	<path class="st1" d="M491.5,330.5c0.2,0.3,0.3,0.7,0.5,1C491.8,331.2,491.6,330.8,491.5,330.5z"/>
	<path class="st1" d="M472.3,334.5c0,0.2-0.1,0.5-0.2,0.8C472.2,335,472.2,334.8,472.3,334.5z"/>
	<path class="st1" d="M463.3,314.7c0.3-0.6,0.7-1.1,1-1.5C464,313.6,463.6,314.1,463.3,314.7z"/>
	<path class="st1" d="M496.2,301.4c-2.7-2-5.6-4.1-8.6-6.5c-2.3-2-4.7-4.4-7.4-6.5c-2.4-1.8-4.4-6.3-8-2.4
		c-3.3,3.6-3.9,9.5-0.9,12.5c4.5,4.8,9.3,9.8,14.6,13.7c7.6,5.1,11.7,11.2,13.2,18.7l0.3-40.9c0,0.3-0.1,0.7-0.2,1
		C498.6,294.6,497.4,297.8,496.2,301.4z"/>
	<path class="st1" d="M482.4,350.1c-0.3-0.1-0.5-0.3-0.8-0.5C481.9,349.8,482.2,349.9,482.4,350.1z"/>
	<path class="st1" d="M480.6,348.9c-0.3-0.2-0.6-0.5-0.9-0.7C480,348.5,480.3,348.7,480.6,348.9z"/>
	<path class="st1" d="M472.3,334.2c0,0.1,0,0.2,0,0.3C472.3,334.4,472.3,334.3,472.3,334.2c0-2.1-1.4-4.2-3.1-7.8
		C470.9,330,472.3,332.1,472.3,334.2z"/>
	<path class="st1" d="M494.4,343.1c0-1.3-0.1-2.5-0.3-3.8C494.2,340.6,494.3,341.8,494.4,343.1z"/>
	<path class="st1" d="M480.5,341.8c0.3-0.8,0.5-1.7,0.8-2.7C481,340.1,480.7,341,480.5,341.8z"/>
	<path class="st1" d="M494.1,339.3c-0.3-1.9-0.7-3.9-1.3-5.9c-0.1-0.3-0.2-0.6-0.4-0.9c0.1,0.3,0.3,0.6,0.4,0.9
		C493.4,335.4,493.8,337.3,494.1,339.3z"/>
	<path class="st1" d="M470.4,357.7c0.6,0.5,1.2,1.1,1.7,1.7C471.5,358.8,471,358.2,470.4,357.7z"/>
	<path class="st1" d="M498.6,383.2l0.3-35.8C498.3,359.4,498.5,371.3,498.6,383.2z"/>
	<path class="st1" d="M375.9,474.1c0.1,0.3,0.3,0.6,0.6,0.7c0.5,0.4,1.4,0.7,2.4,0.7c-0.9,0-1.9-0.3-2.4-0.7
		C376.3,474.6,376.1,474.4,375.9,474.1z"/>
	<path class="st1" d="M375.1,463c-0.3-0.3-0.4-1-0.4-1.7C374.7,462,374.8,462.7,375.1,463z"/>
	<path class="st1" d="M423.2,439.1c0.2,0.6,0.2,1.2,0.3,1.9C423.4,440.3,423.4,439.7,423.2,439.1z"/>
	<path class="st1" d="M418.9,467.2c-0.7,0.8-1.4,1.7-2.3,2.4C417.5,468.9,418.3,468.1,418.9,467.2z"/>
	<path class="st1" d="M409.7,457.5c-0.1,0.2-0.3,0.5-0.4,0.7C409.4,457.9,409.5,457.7,409.7,457.5z"/>
	<path class="st1" d="M381,475.1c-0.3,0.3-1.2,0.5-2.1,0.4C379.8,475.6,380.7,475.4,381,475.1c1.8-2.1,3.7-3.3,5.6-4
		C384.7,471.8,382.8,473,381,475.1z"/>
	<path class="st1" d="M410.4,456.4c-0.2,0.4-0.5,0.8-0.7,1.1C409.9,457.1,410.1,456.7,410.4,456.4z"/>
	<path class="st1" d="M410.8,455.6c-0.2,0.2-0.3,0.5-0.5,0.8C410.5,456.1,410.7,455.9,410.8,455.6z"/>
	<path class="st1" d="M387.8,470.7c-0.4,0.1-0.8,0.2-1.3,0.4C387,470.9,387.4,470.8,387.8,470.7z"/>
	<path class="st1" d="M375.6,470.7c-0.2,0.9-0.1,2.4,0.4,3.4C375.5,473.1,375.4,471.6,375.6,470.7z"/>
	<path class="st1" d="M408.7,459c-0.1,0.1-0.2,0.3-0.3,0.3C408.5,459.2,408.6,459.1,408.7,459z"/>
	<path class="st1" d="M409.3,458.2c-0.2,0.3-0.4,0.6-0.5,0.8C408.9,458.7,409.1,458.5,409.3,458.2z"/>
	<path class="st1" d="M401.2,473.9c-3.2-1.5-6.4-3-9.6-3.4C394.8,470.9,398,472.4,401.2,473.9c4.8,2.4,8.6,0.9,12.5-1.8
		c1.1-0.8,2.1-1.6,3-2.4c-0.9,0.8-1.9,1.7-3,2.4C409.8,474.8,406,476.3,401.2,473.9z"/>
	<path class="st1" d="M387.8,470.7c1.3-0.3,2.5-0.3,3.8-0.2C390.4,470.4,389.1,470.4,387.8,470.7z"/>
	<path class="st1" d="M423.8,452.7C423.8,452.7,423.8,452.8,423.8,452.7C423.8,452.8,423.8,452.7,423.8,452.7z"/>
	<path class="st1" d="M423.7,456.1c-0.1,0.8-0.2,1.5-0.4,2.2C423.5,457.6,423.6,456.9,423.7,456.1z"/>
	<path class="st1" d="M421.4,463.4c-0.6,1.1-1.3,2.2-2.1,3.2C420.2,465.6,420.9,464.6,421.4,463.4z"/>
	<path class="st1" d="M423.2,447.1c0-1.8,0.2-3.5,0.3-5.2C423.4,443.6,423.2,445.3,423.2,447.1L423.2,447.1z"/>
	<path class="st1" d="M105.3,448.2c0.1,0.2,0.2,0.3,0.3,0.4c3.4,4,6.9,8.1,10.5,12.2c-3.6-4-7.1-8.1-10.5-12.2
		C105.5,448.5,105.4,448.3,105.3,448.2z"/>
	<path class="st1" d="M116.1,460.8c3.6,4,7.2,8,10.9,11.9C123.3,468.8,119.7,464.8,116.1,460.8z"/>
	<path class="st1" d="M105,447.6c-0.1-0.4-0.2-0.8-0.3-1.3C104.8,446.8,104.9,447.3,105,447.6z"/>
	<path class="st1" d="M115,468c-5.7-8.3-13.1-15.1-22.3-19.6c-2.7-1.2-5.6-2.1-8.3-2.4c-5.3-0.3-8,3.5-5.3,8
		c3.3,5.4,7.7,9.8,11.6,14.6c1.2,1.2,2.1,2.1,3.3,3.3c-2-0.3-4.1,0-5.6-1.2c-3.6-3-6.8-5.9-10.1-9.2c-1.5-1.2-2.4-3.3-4.2-4.5
		c-1.2-0.9-3-0.6-4.5-0.9c0,1.5-0.6,3.3,0,4.2c1.7,3.3,4.1,5.9,6.2,8.9c0,0,21.2,17.8,30.9,17.2c0.9,0,1.5-0.3,2.4-0.6
		C120.3,481.7,121.8,477.8,115,468z M102.8,469.7c-3.3-2.4-6.5-4.7-10.1-7.7c1.5-1.5,2.4-2.4,3.3-2.7s2.1,0,2.4,0.6
		c2.3,2.7,4.4,5.3,6.8,8C104.3,468.5,103.1,470,102.8,469.7z"/>
	<path class="st1" d="M24.6,361.9c0.6,0.8,0.7,1.9,0.6,2.9C25.3,363.8,25.2,362.6,24.6,361.9c-1.1-1.6-1.6-3-1.6-4.2
		C23,358.9,23.5,360.3,24.6,361.9z"/>
	<path class="st1" d="M42.8,336c0-1.8-0.7-3.8-1.8-6.5c-0.2-0.5-0.4-0.9-0.6-1.2c0.2,0.4,0.4,0.8,0.6,1.2
		C42.1,332.2,42.8,334.2,42.8,336z"/>
	<path class="st1" d="M3.8,328.3c5.1,2.4,9.5,3.3,14.3,0.3c5.4-3.3,10.1-7.8,11.6-14c2.6-10.4,0.8-20.5-5.1-29.7
		c-2.4-3.5-5.6-6.5-10.4-5.6c-5,0.9-7.7,4.7-8.9,9.5c-1.7,8-0.6,15.8,3.6,22.9c0.6,0.9,0,2.1,0,3.3c-1.2-0.3-2.4-0.6-3.3-1.2
		c-4.7-4.4-5.3-10.1-5.3-16c0-1.5,0-3,0-4.6L0,294.6l0.1,39.7c0,0,0,0.2,0.1,0.7c0-0.8,0-1.6,0-2.4C0.2,330.4-0.4,326.2,3.8,328.3z
		 M18.2,295c1.7,2,3.8,4.1,6.2,6.8c-2.6,2.7-4.1,4.2-5.6,6.2c-1.5-2.3-3.9-4.7-4.5-7.4C14,299.2,16.7,296.8,18.2,295z"/>
	<path class="st1" d="M13.7,343.4c6.8-5.6,13.7-10.7,20.8-15.7c1.7-1.4,3.1-1.8,4.2-1.2c-1.2-0.5-2.6-0.1-4.2,1.2
		C27.4,332.7,20.5,337.8,13.7,343.4c-2.1,1.5-2.9,4.5-3.6,5.5c0,0.6,0,1.2,0,1.7c0-0.6,0-1.1,0-1.7
		C10.8,347.9,11.6,344.9,13.7,343.4z"/>
	<path class="st1" d="M40.1,327.8c-0.3-0.5-0.7-0.8-1-1.1C39.5,327,39.8,327.3,40.1,327.8z"/>
	<path class="st1" d="M134.7,476c0.2,0.1,0.3,0.1,0.6,0s0.5-0.2,0.8-0.3c0.1-0.1,0.3-0.2,0.5-0.3c0.5-0.3,1-0.6,1.6-0.9
		c-0.1-0.4-0.3-0.7-0.4-1.1c-0.4-1-0.7-1.9-1.4-2.5c-7.4-8.4-14.9-16.7-22.3-25c-0.3-0.3-0.6-0.6-1-0.8c-0.7-0.5-1.4-0.9-2.1-1.2
		c-0.4-0.1-0.7-0.3-1.1-0.3c-1.5-0.3-3.6,0-4.5,0.9c-0.4,0.3-0.6,1.1-0.5,2c0,0.4,0.1,0.9,0.3,1.3c0.1,0.2,0.2,0.4,0.2,0.5
		c0.1,0.2,0.2,0.3,0.3,0.4c3.4,4,6.9,8.1,10.5,12.2s7.2,8,10.9,11.9C128.8,474.5,132,475.1,134.7,476z"/>
	<path class="st1" d="M423.2,447.1L423.2,447.1c0-1.8,0.2-3.5,0.3-5.2c0-0.3,0-0.6,0-1c0-0.6-0.1-1.3-0.3-1.9
		c-0.1-0.4-0.2-0.8-0.2-1.2c-0.1-0.6-0.3-1.3-0.4-1.9c-0.1-0.4-0.2-0.9-0.3-1.3c-0.2-0.6-0.4-1.2-0.6-1.7c-0.2-0.3-0.3-0.7-0.5-0.9
		c-0.2-0.3-0.4-0.5-0.6-0.7c-0.2-0.2-0.4-0.3-0.6-0.3c-1.9-0.4-4.3,0-6.5,0.7c-1.3,0.4-2.6,1-3.6,1.7c-3.6,2.7-6.5,6.5-9.5,9.8
		c-0.5,0.5-1,1-1.4,1.5c-0.2,0.2-0.5,0.5-0.7,0.7c-1,1-1.9,1.9-3,2.7c-0.3,0.2-0.5,0.4-0.8,0.6c-2.2,1.5-4.8,2.5-8.3,2.5
		c-1.4,0-2.7,0.8-4.1,1.9c-0.5,0.4-0.9,0.8-1.4,1.3c-0.7,0.7-1.4,1.4-2.1,2.2c-0.5,0.5-0.9,1-1.4,1.5c-0.7,0.7-1.4,1.4-2,2
		c-0.2,0.2-0.3,0.7-0.3,1.1c0,0.6,0.2,1.3,0.4,1.7c0.1,0.1,0.1,0.2,0.2,0.2c2.2,1.4,2.3,2.9,1.7,4.5c-0.2,0.5-0.4,0.9-0.7,1.4
		c-0.2,0.3-0.3,0.7-0.5,1c-0.1,0.2-0.2,0.3-0.2,0.5c0,0,0,0.1,0,0.1c-0.2,0.9-0.1,2.4,0.4,3.4c0.1,0.3,0.3,0.6,0.6,0.7
		c0.5,0.5,1.4,0.7,2.4,0.7c0.9,0,1.8-0.1,2.1-0.4c1.8-2.1,3.7-3.3,5.6-4c0.4-0.1,0.8-0.3,1.3-0.4c1.3-0.3,2.5-0.3,3.8-0.2
		c3.2,0.4,6.4,1.8,9.6,3.4c4.8,2.4,8.6,0.9,12.5-1.8c1.1-0.8,2.1-1.6,3-2.4c0,0,0,0,0,0c0.8-0.8,1.6-1.6,2.3-2.4
		c0.1-0.2,0.3-0.4,0.4-0.5c0.8-1,1.5-2.1,2.1-3.2c0.4-0.7,0.7-1.5,1-2.3c0.3-0.9,0.6-1.9,0.8-2.8c0.2-0.7,0.3-1.5,0.4-2.2
		c0.1-1.1,0.2-2.2,0.2-3.3c0,0,0,0,0,0C423.8,450.9,423.6,449.1,423.2,447.1L423.2,447.1z M410.8,455.6c-0.2,0.2-0.3,0.5-0.5,0.8
		c-0.2,0.4-0.5,0.8-0.7,1.1c-0.1,0.2-0.3,0.5-0.4,0.7c-0.2,0.3-0.4,0.6-0.5,0.8c-0.1,0.1-0.2,0.3-0.3,0.3c-0.1,0.1-0.1,0.1-0.2,0.1
		c-2.3-1.2-4.7-2.7-6.8-3.9c2.1-2.4,4.5-4.5,6.8-6.5c0.9,1.7,1.8,3.5,3,5.9C411.2,455.1,411,455.4,410.8,455.6z"/>
	<path class="st1" d="M25.2,366.7c0-0.6,0-1.2,0-1.9c0-1.1-0.1-2.2-0.6-2.9c-1.1-1.6-1.6-3-1.6-4.2c0-2.7,2.3-4.7,5.2-6.8
		c3-2,5.9-4.1,8.9-6.5c4.1-3.2,5.8-5.4,5.7-8.4c0-1.8-0.7-3.8-1.8-6.5c-0.2-0.5-0.4-0.9-0.6-1.2c-0.1-0.2-0.2-0.3-0.3-0.5
		c-0.3-0.5-0.7-0.8-1-1.1c-0.1-0.1-0.2-0.2-0.4-0.2c-1.2-0.5-2.6-0.1-4.2,1.2c-7.1,5-14,10.1-20.8,15.7c-2.1,1.5-2.9,4.5-3.6,5.5
		c0,0.6,0,1.2,0,1.7c0.3,8.5,4.4,13.8,8.6,18.8C20.7,371.8,24.9,370,25.2,366.7z"/>
	<path class="st1" d="M492.8,333.4c-0.1-0.3-0.2-0.6-0.4-0.9c-0.1-0.3-0.3-0.6-0.4-1c-0.2-0.3-0.3-0.7-0.5-1c-0.9-1.6-1.9-3-2.9-3
		c-0.5,0-1-0.1-1.5-0.1c-1.8-0.3-3.2-1-4.4-1.9c-0.3-0.2-0.5-0.5-0.8-0.8c-0.7-0.8-1.4-1.7-1.9-2.7c-1.3-2.3-2.2-4.9-3.7-7
		c-1.7-2.5-3.8-3.9-5.9-4.4c-1.2-0.2-2.4-0.1-3.5,0.4c-0.3,0.1-0.6,0.3-0.8,0.4c-0.7,0.4-1.3,1-1.9,1.7c-0.4,0.5-0.7,0.9-1,1.5
		c-3.8,6.8-6.2,14.2-8,19c0.6,10.4,1.2,18.7,8.9,20.8c1.7,0.5,3,1,4.2,1.8c0.5,0.3,0.9,0.6,1.3,0.9c0.2,0.2,0.4,0.3,0.6,0.5
		c0.6,0.5,1.2,1.1,1.7,1.7c0.5,0.6,1,1.3,1.5,2.1c0.3,0.5,0.7,1,1,1.6c3.9,6.5,9.5,6.5,13.7,0c0.7-1.2,1.4-2.3,2-3.5
		c0.9-1.8,1.7-3.6,2.3-5.4c0.4-1.2,0.7-2.4,1-3.6c0.5-2.4,0.8-4.9,0.7-7.5c0-1.3-0.1-2.5-0.3-3.8
		C493.8,337.3,493.4,335.4,492.8,333.4z M472.3,334.5c0,0.2-0.1,0.5-0.2,0.8c-0.6,1.8-2.4,4.2-3.4,4.2c-0.2,0-0.4,0-0.6,0
		c-0.8-0.1-1.4-0.4-1.9-0.9c-0.6-0.6-1-1.3-1.2-2.2c-0.2-0.9-0.3-1.9-0.2-2.8c0-0.2,0-0.4,0-0.6c0-0.1,0-0.2,0.1-0.4
		c0.1-0.2,0.1-0.5,0.2-0.7c0.6-1.6,1.8-3.5,3.3-7.2c0.3,0.6,0.5,1.1,0.8,1.7c1.8,3.6,3.1,5.7,3.1,7.8
		C472.3,334.3,472.3,334.4,472.3,334.5z M483.9,349.3c-0.2,0.4-0.4,0.9-0.6,1.3h0l0,0c-0.1-0.1-0.2-0.1-0.4-0.2
		c-0.2-0.1-0.3-0.2-0.5-0.3c-0.3-0.1-0.5-0.3-0.8-0.5c-0.4-0.2-0.7-0.5-1.1-0.7c-0.3-0.2-0.6-0.5-0.9-0.7c0,0,0,0-0.1,0
		c-0.3-0.3-0.5-0.6-0.6-0.9c-0.2-1.6,0.6-3.1,1.4-5.5c0.3-0.8,0.5-1.7,0.8-2.7c1,1.6,2,2.8,2.7,3.7c0.7,1,1.2,1.7,1.2,2.5
		C485.3,346.6,484.5,347.9,483.9,349.3z"/>
	<path class="st1" d="M170,83.8c0.3,7.4,4.5,10.4,12.8,8.6c3.8-0.8,7.7-2.6,11.4-4.9c0.9-0.6,1.8-1.2,2.7-1.9c1.3-1,2.7-2.1,3.9-3.2
		c0.8-0.8,1.7-1.6,2.5-2.4c1.2-1.2,2.3-2.5,3.4-3.9c0.7-0.9,1.4-1.8,2.1-2.7c0.3-0.5,0.6-0.9,1-1.4c1.2-1.9,2.3-3.8,3.3-5.8
		c1.6-3.4,2.7-6.9,3.1-10.3c0.2-2.4,0.2-4.4-0.2-6.1c-0.5-2.1-1.4-3.7-2.9-4.7c-0.6-0.4-1.2-0.7-2-1c-0.4-0.1-0.8-0.2-1.2-0.3
		c-0.8-0.2-1.7-0.2-2.7-0.2s-2.1,0.1-3.2,0.3c-2.4,0.4-4.9,1.2-7.4,2.5c-1,0.5-2,1-3,1.7c-1.5,0.9-3,1.9-4.4,3.1
		c-3.8,3-7.4,6.8-10.5,10.8c-0.8,1-1.5,2-2.2,3.1c-0.7,1-1.3,2.1-1.9,3.2c-0.3,0.5-0.6,1.1-0.8,1.6c-0.5,1.1-1,2.1-1.5,3.2
		C170.8,76.7,169.9,80.4,170,83.8z M183.1,77.5c2.1-8.9,6-17,14-22.3c1.2-0.6,3.3-0.6,4.5,0c0.9,0.3,1.2,1.8,1.8,3
		c-3,8.9-6.3,17.3-14.3,22.6C186.1,82.8,182.5,80.8,183.1,77.5z"/>
	<path class="st1" d="M144.8,95c0.6,0.3,1.4,0.7,2.2,0.9s1.6,0.4,2.3,0.5c0.4,0,0.8,0,1.1-0.2c2.6-1.4,5.3-3.5,6.8-6.2
		c1.3-2.4,2.5-4.8,3.7-7.2c0.6-1.2,1.2-2.4,1.8-3.6c1.2-2.4,2.3-4.9,3.5-7.3c1.7-3.7,3.4-7.3,5.1-11c1.1-2.2,1.6-5,2-7.6
		c0.1-0.9,0.3-1.7,0.4-2.5c-0.9,0.1-1.8,0.1-2.7,0.1c-2.7,0-5.4,0-7.7,1.1c-1.7,0.8-3.3,1.7-4.9,2.7c-1.1,0.7-2.1,1.3-3.1,2
		c-0.5,0.4-1,0.7-1.5,1.1c-1,0.7-2,1.5-3,2.2c-0.3,0.2-0.5,0.7-0.7,1.3c-0.1,0.4-0.2,0.8-0.3,1.3c-0.1,0.7-0.3,1.4-0.5,1.9
		c1.2,0.3,2.7,0.6,4.2,0.9c1.2,0.3,2.1,0.3,3.6,0.6c-0.3,0.7-0.6,1.2-0.8,1.8c-0.5,1.1-1,1.9-1.3,2.7c-0.2,0.4-0.4,0.8-0.5,1.1
		c-0.8,1.5-1.6,3.1-2.4,4.7c-2.3,4.7-4.5,9.5-6.8,14.3C144.5,91.7,144.2,94.7,144.8,95z"/>
	<path class="st1" d="M281.5,52c0.9,1.2,3,1.5,4.5,1.5c0.3,0,0.6,0,0.8,0c4.1,0.1,5.7,2.8,7.2,6.2c3,6.8,5.9,13.7,8.9,20.5
		c0.9,1.9,1.9,3.5,3.2,4.8c2,2.2,4.6,3.5,8.1,3.8c0.2,0,0.5,0,0.7,0s0.4,0,0.6,0c0.6,0,1.1-0.1,1.6-0.3c1.6-0.6,2-2.1,1-4.8
		c-1.2-2.8-2.4-5.5-3.6-8.2c-2.4-5.5-4.8-11-7.3-16.5c-1.2-2.8-2.5-5.5-3.8-8.2c-3.3-6.5-9-9.5-15.2-9.5c-0.6,0-1.1,0-1.6,0
		s-0.9,0-1.3,0c-0.2,0-0.4,0-0.5,0c-0.3,0-0.7,0.1-1,0.2c-0.2,0-0.3,0.1-0.5,0.2c-1.7,0.9-3.5,1.8-5.2,2.7c-0.6,0.3-1.1,0.6-1.6,1
		C278.2,47.5,279.7,49.9,281.5,52z"/>
	<path class="st1" d="M313.2,52.2c0.5,0.5,1,0.9,1.5,1.3c0.5,0.4,1.1,0.8,1.7,1.1c0.9,0.5,1.9,0.9,2.9,1.2c0.3,0.1,0.7,0.2,1,0.3
		c3.3,0.9,6.8,0.3,9.8,1.2c6.3,2,8.1,5.5,5.3,9.6c-0.4,0.6-0.9,1.3-1.6,1.9c-0.3,0.3-0.7,0.7-1,1c0,0-0.1,0.1-0.1,0.1
		c-1,1.1-2.2,1.9-3.3,2.8c-0.8,0.6-1.5,1.2-2.2,1.9c-1.4,1.3-2.4,2.5-3,3.6c-0.2,0.4-0.4,0.9-0.5,1.3c-0.1,0.4-0.2,0.9-0.1,1.3
		c0,0.2,0,0.4,0.1,0.7c0.1,0.4,0.3,0.9,0.5,1.4c0.5,0.9,1.2,1.9,2.3,3.1c2.4,2.4,5.3,4.2,8.3,5.1c8.1,2,16.4,3.5,25,5.3
		c0.9-0.2,2.3-0.6,3.7-1.1c0.5-0.1,0.9-0.3,1.4-0.4c-1.2-2-1.5-5.3-3.3-6.2c-2.6-1.3-5.3-2-8.1-2.7c-1.7-0.4-3.3-0.8-5-1.2
		c-1.5-0.3-3-1.2-4.5-1.8c0.3-0.4,0.6-0.8,0.9-1.2c0.5-0.8,1-1.6,1.6-2.3c0.3-0.4,0.6-0.7,0.9-1c0.8-0.8,1.6-1.6,2.2-2.3
		c0.3-0.4,0.6-0.7,0.9-1c1.1-1.3,1.9-2.5,2.4-3.6c0.1-0.3,0.2-0.5,0.3-0.8c0.7-2.2,0.1-4.2-1.4-7.2c-0.3-0.7-0.7-1.3-1.1-1.9
		c-0.2-0.3-0.4-0.6-0.7-1c-0.5-0.6-1-1.3-1.5-1.9c-0.3-0.3-0.6-0.6-0.9-0.9c-0.9-0.9-1.9-1.8-2.9-2.6c-1-0.8-2.1-1.6-3.3-2.4
		c-7.7-5-17.7-8.2-24.7-6.8c-1.5,0.3-2.7,1-3.3,2c-0.2,0.3-0.3,0.6-0.4,0.9c-0.1,0.3-0.2,0.6-0.2,0.9c0,0.2,0,0.3,0,0.5
		c0,0.3,0.1,0.6,0.2,1C312.8,51.6,313,51.9,313.2,52.2z"/>
	<path class="st1" d="M64.1,207.7c0.4,0.6,0.9,1.2,1.4,1.7s1,1,1.6,1.5c4,3.3,9.6,4.9,16.2,4.1c5-0.3,5.9,0.8,7.1,5.3
		c3.8,15.2,16.3,20.8,29.4,12.2c1.8-1.2,3.5-2.4,5.1-3.6c1.6-1.3,3.1-2.6,4.5-4c3.5-3.5,6.4-7.3,8.7-11.4c0.9-1.6,1.7-3.3,2.4-5
		c1.8-4.3,2.9-8.7,3.4-13.3c0-13.7-5.4-21.4-14.9-22.9c-0.5-0.1-1-0.1-1.5-0.1c-3.5-0.2-7.4,0.9-10.7,1.9c-0.7,0.2-1.3,0.4-1.9,0.4
		c-0.2,0-0.4,0-0.5,0c-0.3,0-0.6,0-0.9-0.1c-0.3-0.1-0.5-0.2-0.7-0.3c-0.3-0.2-0.6-0.5-0.9-0.9c-0.2-0.3-0.3-0.6-0.4-0.9
		c-0.2-0.5-0.4-1.2-0.6-1.9c-2.6-9.8-8.7-15.2-16.1-15.5c-1.1,0-2.2,0-3.4,0.2c-0.4,0.1-0.8,0.1-1.2,0.2c-2.7,0.7-5.6,2-8.4,4
		c-0.4,0.3-0.8,0.6-1.2,0.9c-2,1.5-3.8,3.1-5.4,4.8c-2.8,2.8-5.2,5.8-7.2,9c-2,3.2-3.6,6.7-4.9,10.3c-0.7,2.2-1.3,4.5-1.8,6.8
		c-0.3,1.4-0.5,2.8-0.5,4.1c0,0.4,0,0.9,0,1.3c0,2.1,0.3,4.2,0.9,6C62.2,204.5,63,206.2,64.1,207.7z M116,191.9
		c5.6-0.3,10.4,4.5,10.4,10.1c0,6.6-6.3,13.7-11.9,13.7c-5.4,0-9.5-5.1-9.5-11C105,197.5,109.8,192.2,116,191.9z M78,185.5
		c0.2-1.1,0.6-2.2,1.1-3.2s1.1-1.9,1.9-2.8c0.2-0.3,0.5-0.5,0.8-0.8c0.5-0.5,1.1-0.9,1.7-1.3c1.5-0.9,3.2-1.4,4.8-1.3
		c4.7,0,8,3.6,8,9.2c0.3,6.2-3.6,10.4-9.5,10.7c-0.6,0-1.2-0.1-1.7-0.2c-0.8-0.2-1.6-0.5-2.4-0.8c-0.7-0.4-1.4-0.9-2-1.4
		c-0.2-0.2-0.4-0.4-0.6-0.6c-0.4-0.4-0.7-0.9-1-1.3c-0.7-1.2-1.2-2.5-1.3-3.9C77.9,187,77.9,186.2,78,185.5z"/>
	<path class="st1" d="M433,202.6c-1.5-13.4-9.5-25.9-22.3-34.8c-1.9-1.3-3.8-2-5.6-2c-2.9-0.1-5.5,1.4-7.2,4.4
		c-0.2,0.3-0.4,0.7-0.5,1c-0.8,1.6-1,2.9-0.8,4.1c0.4,2.4,2.5,4.2,4.9,6.2c3.9,3.3,7.1,8,9.8,12.5c1.5,2.8-0.5,5.7-3.7,5.7
		c-0.4,0-0.9,0-1.4-0.1c-4.8-1.2-9.5-2.7-14.3-4.5c-5.9-2-11.6-4.7-17.5-6.5c-2-0.6-4-0.9-6-0.9c-3.2,0.1-6.2,1.3-8.6,4.5
		c-0.5,0.7-0.9,1.3-1.2,2c-0.6,1.3-0.9,2.6-1,3.8c0,0.6,0,1.2,0.1,1.9c0.2,1.2,0.6,2.4,1.2,3.6c0.1,0.3,0.3,0.6,0.5,0.9
		c0.5,0.9,1.1,1.8,1.7,2.7c6.8,9.8,13.7,19.9,20.5,29.7c1.2,1.8,2.4,3.6,3.9,4.8c2,1.6,3.9,2.4,5.8,2.3c1.9-0.1,3.7-1,5.5-2.6
		c3.3-3,4.2-5.9,1.2-9.8c-2.3-3.3-4.7-6.8-6.8-10.4c-0.4-0.6-0.8-1.3-1-2c-0.1-0.4-0.3-0.7-0.4-1.1c-0.1-0.4-0.3-0.7-0.4-1.1
		c1.1,0,2.2-0.2,3.4-0.1c0.4,0,0.8,0.1,1.1,0.1c6.5,1.7,12.5,4.7,19,5.9c1.1,0.2,2.1,0.3,3.2,0.3C425.9,223.3,433,215.5,433,202.6z"
		/>
	<path class="st1" d="M253.5,305.2c0.9,5,1.8,9.8,3.3,14.4c1,2.8,2.2,5.5,3.6,7.8c0.5,0.8,1,1.6,1.5,2.3c1.3,1.8,2.8,3.5,4.4,4.9
		c1,0.9,2,1.8,3.1,2.5c1.4,1,2.9,1.9,4.5,2.7c2.4,1.2,4.9,2,7.5,2.6c0.9,0.2,1.8,0.4,2.7,0.5c1.8,0.3,3.7,0.4,5.6,0.4
		c3.9,0,7.5-0.5,11-1.6c10.2-3.1,18.1-10.7,22.3-21.9c0.4-1,0.7-2,1-3.1s0.6-2,0.9-3.1c0.5-2,1-4.1,1.3-6.1c0.4-2,0.6-4.1,0.8-6.1
		c0.2-3.1,0.3-6.1,0.1-9.2c-0.1-2-0.3-4.1-0.6-6.1c-0.8-5.1-2.1-10.1-4.1-15.1c-2.1-5.4-5.2-9.9-9-13.5c-1.3-1.2-2.6-2.3-4-3.2
		c-2.1-1.4-4.4-2.6-6.8-3.5c-1.6-0.6-3.3-1.1-5-1.4c-2.6-0.5-5.3-0.7-8.1-0.6c-7.6,0.1-14.2,2-19.6,5.6c-5.4,3.6-9.5,9-12.2,16.1
		c-0.8,2-1.4,4.1-2,6.2c-1.7,6.3-2.7,12.8-4,19c0.5,2.2,0.8,4.2,1.2,6.3C253.1,303.1,253.3,304.2,253.5,305.2z M280.9,274.8
		c3.1-6.5,10.1-7.7,14.8-3.7c0,0,0,0,0,0c1.1,0.9,2,2.2,2.7,3.6c1.3,2.6,2.2,5.5,3,8.3c0.4,1.3,0.7,2.7,1,4.1
		c0.1,0.4,0.2,0.8,0.3,1.2c0.5,2.5,1.1,5,1.7,7.5c-0.8,2.8-1.3,5.5-1.9,8.2s-1.1,5.3-1.9,7.8c-0.5,1.7-1.1,3.3-1.9,4.8
		c-0.3,0.6-0.5,1.1-0.9,1.6c-0.6,1-1.3,1.8-2,2.5s-1.5,1.3-2.4,1.7c-1.2,0.6-2.5,0.9-3.9,0.9c-0.9,0-1.7-0.1-2.6-0.4
		c-0.6-0.2-1.2-0.5-1.7-0.8c-0.5-0.3-0.9-0.6-1.4-1c-0.4-0.3-0.7-0.6-1.1-1c-0.5-0.6-1-1.2-1.5-1.9c-0.3-0.5-0.6-1-0.8-1.6
		c-1.1-2.4-2-4.7-2.8-7.1c-0.1-0.4-0.3-0.9-0.4-1.3c-0.4-1.3-0.7-2.7-0.9-4c-0.2-1.1-0.4-2.3-0.5-3.4c-0.2-1.7-0.3-3.3-0.3-5
		c0,0,0,0,0-0.1C275.8,288.7,277.5,281.7,280.9,274.8z"/>
	<path class="st1" d="M187.7,339.5c0.9,0.3,1.9,0.5,3,0.7c0.8,0.1,1.6,0.2,2.5,0.2c6.2,0,12.5,0,18.7,0h0c1.9,0,3.8,0,5.7,0
		c5.7,0.1,11.3,0.2,16.9,0c0.4,0,0.8-0.1,1.2-0.1c0.8-0.1,1.5-0.3,2.1-0.4c0.7-0.2,1.2-0.4,1.8-0.7c0.3-0.1,0.5-0.3,0.7-0.4
		c0.5-0.3,0.9-0.7,1.2-1.1c0.4-0.4,0.7-0.9,0.9-1.4c0.4-0.8,0.6-1.7,0.8-2.8c0.1-0.7,0.1-1.5,0.2-2.4c0-0.4,0-0.9,0-1.3
		c-0.1-1.7-0.2-3.1-0.5-4.2c-0.1-0.3-0.2-0.5-0.2-0.8c-0.2-0.5-0.4-0.9-0.7-1.3c-0.1-0.2-0.3-0.4-0.4-0.5c-0.3-0.3-0.7-0.6-1.1-0.9
		c-1.3-0.7-3.2-1-5.9-1.2c-1.5,0-2.7,0-3.9,0c-6.2,0-12.5-0.3-18.7-0.6c4.5-4.8,8.6-9.5,13.4-13.7c0.5-0.4,0.9-0.9,1.4-1.3
		c0.9-0.9,1.8-1.7,2.7-2.6c0.9-0.9,1.7-1.8,2.5-2.7c0.5-0.5,1-1.1,1.4-1.7c0.7-0.9,1.4-1.7,2-2.6c0.7-1,1.4-2,2-3
		c0.8-1.3,1.5-2.7,2.2-4.2c0.2-0.4,0.4-0.8,0.5-1.2c0.6-1.6,1.2-3.3,1.6-5c0.8-3.6,0.9-6.9,0.5-10.1c-0.2-1.1-0.4-2.1-0.7-3.1
		c-0.4-1.5-1-3-1.7-4.4c-1.2-2.3-2.8-4.5-4.9-6.6c-1.5-1.5-3.3-2.9-5.3-4.1c-0.8-0.5-1.6-0.9-2.5-1.3c-3-1.4-6.4-2.5-9.8-3.2
		c-1.5-0.3-3-0.5-4.5-0.6c-1.5-0.1-3-0.2-4.5-0.2c-0.5,0-1,0-1.5,0c-5.5,0.2-10.7,1.4-14.9,3.8c-0.4,0.2-0.7,0.5-1.1,0.7
		s-0.7,0.5-1,0.7c-0.6,0.5-1.2,1-1.7,1.5c-0.5,0.5-1,1.1-1.4,1.6c-0.4,0.6-0.7,1.2-1,1.8c-0.3,0.5-0.5,1.1-0.6,1.7
		c-0.1,0.4-0.2,0.8-0.3,1.2c-0.3,1.7-0.2,3.5,0.3,5.4c0.5,1.9,1,3.3,1.7,4.2c0.3,0.4,0.6,0.7,0.9,0.9c0.3,0.2,0.7,0.4,1.1,0.6
		c0.2,0.1,0.4,0.1,0.6,0.1c0.5,0.1,0.9,0.1,1.5,0c1.1-0.1,2.4-0.4,3.9-0.8c4.5-1.2,9.5-3.3,14.3-2.7c0.6,0.1,1.1,0.1,1.6,0.2
		s1,0.2,1.4,0.4c0.9,0.3,1.7,0.7,2.4,1.1c0.7,0.5,1.3,1,1.8,1.6c0.8,0.9,1.3,1.9,1.6,3c0.2,0.7,0.3,1.5,0.3,2.3s-0.1,1.6-0.4,2.5
		c-0.3,1.3-0.9,2.5-1.8,3.8c-2.7,3.6-5.9,6.8-9.2,10.1c-6.2,6.2-12.8,11.9-19.3,17.8c-2.1,2-3.7,4.2-4.9,6.5c0,0.1-0.1,0.2-0.1,0.2
		c-0.2,0.5-0.5,1.1-0.7,1.6c-0.3,0.8-0.5,1.6-0.7,2.5c-0.1,0.3-0.1,0.5-0.1,0.8c-0.1,0.7-0.2,1.4-0.2,2.2c0,0,0,0,0,0.1
		c0,1.7,0.2,3.5,0.8,5.4C182.8,336,184.5,338.4,187.7,339.5z"/>
	<path class="st1" d="M255.8,440.2c-0.4-0.4-0.9-0.7-1.4-1s-1-0.5-1.6-0.6c-2.2-0.7-4.8-0.6-7.4-0.6c-4.5,0-9.2-0.3-13.7,0
		c-5,0.3-8.3-0.3-8.9-6.8c-0.2-2.2-1.2-3.5-2.6-4.3c-0.5-0.3-1-0.4-1.5-0.6c-0.5-0.1-1.1-0.2-1.7-0.3c-1.7-0.2-3.6-0.1-5.3-0.1
		c-1,0-2.2,0-3.3,0.1c-0.4,0-0.9,0.1-1.3,0.2c-0.6,0.1-1.2,0.3-1.7,0.6c-0.3,0.2-0.6,0.4-0.9,0.7c-0.5,0.6-0.8,1.3-0.8,2.4
		c0,6.2-3,8.3-8.6,9.2c-0.6,0.1-1.3,0.7-1.9,1.5c-0.1,0.2-0.3,0.4-0.4,0.6c-0.1,0.2-0.3,0.5-0.4,0.8c-0.1,0.2-0.2,0.4-0.3,0.6
		c-0.1,0.3-0.3,0.6-0.4,0.9c-0.1,0.3-0.2,0.5-0.3,0.8c-0.2,0.6-0.3,1.1-0.4,1.6c0,0.1,0,0.2,0,0.4c0,0.2,0.1,0.5,0.2,0.8
		c0.1,0.1,0.1,0.3,0.2,0.4c0.1,0.3,0.3,0.6,0.5,0.8c0.9,1.4,2.3,2.7,3.3,2.7c3.1-0.1,5.1,0.6,6.3,1.8c0.4,0.4,0.7,0.9,1,1.4
		c0.4,0.8,0.6,1.6,0.7,2.5c0.1,0.6,0.1,1.3,0.1,1.9c0,1,0,2-0.1,3.1c0,3.3,0,6.5,0,9.8c0,1.5,0.1,2.9,0.2,4.1
		c0.2,1.9,0.5,3.4,0.9,4.7c1.7,4.8,5.4,6,13.4,6c4,0,6.4-0.1,8.4-1c0.3-0.1,0.5-0.2,0.8-0.4c1-0.5,2-1.3,3.1-2.3
		c0.3-0.3,0.6-0.5,0.9-0.8c0.6-0.6,1.3-1.2,2-2c6.8-7.1,13.7-14.3,20.5-21.4c2.9-3.1,5-6.5,4.9-10.6c0-1.3-0.3-2.8-0.8-4.2
		C257.4,442.1,256.7,441,255.8,440.2z M233.2,454.9c-0.5,1-0.9,2.1-1.5,3.1c-0.3,0.6-0.7,1.1-1,1.7c-1.2,1.8-2.4,3.3-3.9,4.8
		c-0.9,0.9-2.4,1.5-3.6,2.1c-0.1-0.5-0.3-1-0.5-1.5c-0.2-0.6-0.3-1.2-0.5-1.8c0-1.1,0-2.6,0-5.9c0.3-0.6,1.2-4.5,3-5.1
		c0.7-0.2,1.4-0.3,2.1-0.3c1.1,0,2.2,0.1,3.4,0.3c0.8,0.1,1.6,0.2,2.3,0.3c0.4,0,0.8,0,1.2,0C233.9,453.3,233.5,454.1,233.2,454.9z"
		/>
	<path class="st1" d="M306.1,473.3c-0.9-4.8-4.4-4.8-8.6-4.8c-4.9,0-6.4,0-7-2.3c-0.2-0.6-0.2-1.4-0.3-2.4c0-0.7-0.1-1.5-0.1-2.3
		c0-3.6,0-6.8,0-10.1v0c0-0.7,0-1.5,0-2.2c0-0.7,0-1.5,0-2.2c0-1.5,0-3,0-4.4s0-2.9-0.1-4.4c0-0.7-0.1-1.4-0.1-2.1
		c0-0.7-0.1-1.4-0.2-2.1c-0.1-1.1-0.4-2.1-0.7-2.9c-0.4-0.8-0.9-1.5-1.6-2.1c-0.4-0.4-0.9-0.7-1.5-1c-0.8-0.4-1.8-0.8-2.9-1
		c-0.7-0.2-1.5-0.3-2.4-0.3c-1.3-0.1-2.7-0.1-4.3-0.1c-0.8,0-1.5,0.1-2,0.3c-0.9,0.2-1.6,0.5-2.1,1c-2,1.5-2,4.3-2,7.4
		c0,3.3,0,6.6,0,9.9c0,6.6-0.1,13.2-0.1,19.9c0,3.3,0.1,6.7,0.1,10c0,0.6,0,1.1,0,1.6c0,1,0.1,2,0.3,2.8c0.2,1.3,0.6,2.3,1.1,3.2
		c1.8,3,5.6,4,12.8,4.2c1.4-0.3,3.2-0.8,5.1-1.2c2.6-0.7,5.5-1.4,8.4-2.3c0.7-0.2,1.5-0.4,2.2-0.7c1.9-0.7,3.5-1.6,4.6-2.8
		c0.3-0.3,0.5-0.6,0.7-0.9c0.2-0.3,0.3-0.6,0.4-0.9c0.2-0.4,0.3-0.9,0.4-1.4C306.5,475.6,306.4,474.5,306.1,473.3z"/>
	<g>
		<path class="st2" d="M103.5,387.7c48.7,0,97.2,0,145.9,0c49,0,98.1,0,147.1,0c11.6,0,11.9-0.3,5.9-10.4
			c-49-85-98.1-170-147.1-254.7c-0.9-1.8-2.1-3.6-3.3-5.3c-1.5-1.8-3-3-4.8,0c-0.6,1.2-1.2,2.1-1.8,3.3
			c-49.3,85.6-99,171.2-148.3,257C91.6,387.4,91.6,387.7,103.5,387.7z M254.6,281.6c0.4-1.6,0.7-3.2,1.2-4.8
			c0.3-1.1,0.6-2.1,0.9-3.1c0.3-1,0.7-2.1,1-3.1c0.7-1.8,1.4-3.5,2.3-5c0.8-1.6,1.8-3,2.8-4.4c1-1.3,2.1-2.6,3.3-3.7
			c1.2-1.1,2.5-2.1,3.8-3c5.4-3.6,12-5.5,19.6-5.6c2.8-0.1,5.5,0.1,8.1,0.6c1.7,0.3,3.4,0.8,5,1.4c2.4,0.9,4.7,2.1,6.8,3.5
			c1.4,1,2.8,2,4,3.2c3.8,3.6,6.9,8.1,9,13.5c1.9,5,3.3,10,4.1,15.1c0.3,2,0.5,4.1,0.6,6.1c0.2,3,0.2,6.1-0.1,9.2
			c-0.2,2-0.4,4.1-0.8,6.1c-0.4,2-0.8,4.1-1.3,6.1c-0.3,1-0.6,2-0.9,3.1s-0.7,2-1,3.1c-4.2,11.2-12.1,18.8-22.3,21.9
			c-3.4,1-7.1,1.6-11,1.6c-1.9,0-3.8-0.1-5.6-0.4c-0.9-0.1-1.8-0.3-2.7-0.5c-1.3-0.3-2.6-0.7-3.9-1.1c-1.3-0.4-2.5-0.9-3.7-1.5
			c-1.6-0.8-3.1-1.7-4.5-2.7c-1.1-0.8-2.1-1.6-3.1-2.5c-1.6-1.5-3.1-3.1-4.4-4.9c-0.5-0.7-1-1.5-1.5-2.3c-1.5-2.4-2.7-5-3.6-7.8
			c-1.1-3.5-1.9-7-2.6-10.7c-0.2-1.2-0.5-2.5-0.7-3.7c-0.2-1-0.4-2-0.6-3.1c-0.4-2.1-0.8-4.2-1.2-6.3
			C252.7,291.2,253.5,286.4,254.6,281.6z M180.9,326c0-0.7,0.1-1.5,0.2-2.2c0-0.3,0.1-0.5,0.1-0.8c0.2-0.8,0.4-1.7,0.7-2.5
			c0.2-0.5,0.4-1.1,0.7-1.6c0-0.1,0.1-0.2,0.1-0.2c1.1-2.3,2.8-4.5,4.9-6.5c6.5-5.9,13.1-11.6,19.3-17.8c3.3-3.3,6.5-6.5,9.2-10.1
			c0.6-1,1.1-1.9,1.5-2.9c0.1-0.3,0.2-0.6,0.3-0.9c0.2-0.8,0.4-1.7,0.4-2.5c0-0.8-0.1-1.6-0.3-2.3c-0.3-1.1-0.8-2.1-1.6-3
			c-0.5-0.6-1.1-1.1-1.8-1.6c-0.7-0.5-1.5-0.8-2.4-1.1c-0.5-0.1-0.9-0.3-1.4-0.4s-1-0.2-1.6-0.2c-4.8-0.6-9.8,1.5-14.3,2.7
			c-1.5,0.5-2.8,0.7-3.9,0.8c-0.5,0-1,0-1.5,0c-0.2,0-0.4-0.1-0.6-0.1c-0.4-0.1-0.8-0.3-1.1-0.6c-0.3-0.2-0.6-0.6-0.9-0.9
			c-0.7-1-1.2-2.3-1.7-4.2c-0.5-1.9-0.6-3.7-0.3-5.4c0.1-0.4,0.2-0.8,0.3-1.2c0.2-0.6,0.4-1.1,0.6-1.7c0.3-0.6,0.6-1.2,1-1.8
			c0.4-0.6,0.9-1.1,1.4-1.6c0.5-0.5,1.1-1,1.7-1.5c0.3-0.2,0.6-0.5,1-0.7s0.7-0.5,1.1-0.7c1.6-0.9,3.3-1.6,5.1-2.2
			c0.6-0.2,1.2-0.4,1.9-0.5c1.3-0.3,2.6-0.6,3.9-0.7c1.3-0.2,2.7-0.3,4.1-0.3c0.5,0,1,0,1.5,0c1.5,0,3,0.1,4.5,0.2
			c1.5,0.1,3,0.4,4.5,0.6c3.5,0.7,6.8,1.7,9.8,3.2c0.9,0.4,1.7,0.8,2.5,1.3c2,1.2,3.8,2.5,5.3,4.1c2,2,3.7,4.2,4.9,6.6
			c0.7,1.4,1.3,2.9,1.7,4.4c0.3,1,0.5,2,0.7,3.1c0.1,0.4,0.1,0.8,0.1,1.2c0.1,0.8,0.1,1.6,0.1,2.4c0,0.9,0,1.8-0.1,2.7
			c-0.1,1.2-0.3,2.5-0.6,3.8c-0.4,1.8-0.9,3.4-1.6,5c-0.2,0.4-0.3,0.8-0.5,1.2c-0.6,1.5-1.4,2.9-2.2,4.2c-0.6,1-1.3,2.1-2,3
			c-0.6,0.9-1.3,1.8-2,2.6c-0.5,0.6-0.9,1.1-1.4,1.7c-0.8,0.9-1.7,1.8-2.5,2.7c-0.9,0.9-1.8,1.8-2.7,2.6c-0.5,0.4-0.9,0.9-1.4,1.3
			c-4.8,4.2-8.9,8.9-13.4,13.7c6.2,0.3,12.5,0.6,18.7,0.6c1.2,0,2.4,0,3.9,0c1.3,0.1,2.4,0.2,3.3,0.3c0.5,0.1,1,0.2,1.4,0.4
			c0.4,0.1,0.8,0.3,1.1,0.5c0.4,0.2,0.8,0.5,1.1,0.9c0.2,0.2,0.3,0.3,0.4,0.5c0.3,0.4,0.5,0.8,0.7,1.3c0.1,0.3,0.2,0.5,0.2,0.8
			c0.1,0.6,0.3,1.2,0.3,1.9c0.1,0.7,0.1,1.5,0.2,2.3c0,0.5,0,0.9,0,1.3c0,0.9-0.1,1.6-0.2,2.4c-0.1,1.1-0.4,2-0.8,2.8
			c-0.2,0.5-0.5,1-0.9,1.4c-0.4,0.4-0.8,0.8-1.2,1.1c-0.2,0.2-0.5,0.3-0.7,0.4c-0.5,0.3-1.1,0.5-1.8,0.7c-0.7,0.2-1.4,0.3-2.1,0.4
			c-0.4,0.1-0.8,0.1-1.2,0.1c-5.5,0.2-11.2,0.1-16.9,0c-1.9,0-3.8,0-5.7,0c-6.2,0-12.5,0-18.7,0c-0.9,0-1.7-0.1-2.5-0.2
			c-1.1-0.1-2.1-0.4-3-0.7c-3.2-1.2-4.9-3.5-6.1-8C181.1,329.7,180.8,327.9,180.9,326C180.8,326.1,180.9,326.1,180.9,326z"/>
		<path class="st2" d="M431.5,405.5c-12.2-5.1-9.2-6.5-18.7,3.6c-33.9,36.6-67.5,73.4-101.3,110.2c-8,8.9-16.3,17.8-24.4,26.7
			c-0.6,0.6-0.6,1.5-0.9,2.1c0.6,0.3,1.2,0.3,2.1,0.6c1.8-0.9,3.6-1.8,5.3-3c12.5-7.4,25-14.6,37.7-22
			c51.1-29.4,102.2-59.1,153.3-88.6c1.8-0.9,3-2.4,4.5-3.9c-1.5-1.2-3-2.7-4.8-3.6C466.9,420.4,449.4,412.7,431.5,405.5z
			 M401.2,473.9c-3.2-1.5-6.4-3-9.6-3.4c-1.3-0.1-2.5-0.1-3.8,0.2c-0.4,0.1-0.8,0.2-1.3,0.4c-1.9,0.7-3.7,1.9-5.6,4
			c-0.3,0.3-1.2,0.5-2.1,0.4c-0.9,0-1.9-0.3-2.4-0.7c-0.2-0.2-0.4-0.4-0.6-0.7c-0.4-1-0.6-2.5-0.4-3.4c0,0,0-0.1,0-0.1
			c0.1-0.2,0.2-0.3,0.2-0.5c0.2-0.3,0.3-0.7,0.5-1c0.2-0.5,0.5-1,0.7-1.4c0.6-1.6,0.6-3-1.7-4.5c-0.1,0-0.1-0.1-0.2-0.2
			c-0.3-0.3-0.4-1-0.4-1.7c0-0.5,0.1-0.9,0.3-1.1c0.7-0.6,1.4-1.3,2-2c0.5-0.5,0.9-1,1.4-1.5c0.7-0.7,1.4-1.5,2.1-2.2
			c0.5-0.5,0.9-0.9,1.4-1.3c0.7-0.6,1.4-1.1,2.1-1.4c0.7-0.3,1.4-0.5,2-0.5c1.3,0,2.5-0.1,3.6-0.4c0.4-0.1,0.7-0.2,1.1-0.3
			c1-0.3,2-0.7,2.8-1.3c0.3-0.2,0.6-0.3,0.8-0.5c0.3-0.2,0.5-0.4,0.8-0.6c1.1-0.8,2-1.7,3-2.7c0.2-0.2,0.5-0.5,0.7-0.7
			c0.5-0.5,1-1,1.4-1.5c3-3.3,5.9-7.1,9.5-9.8c1-0.7,2.3-1.3,3.6-1.7c2.2-0.7,4.6-1.1,6.5-0.7c0.2,0,0.4,0.1,0.6,0.3
			c0.2,0.2,0.4,0.4,0.6,0.7c0.2,0.3,0.3,0.6,0.5,0.9c0.2,0.5,0.4,1.1,0.6,1.7c0.1,0.4,0.2,0.8,0.3,1.3c0.2,0.6,0.3,1.3,0.4,1.9
			c0.1,0.4,0.2,0.8,0.2,1.2c0.2,0.6,0.2,1.2,0.3,1.9c0,0.3,0,0.6,0,1c0,1.6-0.3,3.4-0.3,5.2v0c0.4,2,0.6,3.8,0.6,5.6c0,0,0,0,0,0
			c0,1.1,0,2.3-0.2,3.3c-0.1,0.8-0.2,1.5-0.4,2.2c-0.2,1-0.5,1.9-0.8,2.8c-0.3,0.8-0.6,1.5-1,2.3c-0.6,1.1-1.3,2.2-2.1,3.2
			c-0.1,0.2-0.3,0.4-0.4,0.5c-0.7,0.8-1.4,1.7-2.3,2.4c0,0,0,0,0,0c-0.9,0.8-1.9,1.7-3,2.4C409.8,474.8,406,476.3,401.2,473.9z"/>
		<path class="st2" d="M401.5,455.5c2.1,1.2,4.5,2.7,6.8,3.9c0,0,0.1,0,0.2-0.1c0.1-0.1,0.2-0.2,0.3-0.3c0.2-0.2,0.3-0.5,0.5-0.8
			c0.1-0.2,0.3-0.4,0.4-0.7c0.2-0.4,0.5-0.7,0.7-1.1c0.2-0.3,0.3-0.5,0.5-0.8s0.3-0.5,0.5-0.7c-1.2-2.4-2.1-4.2-3-5.9
			C406,451,403.6,453.1,401.5,455.5z"/>
		<path class="st2" d="M402.1,400.8c-3-0.6-6.2-1.5-9.2-1.5c-47.5,0-94.8,0-142.3,0c-47.8,0-95.7,0-143.5,0c-3.3,0-6.2,0.9-9.5,1.5
			c1.8,2.7,3,5.6,5.1,7.7c45.5,49.6,91.2,99.3,136.7,148.9c10.4,11.3,10.4,11.3,20.8,0.3c45.5-49.6,91.2-99.3,136.7-149.2
			C398.8,406.4,400.3,403.5,402.1,400.8z M253.8,458.4c-6.8,7.1-13.7,14.3-20.5,21.4c-0.7,0.7-1.4,1.4-2,2c-0.3,0.3-0.6,0.6-0.9,0.8
			c-1.1,1-2.1,1.8-3.1,2.3c-0.3,0.1-0.5,0.3-0.8,0.4s-0.5,0.2-0.8,0.3c-0.8,0.3-1.7,0.4-2.7,0.6c-0.3,0-0.7,0.1-1.1,0.1
			c-1.1,0.1-2.4,0.1-3.9,0.1c-7,0-10.7-1-12.7-4.4c-0.3-0.5-0.5-1-0.7-1.6c-0.1-0.3-0.2-0.7-0.3-1c-0.2-0.7-0.3-1.5-0.5-2.4
			c-0.1-0.4-0.1-0.9-0.2-1.3c-0.1-1.2-0.2-2.6-0.2-4.1c0-3.3,0-6.5,0-9.8c0.1-1,0.1-2.1,0.1-3.1c0-0.7-0.1-1.3-0.1-1.9
			c-0.1-0.9-0.3-1.8-0.7-2.5c-0.2-0.5-0.6-1-1-1.4c-1.2-1.2-3.1-1.9-6.3-1.8c-0.9,0-2.3-1.3-3.3-2.7c-0.2-0.3-0.3-0.6-0.5-0.8
			c-0.1-0.1-0.1-0.3-0.2-0.4c-0.1-0.3-0.2-0.5-0.2-0.8c0-0.1,0-0.2,0-0.4v0c0.1-0.5,0.2-1,0.4-1.6c0.1-0.3,0.2-0.5,0.3-0.8
			c0.1-0.3,0.2-0.6,0.4-0.9c0.1-0.2,0.2-0.4,0.3-0.6c0.1-0.3,0.3-0.5,0.4-0.8c0.1-0.2,0.2-0.4,0.4-0.6c0.6-0.8,1.2-1.4,1.9-1.5
			c5.6-0.9,8.6-3,8.6-9.2c0-1,0.3-1.8,0.8-2.4c0.2-0.3,0.5-0.5,0.9-0.7c0.5-0.3,1.1-0.5,1.7-0.6c0.4-0.1,0.9-0.1,1.3-0.2
			c1.1-0.1,2.3-0.1,3.3-0.1c1.7,0,3.6-0.1,5.3,0.1c0.6,0.1,1.1,0.2,1.7,0.3c0.5,0.1,1,0.3,1.5,0.6c1.4,0.8,2.3,2.1,2.6,4.3
			c0.6,6.5,3.9,7.1,8.9,6.8c4.5-0.3,9.2,0,13.7,0c2.5,0,5.1-0.1,7.4,0.6c0.6,0.2,1.1,0.4,1.6,0.6s1,0.6,1.4,1
			c0.9,0.8,1.6,1.9,2.1,3.4c0.5,1.5,0.8,2.9,0.8,4.2C258.8,451.9,256.7,455.3,253.8,458.4z M306.3,476.6c-0.1,0.5-0.2,0.9-0.4,1.4
			c-0.1,0.3-0.3,0.6-0.4,0.9c-0.2,0.3-0.4,0.6-0.7,0.9c-1.1,1.2-2.7,2.2-4.6,2.8c-0.7,0.2-1.5,0.4-2.2,0.7c-2.9,0.9-5.8,1.6-8.4,2.3
			c-1.9,0.5-3.7,0.9-5.1,1.2c-7.2-0.2-11-1.2-12.8-4.2c-0.5-0.9-0.9-2-1.1-3.2c-0.2-0.9-0.2-1.8-0.3-2.8c0-0.5,0-1.1,0-1.6
			c-0.1-3.4-0.1-6.7-0.1-10c0-6.7,0-13.3,0.1-19.9c0-3.3,0-6.6,0-9.9c0-2.3,0-4.5,0.8-6c0.3-0.5,0.7-1,1.2-1.4
			c0.5-0.4,1.2-0.7,2.1-1c0.6-0.1,1.3-0.2,2-0.3c1.6-0.1,3,0,4.3,0.1c0.9,0.1,1.7,0.2,2.4,0.3c1.1,0.2,2.1,0.5,2.9,1
			c0.6,0.3,1.1,0.6,1.5,1c0.7,0.6,1.2,1.3,1.6,2.1c0.4,0.8,0.6,1.8,0.7,2.9c0.1,0.7,0.1,1.4,0.2,2.1c0,0.7,0.1,1.4,0.1,2.1
			c0.1,1.4,0.1,2.9,0.1,4.4s0,2.9,0,4.4c0,0.7,0,1.5,0,2.2s0,1.5,0,2.2c0,3.3,0,6.5,0,10.1c0,0.9,0.1,1.7,0.1,2.3
			c0.1,1,0.1,1.8,0.3,2.4c0.1,0.4,0.2,0.8,0.4,1.1c0.8,1.2,2.6,1.2,6.5,1.2c4.2,0,7.7,0,8.6,4.8c0.2,0.9,0.3,1.7,0.3,2.5
			C306.4,476.1,306.3,476.3,306.3,476.6z"/>
		<path class="st2" d="M499.1,330.9c-1.4-7.4-5.6-13.5-13.2-18.7c-5.3-3.9-10.1-8.9-14.6-13.7c-3-3-2.4-8.9,0.9-12.5
			c3.6-3.9,5.6,0.6,8,2.4c2.7,2.1,5.1,4.5,7.4,6.5c3,2.4,5.9,4.5,8.6,6.5c1.2-3.6,2.4-6.8,3-10.4c0.1-0.3,0.1-0.7,0.2-1
			c0.3-2.4,0.1-5,0.1-7.6c0-2.2,0-4.5,0-6.7c0-13.5,0-27.1,0-40.8c0-17.8,0-35.7,0-53.8c0-1.2-0.3-2.4-0.3-3.6
			c-0.9,1.2-2.4,2.1-3,3.6c-0.9,1.8-1.2,3.9-2.1,5.9c-10.7,31.5-21.1,63-31.8,94.5c-11.3,33.6-22.3,66.9-33.6,100.4
			c-2.7,7.7-2.4,8,4.8,11.3c12.5,5.6,25.3,10.7,37.7,16c5.6,2.4,11.3,5.1,17.2,7.1c5.3,2.1,9.2,0,10.1-5.3c0.6-3.3,0.3-6.5,0.3-9.8
			c0-6-0.1-12-0.2-18c-0.2-11.9-0.3-23.9,0.3-35.8c0.1-1.2,0.1-2.4,0.2-3.7C499.8,339.1,499.8,334.8,499.1,330.9z M470.5,310.6
			c2.1,0.4,4.2,1.9,5.9,4.4c1.4,2.1,2.4,4.7,3.7,7c0.5,1,1.2,1.9,1.9,2.7c0.2,0.3,0.5,0.5,0.8,0.8c1.1,0.9,2.5,1.6,4.4,1.9
			c0.5,0.1,0.9,0.1,1.5,0.1c0.9,0,2,1.4,2.9,3c0.2,0.3,0.3,0.7,0.5,1c0.2,0.3,0.3,0.7,0.4,1c0.1,0.3,0.3,0.6,0.4,0.9
			c0.6,2,1,3.9,1.3,5.9c0.2,1.3,0.3,2.6,0.3,3.8c0,0.6,0,1.3,0,1.9c-0.1,1.9-0.3,3.7-0.7,5.6c-0.3,1.2-0.6,2.4-1,3.6
			c-0.3,0.9-0.6,1.8-1,2.7c-0.4,0.9-0.8,1.8-1.3,2.7c-0.6,1.2-1.3,2.3-2,3.5c-4.2,6.5-9.8,6.5-13.7,0c-0.3-0.6-0.7-1.1-1-1.6
			c-0.5-0.8-1-1.5-1.5-2.1c-0.5-0.6-1.1-1.2-1.7-1.7c-0.2-0.2-0.4-0.3-0.6-0.5c-0.4-0.3-0.9-0.6-1.3-0.9c-1.2-0.7-2.6-1.3-4.2-1.8
			c-7.7-2.1-8.3-10.4-8.9-20.8c1.8-4.8,4.2-12.2,8-19c0.3-0.6,0.7-1.1,1-1.5c0.3-0.4,0.6-0.7,0.9-1c0.3-0.3,0.6-0.5,1-0.7
			c0.3-0.2,0.5-0.3,0.8-0.4c0.3-0.1,0.6-0.2,0.9-0.3c0.6-0.2,1.2-0.2,1.8-0.2C469.9,310.6,470.2,310.6,470.5,310.6z"/>
		<path class="st2" d="M361.7,122.1c-31.2-4.2-62.7-8.3-93.9-12.5c-4.2-0.6-5.3,0.9-3.3,4.5c3.3,6.2,7.1,12.2,10.7,18.4
			c45.2,78.4,90.6,156.9,135.8,235.3c1.5,2.7,3.9,5.1,5.9,7.7c1.5-3,3.3-5.6,4.2-8.6c18.7-55.6,37.4-110.8,56.2-166.4
			c5.6-16.9,11.6-33.9,16.9-50.8c2.7-8,1.2-9.8-6.5-11c-7.1-0.9-14-1.8-21.1-2.7C431.5,131.6,396.8,126.8,361.7,122.1z M416,223.1
			c-1,0-2.1-0.1-3.2-0.3c-6.5-1.2-12.5-4.2-19-5.9c-0.4-0.1-0.8-0.1-1.1-0.1c-1.1,0-2.2,0.1-3.4,0.1c0.2,0.4,0.3,0.8,0.4,1.1
			c0.1,0.4,0.2,0.7,0.4,1.1c0.3,0.7,0.6,1.4,1,2c2.1,3.6,4.5,7.1,6.8,10.4c3,3.9,2.1,6.8-1.2,9.8c-1.8,1.6-3.7,2.5-5.5,2.6
			c-1.9,0.1-3.8-0.7-5.8-2.3c-1.5-1.2-2.7-3-3.9-4.8c-6.8-9.8-13.7-19.9-20.5-29.7c-0.6-0.9-1.2-1.8-1.7-2.7
			c-0.2-0.3-0.3-0.6-0.5-0.9c-0.6-1.2-1-2.4-1.2-3.6c-0.1-0.6-0.1-1.2-0.1-1.9c0.1-1.2,0.4-2.5,1-3.8c0.3-0.7,0.7-1.3,1.2-2
			c2.4-3.2,5.4-4.4,8.6-4.5c1,0,1.9,0.1,2.9,0.2c1,0.2,2,0.4,3,0.7c5.9,1.8,11.6,4.5,17.5,6.5c4.8,1.8,9.5,3.3,14.3,4.5
			c0.2,0.1,0.5,0.1,0.7,0.1s0.5,0,0.7,0c3.1-0.1,5.2-2.9,3.7-5.7c-2.7-4.5-5.9-9.2-9.8-12.5c-2.4-2.1-4.5-3.9-4.9-6.2
			c-0.2-1.2,0-2.5,0.8-4.1c0.2-0.3,0.3-0.6,0.5-1c1.7-3,4.3-4.6,7.2-4.4c1.1,0,2.3,0.3,3.4,0.8c0.7,0.3,1.4,0.7,2.1,1.2
			c12.8,8.9,20.8,21.4,22.3,34.8c0,9.7-4,16.5-10.2,19.2C420.8,222.7,418.5,223.2,416,223.1z"/>
		<path class="st2" d="M62.5,120.3c41.9-5.6,84.1-11.3,126-16.9c15.2-2.1,30.6-3.9,45.8-6.2c9.5-1.5,9.5-1.8,9.5-10.7
			c0-12.8,0-25.9,0-38.6c0-13.7,0-27.3,0-41.3c0-7.7-0.6-7.7-7.7-4.2c-1.5,0.9-3,1.8-4.2,2.7C179.2,35.3,126.6,65.6,74.1,95.9
			c-13.7,8-27.3,15.7-41,23.8c-1.2,0.6-1.8,2.1-2.4,3.3c1.2,0.3,2.4,0.6,3.6,0.6C43.4,122.7,53,121.8,62.5,120.3z M174.6,68.2
			c0.6-1.1,1.2-2.1,1.9-3.2c0.7-1,1.4-2.1,2.2-3.1c3-4,6.6-7.8,10.5-10.8c1.4-1.1,2.9-2.2,4.4-3.1c1-0.6,2-1.2,3-1.7
			c2.5-1.2,5-2.1,7.4-2.5c1.2-0.2,2.2-0.3,3.2-0.3s1.9,0,2.7,0.2c0.4,0.1,0.8,0.2,1.2,0.3c0.7,0.2,1.4,0.6,2,1
			c1.5,1,2.4,2.6,2.9,4.7c0.3,1.3,0.4,2.7,0.3,4.4c0,0.6-0.1,1.1-0.1,1.7c-0.1,1.3-0.4,2.6-0.7,3.9c-0.6,2.2-1.4,4.3-2.4,6.5
			c-0.7,1.5-1.5,2.9-2.4,4.4c-0.3,0.5-0.6,1-0.9,1.4c-0.3,0.5-0.6,0.9-1,1.4c-0.7,0.9-1.3,1.8-2.1,2.7c-1.1,1.3-2.2,2.6-3.4,3.9
			c-0.8,0.8-1.6,1.6-2.5,2.4c-1.3,1.2-2.6,2.2-3.9,3.2c-0.9,0.7-1.8,1.3-2.7,1.9c-3.7,2.4-7.6,4.1-11.4,4.9
			c-8.3,1.8-12.5-1.2-12.8-8.6c-0.1-3.4,0.8-7.1,2.3-10.8c0.4-1.1,0.9-2.1,1.5-3.2C174,69.2,174.3,68.7,174.6,68.2z M145.1,90.6
			c2.2-4.9,4.4-9.6,6.8-14.3c0.8-1.6,1.6-3.1,2.4-4.7c0.2-0.4,0.3-0.8,0.5-1.1c0.4-0.8,0.8-1.6,1.3-2.7c0.3-0.5,0.5-1.1,0.8-1.8
			c-1.5-0.3-2.4-0.3-3.6-0.6c-1.5-0.3-3-0.6-4.2-0.9c0.2-0.6,0.4-1.3,0.5-1.9c0.1-0.4,0.2-0.9,0.3-1.3c0.2-0.6,0.4-1.1,0.7-1.3
			c1-0.8,2-1.5,3-2.2c0.5-0.4,1-0.7,1.5-1.1c1-0.7,2.1-1.4,3.1-2c1.6-1,3.2-1.9,4.9-2.7c2.2-1.1,4.9-1.1,7.7-1.1
			c0.9,0,1.8,0,2.7-0.1v0c-0.1,0.8-0.3,1.7-0.4,2.5c-0.4,2.6-0.9,5.3-2,7.6c-1.7,3.7-3.4,7.3-5.1,11c-1.1,2.4-2.3,4.9-3.5,7.3
			c-0.6,1.2-1.2,2.4-1.8,3.6c-1.2,2.4-2.4,4.8-3.7,7.2c-1.5,2.7-4.2,4.8-6.8,6.2c-0.3,0.1-0.7,0.2-1.1,0.2c-0.2,0-0.3,0-0.5,0
			c-0.4,0-0.7-0.1-1.1-0.2c-0.2-0.1-0.4-0.1-0.6-0.2c-0.8-0.3-1.6-0.6-2.2-0.9C144.2,94.7,144.5,91.7,145.1,90.6z"/>
		<path class="st2" d="M270.2,98c62.4,8.9,124.8,16.9,187.5,25.3c3,0.3,5.6,0.6,8.6,0.6c0.9,0,1.8-0.9,2.7-1.5
			c-0.6-0.6-0.9-1.5-1.5-1.8c-2.4-1.5-5.1-3-7.4-4.5c-42.5-24.7-84.7-49-127.2-73.7C310.6,29.6,288.3,16.6,266,4.1
			c-10.1-5.9-10.4-5.6-10.4,5.3c0,12.5,0,25,0,37.4c0,11.6,0,23.2,0,34.8C255.9,98.6,253.5,95.6,270.2,98z M312.5,49.8
			c0-0.3,0.1-0.6,0.2-0.9c0.1-0.3,0.3-0.6,0.4-0.9c0.7-1,1.8-1.7,3.3-2c7.1-1.3,17,1.8,24.7,6.8c1.2,0.8,2.3,1.6,3.3,2.4
			c1,0.8,2,1.7,2.9,2.6c0.3,0.3,0.6,0.6,0.9,0.9c0.6,0.6,1.1,1.2,1.5,1.9c0.2,0.3,0.5,0.6,0.7,1c0.4,0.6,0.8,1.3,1.1,1.9
			c1.5,3,2,5,1.3,7.2c-0.1,0.3-0.2,0.5-0.3,0.8c-0.5,1.1-1.3,2.3-2.4,3.6c-0.3,0.3-0.6,0.7-0.9,1c-0.7,0.7-1.4,1.5-2.2,2.3
			c-0.3,0.3-0.6,0.6-0.9,1c-0.5,0.7-1,1.5-1.6,2.3c-0.3,0.4-0.6,0.8-0.9,1.2c1.5,0.6,3,1.5,4.5,1.8c1.7,0.5,3.4,0.8,5,1.2
			c2.8,0.7,5.5,1.4,8.1,2.7c1.8,0.9,2.1,4.2,3.3,6.2c-0.5,0.1-0.9,0.3-1.4,0.4c-1.4,0.4-2.8,0.8-3.7,1.1h0
			c-6.4-1.4-12.7-2.5-18.9-3.9c-2.1-0.5-4.1-0.9-6.1-1.4c-3-0.9-5.9-2.7-8.3-5.1c-0.8-0.8-1.4-1.6-1.9-2.4c-0.2-0.2-0.3-0.5-0.4-0.7
			c-0.2-0.5-0.4-0.9-0.5-1.4c0-0.2-0.1-0.4-0.1-0.7c0-0.4,0-0.9,0.1-1.3c0.1-0.4,0.3-0.9,0.5-1.3c0.6-1.1,1.6-2.3,3-3.6
			c0.7-0.7,1.4-1.3,2.2-1.9c0.9-0.7,1.7-1.3,2.5-2.1c0.3-0.2,0.5-0.5,0.8-0.8c0,0,0.1,0,0.1-0.1c0.4-0.3,0.7-0.7,1-1
			c0.6-0.7,1.2-1.3,1.6-1.9c1-1.5,1.4-3,1.2-4.3c-0.1-0.4-0.2-0.9-0.4-1.3c-0.2-0.4-0.5-0.8-0.9-1.2c-1.1-1.1-2.8-2.1-5.2-2.8
			c-3-0.9-6.5-0.3-9.8-1.2c-0.3-0.1-0.7-0.2-1-0.3c-1-0.3-2-0.7-2.9-1.2c-0.6-0.3-1.2-0.7-1.7-1.1c-0.5-0.4-1-0.8-1.5-1.3
			c-0.2-0.3-0.4-0.6-0.5-0.9c-0.1-0.3-0.2-0.6-0.2-1C312.5,50.1,312.5,50,312.5,49.8z M283.5,41.5c0.2-0.1,0.3-0.1,0.5-0.2
			c0.3-0.1,0.6-0.2,1-0.2c0.2,0,0.3,0,0.5,0c0.4,0,0.8,0,1.3,0c0.5,0,1,0,1.6,0c6.2,0,11.9,3,15.2,9.5c1.3,2.8,2.5,5.5,3.8,8.2
			c2.5,5.5,4.9,11,7.3,16.5c1.2,2.8,2.4,5.5,3.6,8.2c1,2.7,0.6,4.2-1,4.8c-0.4,0.2-1,0.3-1.6,0.3c-0.2,0-0.4,0-0.6,0s-0.5,0-0.7,0
			c-3.5-0.4-6.1-1.7-8.1-3.8c-1.2-1.3-2.3-2.9-3.2-4.8c-3-6.8-5.9-13.7-8.9-20.5c-0.9-2.1-1.9-4-3.5-5.1c-0.3-0.2-0.7-0.4-1-0.6
			s-0.8-0.3-1.2-0.4s-0.9-0.1-1.4-0.2c-0.3,0-0.6,0-0.8,0c-1.5,0-3.6-0.3-4.5-1.5c-1.8-2.1-3.3-4.5-4.8-6.8c0.5-0.3,1.1-0.6,1.6-1
			C280,43.3,281.8,42.4,283.5,41.5z"/>
		<path class="st2" d="M479.7,348.2C479.7,348.2,479.7,348.2,479.7,348.2c0.3,0.3,0.6,0.5,0.9,0.8c0.3,0.2,0.7,0.5,1.1,0.7
			c0.3,0.2,0.5,0.3,0.8,0.5c0.2,0.1,0.4,0.2,0.5,0.3c0.1,0.1,0.2,0.1,0.4,0.2h0c0.1-0.2,0.2-0.5,0.3-0.7s0.2-0.4,0.3-0.7
			c0.4-0.8,0.9-1.7,1.1-2.5c0.1-0.5,0.2-1,0.1-1.5c0-0.8-0.5-1.5-1.2-2.5c-0.4-0.5-0.8-1-1.2-1.6c-0.5-0.6-1-1.3-1.5-2.1
			c-0.2,1-0.5,1.9-0.8,2.7c-0.8,2.4-1.6,4-1.3,5.5C479.2,347.6,479.4,347.9,479.7,348.2z"/>
		<path class="st2" d="M464.9,332.6c0,0.1-0.1,0.2-0.1,0.4c0,0.2,0,0.4,0,0.6c0,0.2,0,0.5,0,0.7c0,0.7,0.1,1.4,0.2,2.1
			c0.2,0.9,0.6,1.7,1.2,2.2c0.5,0.4,1.1,0.8,1.9,0.9c0.2,0,0.4,0,0.6,0c1,0,2.7-2.4,3.4-4.2c0.1-0.3,0.2-0.5,0.2-0.8
			c0-0.1,0-0.2,0-0.3c0-2.1-1.4-4.2-3.1-7.8c-0.3-0.5-0.5-1.1-0.8-1.7c-1.5,3.7-2.7,5.5-3.3,7.2C465,332.1,464.9,332.4,464.9,332.6z
			"/>
		<path class="st2" d="M6.6,152.4c23.8,70.4,47.5,140.9,71.3,211.3c1.5,4.2,3.9,7.7,5.6,11.6c2.7-3.6,5.6-7.1,7.7-11
			c46.1-79.9,92.1-159.9,138.2-239.8c2.4-3.9,4.8-7.7,6.8-11.9c0.3-0.9-0.9-2.7-1.2-3.3c-14,1.8-26.7,3.3-39.5,5.1
			c-42.8,5.6-85.6,11.3-128.4,17.2C48.7,134,30,136.4,11.5,139c-7.7,1.2-8,2.1-5.9,9.8C5.7,150,6,151.2,6.6,152.4z M60.8,195.4
			c0.1-1.3,0.2-2.7,0.5-4.1c0.5-2.3,1-4.6,1.8-6.8c1.2-3.7,2.9-7.1,4.9-10.3c2-3.2,4.4-6.2,7.2-9c1.7-1.7,3.5-3.3,5.4-4.8
			c0.4-0.3,0.8-0.6,1.2-0.9c2.9-2,5.7-3.3,8.4-4c0.4-0.1,0.8-0.2,1.2-0.2c1.2-0.2,2.3-0.3,3.4-0.2c7.4,0.2,13.4,5.7,16.1,15.5
			c0.2,0.7,0.3,1.4,0.6,1.9c0.1,0.4,0.3,0.7,0.4,0.9c0.2,0.4,0.5,0.7,0.9,0.9c0.2,0.1,0.5,0.2,0.7,0.3c0.3,0.1,0.6,0.1,0.9,0.1
			c0.2,0,0.3,0,0.5,0c0.5-0.1,1.2-0.2,1.9-0.4c3.3-1,7.2-2.1,10.7-1.9c0.5,0,1,0.1,1.5,0.1c9.5,1.5,14.9,9.2,14.9,22.9
			c-0.5,4.6-1.6,9-3.4,13.3c-0.7,1.7-1.5,3.4-2.4,5c-2.3,4.1-5.2,7.9-8.7,11.4c-1.4,1.4-2.9,2.7-4.5,4c-1.6,1.3-3.3,2.5-5.1,3.6
			c-13.1,8.6-25.6,3-29.4-12.2c-1.2-4.5-2.1-5.6-7.1-5.3c-6.7,0.8-12.3-0.8-16.2-4.1c-0.6-0.5-1.1-1-1.6-1.5c-0.5-0.5-1-1.1-1.4-1.7
			c-1.1-1.5-1.9-3.2-2.5-5.1c-0.6-1.9-0.9-3.9-0.9-6C60.8,196.2,60.8,195.8,60.8,195.4z"/>
		<path class="st2" d="M65.1,393.7c8.3-3.6,8.3-3.6,5.3-12.5c-12.5-37.7-25.3-75.8-38-113.5c-8.9-26.4-17.8-52.9-26.7-79
			c-1.2-3.6-2.7-6.8-4.2-10.1c-0.3,3.9-1.2,7.7-1.2,11.9c0,16.9,0,34.2,0,51.1c0,17.2,0,34.4,0,51.6c0,1.5,0,3,0,4.6
			c0,5.9,0.6,11.6,5.3,16c0.9,0.6,2.1,0.9,3.3,1.2c0-1.2,0.6-2.4,0-3.3c-4.2-7.1-5.3-14.9-3.6-22.9c1.2-4.8,3.9-8.6,8.9-9.5
			c4.8-0.9,8,2.1,10.4,5.6c5.9,9.2,7.7,19.3,5.1,29.7c-1.5,6.2-6.2,10.7-11.6,14c-4.8,3-9.2,2.1-14.3-0.3c-4.2-2.1-3.6,2.1-3.6,4.2
			c0,0.8,0,1.6,0,2.4c0,25.3,0,50.7,0,76.3c0,1.2-0.3,3,0.3,3.6c1.5,1.5,3.6,3.6,5.3,3.9c2.4,0.3,4.8-1.2,7.1-2.4
			C30.7,408.2,47.9,401.1,65.1,393.7z M10.1,348.9c0.7-1,1.5-4,3.6-5.5c6.8-5.6,13.7-10.7,20.8-15.7c1.7-1.4,3.1-1.8,4.2-1.2
			c0.1,0.1,0.3,0.1,0.4,0.2c0.4,0.3,0.7,0.6,1,1.1c0.1,0.2,0.2,0.3,0.3,0.5c0.2,0.4,0.4,0.8,0.6,1.2c1.1,2.7,1.8,4.7,1.8,6.5
			c0,0.4,0,0.7-0.1,1.1c-0.1,0.5-0.2,1-0.4,1.5c-0.1,0.2-0.1,0.3-0.2,0.5c-0.8,1.7-2.5,3.3-5,5.3c-3,2.4-5.9,4.5-8.9,6.5
			c-1.8,1.3-3.4,2.6-4.3,4c-0.6,0.9-0.9,1.8-0.9,2.8c0,1.2,0.5,2.6,1.6,4.2c0.6,0.8,0.7,1.9,0.6,2.9c0,0.7,0,1.3,0,1.9
			c-0.3,3.3-4.5,5.1-6.5,2.7c-4-4.7-7.8-9.6-8.5-17.2c0-0.5-0.1-1-0.1-1.6C10.1,350.1,10.1,349.5,10.1,348.9z"/>
		<path class="st2" d="M24.4,301.8c-2.4-2.7-4.5-4.8-6.2-6.8c-1.5,1.8-4.2,4.2-3.9,5.6c0.6,2.7,3,5.1,4.5,7.4
			C20.3,306,21.8,304.5,24.4,301.8z"/>
		<path class="st2" d="M213.4,549.1c0,0.3,0.6,0.3,0.9,0.3c-0.3-0.3-0.6-0.6-0.9-0.6V549.1z"/>
		<path class="st2" d="M96,459.3c-0.9,0.3-1.8,1.2-3.3,2.7c3.6,3,6.8,5.3,10.1,7.7c0.3,0.3,1.5-1.2,2.4-1.8c-2.4-2.7-4.5-5.3-6.8-8
			C98.1,459.3,96.9,459,96,459.3z"/>
		<path class="st2" d="M144.2,471.2c-19.9-21.7-40.1-43.4-59.7-65.4c-3.6-4.2-6.8-5.1-11.9-2.7c-19,8.3-38,16.3-57.4,24.7
			c-1.8,0.6-3,2.4-4.5,3.9c1.2,1.2,2.4,2.4,3.6,3.3c16.9,9.8,33.9,19.6,50.8,29.1c3.6,2.1,7.1,3.3,10.7,5.1c-2.1-3-4.5-5.6-6.2-8.9
			c-0.6-0.9,0-2.7,0-4.2c1.5,0.3,3.3,0,4.5,0.9c1.8,1.2,2.7,3.3,4.2,4.5c3.3,3.3,6.5,6.2,10.1,9.2c1.5,1.2,3.6,0.9,5.6,1.2
			c-1.2-1.2-2.1-2.1-3.3-3.3c-3.9-4.8-8.3-9.2-11.6-14.6c-2.7-4.5,0-8.3,5.3-8c2.7,0.3,5.6,1.2,8.3,2.4c9.2,4.5,16.6,11.3,22.3,19.6
			c6.8,9.8,5.3,13.7-5.9,17.8c-0.9,0.3-1.5,0.6-2.4,0.6c0.6,0.9,1.2,2.1,1.8,2.7c1.2,0.9,3,1.8,4.2,2.7c27,15.5,54.1,31.2,81.1,46.7
			c5.6,3.3,11.9,5.9,17.8,8.9c-1.5-2.4-3-5.1-5.1-7.4C186.4,517.3,165.3,494.4,144.2,471.2z M116.1,460.8c-3.6-4-7.1-8.1-10.5-12.2
			c-0.1-0.1-0.2-0.3-0.3-0.4c-0.1-0.2-0.2-0.3-0.2-0.5c-0.1-0.4-0.2-0.8-0.3-1.3c-0.1-0.9,0.1-1.7,0.5-2c0.9-0.9,3-1.2,4.5-0.9
			c0.4,0.1,0.8,0.2,1.1,0.3c0.7,0.3,1.5,0.7,2.1,1.2c0.3,0.3,0.7,0.5,1,0.8c7.4,8.3,14.9,16.6,22.3,25c0.7,0.7,1,1.5,1.4,2.5
			c0.1,0.3,0.3,0.7,0.4,1.1c-0.3,0.2-0.6,0.3-0.9,0.5s-0.5,0.3-0.8,0.5c-0.2,0.1-0.3,0.2-0.5,0.3c-0.3,0.1-0.5,0.3-0.8,0.3
			c-0.2,0.1-0.4,0.1-0.6,0c-2.7-0.9-5.9-1.5-7.7-3.3C123.3,468.8,119.7,464.8,116.1,460.8z"/>
		<path class="st2" d="M213.4,547.9c-0.6,0-0.6-0.3-0.9-0.3c0.3,0.3,0.3,0.6,0.6,0.6c0.3,0,0.3,0.3,0.6,0.3
			C213.7,548.2,213.7,548.2,213.4,547.9z"/>
		<path class="st2" d="M189.1,80.8c8-5.3,11.3-13.7,14.3-22.6c-0.6-1.2-0.9-2.7-1.8-3c-1.2-0.6-3.3-0.6-4.5,0
			c-8,5.3-11.9,13.4-14,22.3C182.5,80.8,186.1,82.8,189.1,80.8z"/>
		<path class="st2" d="M80.1,192.9c0.2,0.2,0.4,0.4,0.6,0.6c0.6,0.6,1.3,1.1,2,1.4c0.7,0.4,1.5,0.7,2.4,0.8c0.6,0.1,1.1,0.2,1.7,0.2
			c5.9-0.3,9.8-4.5,9.5-10.7c0-5.6-3.3-9.2-8-9.2c-1.7-0.1-3.3,0.4-4.8,1.3c-0.6,0.4-1.2,0.8-1.7,1.3c-0.3,0.2-0.5,0.5-0.8,0.8
			c-0.7,0.8-1.4,1.8-1.9,2.8c-0.5,1-0.9,2.1-1.1,3.2c-0.1,0.7-0.2,1.5-0.1,2.2c0.1,1.4,0.5,2.7,1.3,3.9
			C79.4,192.1,79.8,192.5,80.1,192.9z"/>
		<path class="st2" d="M114.5,215.7c5.6,0,11.9-7.1,11.9-13.7c0-5.6-4.8-10.4-10.4-10.1c-6.2,0.3-11,5.6-11,12.8
			C105,210.6,109.1,215.7,114.5,215.7z"/>
		<path class="st2" d="M276,300.8c0.1,1.1,0.3,2.3,0.5,3.4c0.2,1.3,0.6,2.7,0.9,4c0.1,0.4,0.2,0.9,0.4,1.3c0.7,2.4,1.6,4.8,2.8,7.1
			c0.3,0.6,0.5,1.1,0.8,1.6c0.4,0.7,0.9,1.3,1.5,1.9c0.3,0.4,0.7,0.7,1.1,1c0.4,0.4,0.9,0.7,1.4,1c0.6,0.3,1.1,0.6,1.7,0.8
			c0.8,0.3,1.7,0.4,2.6,0.4c1.3,0,2.6-0.3,3.9-0.9c0.8-0.4,1.6-1,2.4-1.7s1.4-1.5,2-2.5c0.3-0.5,0.6-1,0.9-1.6
			c0.8-1.5,1.3-3.2,1.9-4.8c0.8-2.5,1.3-5.1,1.9-7.8s1.1-5.4,1.9-8.2c-0.6-2.5-1.1-5-1.7-7.5c-0.1-0.4-0.2-0.8-0.3-1.2
			c-0.3-1.4-0.6-2.7-1-4.1c-0.8-2.9-1.7-5.7-3-8.3c-0.7-1.5-1.7-2.7-2.7-3.6c0,0,0,0,0,0c-4.6-4.1-11.7-2.8-14.8,3.7
			c-3.4,6.8-5.1,13.9-5.1,21c0,0,0,0,0,0.1C275.8,297.5,275.8,299.1,276,300.8z"/>
		<path class="st2" d="M230.8,452.2c-1.2-0.2-2.3-0.3-3.4-0.3c-0.7,0-1.4,0.1-2.1,0.3c-1.8,0.6-2.7,4.5-3,5.1c0,3.3,0,4.8,0,5.9
			c0.2,0.6,0.3,1.2,0.5,1.8c0.1,0.6,0.3,1.1,0.5,1.5c1.2-0.6,2.7-1.2,3.6-2.1c1.5-1.5,2.7-3,3.9-4.8c0.4-0.5,0.7-1.1,1-1.7
			c0.5-1,1-2,1.5-3.1c0.4-0.8,0.7-1.6,1.1-2.4c-0.4,0-0.8,0-1.2,0C232.4,452.4,231.6,452.3,230.8,452.2z"/>
	</g>
</g>
</svg>
