<?xml version="1.0" encoding="utf-8"?>
<!-- Generator: Adobe Illustrator 24.3.0, SVG Export Plug-In . SVG Version: 6.00 Build 0)  -->
<svg version="1.1" id="Livello_1" xmlns="http://www.w3.org/2000/svg" xmlns:xlink="http://www.w3.org/1999/xlink" x="0px" y="0px"
	 viewBox="0 0 500 565.9" style="enable-background:new 0 0 500 565.9;" xml:space="preserve">
<style type="text/css">
	.st0{fill:#C89666;}
</style>
<g>
	<path class="st0" d="M103.5,387.7c48.7,0,97.2,0,145.9,0l0,0c49,0,98.1,0,147.1,0c11.6,0,11.9-0.3,5.9-10.4
		c-49-85-98.1-170-147.1-254.7c-0.9-1.8-2.1-3.6-3.3-5.3c-1.5-1.8-3-3-4.8,0c-0.6,1.2-1.2,2.1-1.8,3.3
		c-49.3,85.6-99,171.2-148.3,257C91.6,387.4,91.6,387.7,103.5,387.7z M257.7,270.6c5.3-14.3,16.6-21.4,31.8-21.7
		c14.9-0.6,27.3,8,33,22.3c6.2,16,6.5,32.4,0.6,48.7c-5.6,14.9-17.8,23.5-33.3,23.5c-15.2,0-27.9-8.6-33-23.8
		c-2.4-7.4-3.3-15.2-5.1-23.8C253.5,287.6,254.7,278.7,257.7,270.6z M209,269.4c-4.8-0.6-9.8,1.5-14.3,2.7c-6.2,1.8-8.3,0.9-9.8-5.1
		c-1.5-6.2,0.9-11,6.8-14.6c12.2-6.8,33.3-4.2,43.1,5.6c6.5,6.5,8.9,14.6,6.8,24.1c-2.4,10.4-8.9,17.5-16.3,24.4
		c-4.8,4.2-8.9,8.9-13.4,13.7c6.2,0.3,12.5,0.6,18.7,0.6c1.2,0,2.4,0,3.9,0c7.1,0.3,8.6,2.1,8.9,8.9c0.3,7.4-2.1,10.1-8.9,10.7
		c-7.4,0.3-14.9,0-22.6,0l0,0c-6.2,0-12.5,0-18.7,0c-7.1-0.3-9.8-2.4-11.6-8.9c-2.1-7.4,0.3-14,5.9-19.3
		c6.5-5.9,13.1-11.6,19.3-17.8c3.3-3.3,6.5-6.5,9.2-10.1C220.5,277.5,217.9,270.3,209,269.4z"/>
	<path class="st0" d="M361.7,122.1c-31.2-4.2-62.7-8.3-93.9-12.5c-4.2-0.6-5.3,0.9-3.3,4.5c3.3,6.2,7.1,12.2,10.7,18.4
		c45.2,78.4,90.6,156.9,135.8,235.3c1.5,2.7,3.9,5.1,5.9,7.7c1.5-3,3.3-5.6,4.2-8.6c18.7-55.6,37.4-110.8,56.2-166.4
		c5.6-16.9,11.6-33.9,16.9-50.8c2.7-8,1.2-9.8-6.5-11c-7.1-0.9-14-1.8-21.1-2.7C431.5,131.6,396.8,126.8,361.7,122.1z M412.8,222.8
		c-6.5-1.2-12.5-4.2-19-5.9c-1.5-0.3-3,0-4.5,0c0.6,1.5,0.9,3,1.8,4.2c2.1,3.6,4.5,7.1,6.8,10.4c3,3.9,2.1,6.8-1.2,9.8
		c-3.6,3.3-7.4,3.6-11.3,0.3c-1.5-1.2-2.7-3-3.9-4.8c-6.8-9.8-13.7-19.9-20.5-29.7c-3.3-4.8-5.1-9.5-1.2-14.9
		c3.9-5.1,9.2-5.1,14.6-3.6c5.9,1.8,11.6,4.5,17.5,6.5c4.8,1.8,9.5,3.3,14.3,4.5c3.9,0.9,6.8-2.4,5.1-5.6c-2.7-4.5-5.9-9.2-9.8-12.5
		c-3.9-3.3-6.8-5.9-3.6-11.3c2.7-4.8,7.7-5.9,12.8-2.4c12.8,8.9,20.8,21.4,22.3,34.8C433,216.8,424.4,224.9,412.8,222.8z"/>
	<path class="st0" d="M6.6,152.4c23.8,70.4,47.5,140.9,71.3,211.3c1.5,4.2,3.9,7.7,5.6,11.6c2.7-3.6,5.6-7.1,7.7-11
		c46.1-79.9,92.1-159.9,138.2-239.8c2.4-3.9,4.8-7.7,6.8-11.9c0.3-0.9-0.9-2.7-1.2-3.3c-14,1.8-26.7,3.3-39.5,5.1
		c-42.8,5.6-85.6,11.3-128.4,17.2c-18.4,2.4-37.1,4.8-55.6,7.4c-7.7,1.2-8,2.1-5.9,9.8C5.7,150,6,151.2,6.6,152.4z M80.6,160.4
		c13.1-10.1,26.1-5.6,30.3,10.1c0.9,3.9,2.1,4.8,5.9,3.6s8.3-2.4,12.2-1.8c9.5,1.5,14.9,9.2,14.9,22.9c-1.5,14.6-9.8,28.2-24.1,37.4
		c-13.1,8.6-25.6,3-29.4-12.2c-1.2-4.5-2.1-5.6-7.1-5.3c-15.2,1.8-25-8.9-22-23.8C63.7,178.8,70.2,168.4,80.6,160.4z"/>
	<path class="st0" d="M402.1,400.8c-3-0.6-6.2-1.5-9.2-1.5c-47.5,0-94.8,0-142.3,0l0,0c-47.8,0-95.7,0-143.5,0
		c-3.3,0-6.2,0.9-9.5,1.5c1.8,2.7,3,5.6,5.1,7.7c45.5,49.6,91.2,99.3,136.7,148.9c10.4,11.3,10.4,11.3,20.8,0.3
		c45.5-49.6,91.2-99.3,136.7-149.2C398.8,406.4,400.3,403.5,402.1,400.8z M253.8,458.4c-6.8,7.1-13.7,14.3-20.5,21.4
		c-5.9,5.9-7.1,6.5-15.2,6.5c-11.6,0-14.3-2.7-14.6-14.9c0-3.3,0-6.5,0-9.8c0.3-5.6,0.3-11-8-10.7c-1.5,0-4.2-3.3-4.2-5.1
		c0.3-2.4,2.1-6.5,3.9-6.8c5.6-0.9,8.6-3,8.6-9.2c0-4.2,4.8-3.9,8-3.9c4.5,0,10.4-0.6,11,5.3c0.6,6.5,3.9,7.1,8.9,6.8
		c4.5-0.3,9.2,0,13.7,0c5.1,0,10.4-0.3,12.5,5.6C260.1,449.5,257.7,454.3,253.8,458.4z M300.2,482.5c-5.9,1.8-11.9,3.3-15.7,4.2
		c-11.6-0.3-14.3-2.7-14.3-11.9c-0.3-13.4,0-26.7,0-39.8c0-4.5,0-8.3,6.2-8.6c8.3-0.3,12.8,1.5,13.4,7.4c0.6,5.6,0.3,11.6,0.3,17.5
		c0,3.3,0,6.5,0,10.1c0.3,7.1,0.3,7.1,7.4,7.1c4.2,0,7.7,0,8.6,4.8C307.3,478.1,304.6,481,300.2,482.5z"/>
	<path class="st0" d="M270.2,98c62.4,8.9,124.8,16.9,187.5,25.3c3,0.3,5.6,0.6,8.6,0.6c0.9,0,1.8-0.9,2.7-1.5
		c-0.6-0.6-0.9-1.5-1.5-1.8c-2.4-1.5-5.1-3-7.4-4.5c-42.5-24.7-84.7-49-127.2-73.7C310.6,29.6,288.3,16.6,266,4.1
		c-10.1-5.9-10.4-5.6-10.4,5.3c0,12.5,0,25,0,37.4l0,0c0,11.6,0,23.2,0,34.8C255.9,98.6,253.5,95.6,270.2,98z M316.5,46
		c11.3-2.1,30,7.1,35.1,17.5c3,5.9,2.1,8.3-4.5,14.9c-1.2,1.2-2.1,3-3.3,4.5c1.5,0.6,3,1.5,4.5,1.8c4.5,1.2,8.9,1.8,13.1,3.9
		c1.8,0.9,2.1,4.2,3.3,6.2c-1.8,0.6-3.9,1.2-5.1,1.5c-8.6-1.8-16.9-3.3-25-5.3c-3-0.9-5.9-2.7-8.3-5.1c-4.2-4.5-3.6-7.1,0.9-11.3
		c1.8-1.8,3.9-3,5.6-4.8c5.9-5.3,5.1-10.1-2.7-12.5c-3-0.9-6.5-0.3-9.8-1.2c-2.7-0.6-5.3-2.1-7.1-3.9C311.5,49.8,313,46.6,316.5,46z
		 M283.5,41.5c1.2-0.6,2.4-0.3,4.8-0.3c6.2,0,11.9,3,15.2,9.5c5.1,11,9.8,22,14.6,33c1.5,3.9,0,5.3-3.9,5.1
		c-5.6-0.6-8.9-3.6-11.3-8.6c-3-6.8-5.9-13.7-8.9-20.5c-1.5-3.6-3.3-6.5-8-6.2c-1.5,0-3.6-0.3-4.5-1.5c-1.8-2.1-3.3-4.5-4.8-6.8
		C278.8,43.9,281.2,42.7,283.5,41.5z"/>
	<path class="st0" d="M62.5,120.3c41.9-5.6,84.1-11.3,126-16.9c15.2-2.1,30.6-3.9,45.8-6.2c9.5-1.5,9.5-1.8,9.5-10.7
		c0-12.8,0-25.9,0-38.6l0,0c0-13.7,0-27.3,0-41.3c0-7.7-0.6-7.7-7.7-4.2c-1.5,0.9-3,1.8-4.2,2.7C179.2,35.3,126.6,65.6,74.1,95.9
		c-13.7,8-27.3,15.7-41,23.8c-1.2,0.6-1.8,2.1-2.4,3.3c1.2,0.3,2.4,0.6,3.6,0.6C43.4,122.7,53,121.8,62.5,120.3z M203.9,43.9
		c9.2-1.5,13.1,2.4,12.2,11.9c-1.8,15.5-18.1,33.3-33.3,36.6c-8.3,1.8-12.5-1.2-12.8-8.6C169.7,68.3,188.5,46.3,203.9,43.9z
		 M145.1,90.6c3-6.5,5.9-12.8,9.2-19c0.6-1.5,1.5-3,2.7-5.6c-1.5-0.3-2.4-0.3-3.6-0.6c-1.5-0.3-3-0.6-4.2-0.9
		c0.6-1.5,0.6-3.9,1.5-4.5c3.9-3,8-5.9,12.5-8c3-1.5,6.8-0.9,10.4-1.2c-0.6,3.3-0.9,7.1-2.4,10.1c-4.5,9.8-8.9,19.6-14,29.1
		c-1.5,2.7-4.2,4.8-6.8,6.2c-1.2,0.6-3.9-0.3-5.6-1.2C144.2,94.7,144.5,91.7,145.1,90.6z"/>
	<path class="st0" d="M65.1,393.7c8.3-3.6,8.3-3.6,5.3-12.5c-12.5-37.7-25.3-75.8-38-113.5c-8.9-26.4-17.8-52.9-26.7-79
		c-1.2-3.6-2.7-6.8-4.2-10.1c-0.3,3.9-1.2,7.7-1.2,11.9c0,16.9,0,34.2,0,51.1l0,0c0,18.7,0,37.4,0,56.2c0,5.9,0.6,11.6,5.3,16
		c0.9,0.6,2.1,0.9,3.3,1.2c0-1.2,0.6-2.4,0-3.3c-4.2-7.1-5.3-14.9-3.6-22.9c1.2-4.8,3.9-8.6,8.9-9.5c4.8-0.9,8,2.1,10.4,5.6
		c5.9,9.2,7.7,19.3,5.1,29.7c-1.5,6.2-6.2,10.7-11.6,14c-4.8,3-9.2,2.1-14.3-0.3c-4.2-2.1-3.6,2.1-3.6,4.2c0,26.1,0,52.3,0,78.7
		c0,1.2-0.3,3,0.3,3.6c1.5,1.5,3.6,3.6,5.3,3.9c2.4,0.3,4.8-1.2,7.1-2.4C30.7,408.2,47.9,401.1,65.1,393.7z M13.7,343.4
		c6.8-5.6,13.7-10.7,20.8-15.7c3-2.4,5.1-1.8,6.5,1.8c3,7.1,2.7,9.8-3.9,14.9c-3,2.4-5.9,4.5-8.9,6.5c-4.2,3-7.1,5.9-3.6,11
		c0.9,1.2,0.6,3.3,0.6,4.8c-0.3,3.3-4.5,5.1-6.5,2.7c-4.5-5.3-8.9-11-8.6-20.5C10.8,347.9,11.6,344.9,13.7,343.4z"/>
	<path class="st0" d="M485.9,312.2c-5.3-3.9-10.1-8.9-14.6-13.7c-3-3-2.4-8.9,0.9-12.5c3.6-3.9,5.6,0.6,8,2.4
		c2.7,2.1,5.1,4.5,7.4,6.5c3,2.4,5.9,4.5,8.6,6.5c1.2-3.6,2.4-6.8,3-10.4c0.6-2.7,0.3-5.6,0.3-8.6c0-15.7,0-31.5,0-47.5
		c0-17.8,0-35.7,0-53.8c0-1.2-0.3-2.4-0.3-3.6c-0.9,1.2-2.4,2.1-3,3.6c-0.9,1.8-1.2,3.9-2.1,5.9c-10.7,31.5-21.1,63-31.8,94.5
		c-11.3,33.6-22.3,66.9-33.6,100.4c-2.7,7.7-2.4,8,4.8,11.3c12.5,5.6,25.3,10.7,37.7,16c5.6,2.4,11.3,5.1,17.2,7.1
		c5.3,2.1,9.2,0,10.1-5.3c0.6-3.3,0.3-6.5,0.3-9.8c0-19-0.9-38.3,0.3-57.4C501.1,330.1,497.5,320,485.9,312.2z M488.3,363.1
		c-4.2,6.5-9.8,6.5-13.7,0c-2.7-4.5-5.1-7.1-10.4-8.6c-7.7-2.1-8.3-10.4-8.9-20.8c1.8-4.8,4.2-12.2,8-19c3.3-5.9,9.2-5.3,13.1,0.3
		c3.3,4.8,3.9,12.2,12.2,12.5c1.5,0,3.3,3.6,4.2,5.9C496,344,494.2,353.8,488.3,363.1z"/>
	<path class="st0" d="M431.5,405.5c-12.2-5.1-9.2-6.5-18.7,3.6c-33.9,36.6-67.5,73.4-101.3,110.2c-8,8.9-16.3,17.8-24.4,26.7
		c-0.6,0.6-0.6,1.5-0.9,2.1c0.6,0.3,1.2,0.3,2.1,0.6c1.8-0.9,3.6-1.8,5.3-3c12.5-7.4,25-14.6,37.7-22
		c51.1-29.4,102.2-59.1,153.3-88.6c1.8-0.9,3-2.4,4.5-3.9c-1.5-1.2-3-2.7-4.8-3.6C466.9,420.4,449.4,412.7,431.5,405.5z
		 M413.7,472.1c-3.9,2.7-7.7,4.2-12.5,1.8c-6.8-3.3-13.7-6.2-20.2,1.2c-0.6,0.6-3.6,0.6-4.5-0.3c-0.9-0.6-1.2-3-0.9-4.2
		c1.2-2.7,3.3-5.1-0.3-7.4c-0.6-0.3-0.9-2.4-0.3-3c3.6-3.3,7.4-8.9,11-8.9c7.1,0,10.4-3.9,14.3-8c3-3.3,5.9-7.1,9.5-9.8
		c2.7-1.8,7.1-3,10.1-2.4c1.8,0.3,2.7,5.1,3.3,8c0.6,2.4,0,5.1,0,8C425.3,457.5,422.3,465.9,413.7,472.1z"/>
	<path class="st0" d="M144.2,471.2c-19.9-21.7-40.1-43.4-59.7-65.4c-3.6-4.2-6.8-5.1-11.9-2.7c-19,8.3-38,16.3-57.4,24.7
		c-1.8,0.6-3,2.4-4.5,3.9c1.2,1.2,2.4,2.4,3.6,3.3c16.9,9.8,33.9,19.6,50.8,29.1c3.6,2.1,7.1,3.3,10.7,5.1c-2.1-3-4.5-5.6-6.2-8.9
		c-0.6-0.9,0-2.7,0-4.2c1.5,0.3,3.3,0,4.5,0.9c1.8,1.2,2.7,3.3,4.2,4.5c3.3,3.3,6.5,6.2,10.1,9.2c1.5,1.2,3.6,0.9,5.6,1.2
		c-1.2-1.2-2.1-2.1-3.3-3.3c-3.9-4.8-8.3-9.2-11.6-14.6c-2.7-4.5,0-8.3,5.3-8c2.7,0.3,5.6,1.2,8.3,2.4c9.2,4.5,16.6,11.3,22.3,19.6
		c6.8,9.8,5.3,13.7-5.9,17.8c-0.9,0.3-1.5,0.6-2.4,0.6c0.6,0.9,1.2,2.1,1.8,2.7c1.2,0.9,3,1.8,4.2,2.7c27,15.5,54.1,31.2,81.1,46.7
		c5.6,3.3,11.9,5.9,17.8,8.9c-1.5-2.4-3-5.1-5.1-7.4C186.4,517.3,165.3,494.4,144.2,471.2z M134.7,476c-2.7-0.9-5.9-1.5-7.7-3.3
		c-7.4-7.7-14.6-16-21.4-24.1c-0.9-0.9-1.2-3.6-0.3-4.2c0.9-0.9,3-1.2,4.5-0.9c1.5,0.3,3,1.2,4.2,2.4c7.4,8.3,14.9,16.6,22.3,25
		c0.9,0.9,1.2,2.1,1.8,3.6C136.5,475.4,135.3,476.3,134.7,476z"/>
	<path class="st0" d="M212.5,547.6c0.3,0.3,0.3,0.6,0.6,0.6c0.3,0,0.3,0.3,0.6,0.3c0-0.3,0-0.3-0.3-0.6
		C212.8,547.9,212.8,547.6,212.5,547.6z"/>
	<path class="st0" d="M24.4,301.8c-2.4-2.7-4.5-4.8-6.2-6.8c-1.5,1.8-4.2,4.2-3.9,5.6c0.6,2.7,3,5.1,4.5,7.4
		C20.3,306,21.8,304.5,24.4,301.8z"/>
	<path class="st0" d="M96,459.3c-0.9,0.3-1.8,1.2-3.3,2.7c3.6,3,6.8,5.3,10.1,7.7c0.3,0.3,1.5-1.2,2.4-1.8c-2.4-2.7-4.5-5.3-6.8-8
		C98.1,459.3,96.9,459,96,459.3z"/>
	<path class="st0" d="M213.4,549.1c0,0.3,0.6,0.3,0.9,0.3c-0.3-0.3-0.6-0.6-0.9-0.6V549.1z"/>
	<path class="st0" d="M298.7,316.7c3-6.2,3.6-13.4,5.6-20.8c-1.8-7.1-2.7-14.6-5.9-21.1c-3.9-8-13.7-8-17.5,0
		c-6.8,13.7-6.8,28.2-0.3,41.9C284.7,325.6,294.5,325.6,298.7,316.7z"/>
	<path class="st0" d="M114.5,215.7c5.6,0,11.9-7.1,11.9-13.7c0-5.6-4.8-10.4-10.4-10.1c-6.2,0.3-11,5.6-11,12.8
		C105,210.6,109.1,215.7,114.5,215.7z"/>
	<path class="st0" d="M86.8,196c5.9-0.3,9.8-4.5,9.5-10.7c0-5.6-3.3-9.2-8-9.2c-5.3-0.3-10.7,5.6-10.4,11.6
		C78.2,192.2,82.1,196,86.8,196z"/>
	<path class="st0" d="M225.3,452.2c-1.8,0.6-2.7,4.5-3,5.1c0,3.3,0,4.8,0,5.9c0.3,1.2,0.6,2.4,0.9,3.3c1.2-0.6,2.7-1.2,3.6-2.1
		c1.5-1.5,2.7-3,3.9-4.8c1.5-2.1,2.4-4.8,3.6-7.1C231.2,452.5,228,451.3,225.3,452.2z"/>
	<path class="st0" d="M189.1,80.8c8-5.3,11.3-13.7,14.3-22.6c-0.6-1.2-0.9-2.7-1.8-3c-1.2-0.6-3.3-0.6-4.5,0
		c-8,5.3-11.9,13.4-14,22.3C182.5,80.8,186.1,82.8,189.1,80.8z"/>
	<path class="st0" d="M464.8,333c-0.3,3,0.3,6.5,3.9,6.5c1.2,0,3.6-3.6,3.6-5.3c0-2.4-1.8-4.8-3.9-9.5
		C466.6,329.2,465.1,331,464.8,333z"/>
	<path class="st0" d="M479.1,347.3c0.3,1.2,2.7,2.4,4.2,3.3c0.6-1.8,2.1-3.6,1.8-5.3c0-1.5-1.8-3-3.9-6.2
		C480.3,343.1,478.8,345.2,479.1,347.3z"/>
	<path class="st0" d="M401.5,455.5c2.1,1.2,4.5,2.7,6.8,3.9c0.3,0,1.8-2.7,3-4.5c-1.2-2.4-2.1-4.2-3-5.9
		C406,451,403.6,453.1,401.5,455.5z"/>
</g>
</svg>
